<?xml version="1.0" standalone="no"?>
<!DOCTYPE svg PUBLIC "-//W3C//DTD SVG 1.1//EN" "http://www.w3.org/Graphics/SVG/1.1/DTD/svg11.dtd" >
<svg xmlns="http://www.w3.org/2000/svg" xmlns:xlink="http://www.w3.org/1999/xlink" version="1.1">
<metadata>
Created by FontForge 20161003 at Thu Feb 21 08:23:41 2019
 By www-data
(c) 2005 Adobe Systems Incorporated. All Rights Reserved.
</metadata>
<defs>
<font id="GaramondPremrProSmbd" horiz-adv-x="400" >
  <font-face 
    font-family="GaramondPremrProSmbd"
    font-weight="600"
    font-stretch="normal"
    units-per-em="1000"
    panose-1="2 2 6 2 6 5 6 2 4 3"
    ascent="725"
    descent="-275"
    x-height="397"
    cap-height="636"
    bbox="-227 -329 1401 917"
    underline-thickness="50"
    underline-position="-150"
    unicode-range="U+0020-FB04"
  />
<missing-glyph horiz-adv-x="500" 
d="M0 0v700h500v-700h-500zM250 395l170 255h-340zM280 350l170 -255v510zM80 50h340l-170 255zM50 605v-510l170 255z" />
    <glyph glyph-name="T_h" unicode="Th" horiz-adv-x="1068" 
d="M340 632q166 0 179 1q107 0 140 6q18 5 36 19q29 22 36 22q5 0 8.5 -4t3.5 -7q0 -1 -5.5 -51t-7.5 -89q-3 -88 -3 -168q0 -2 2 -4.5t5 -0.5q57 51 118 51q72 0 107 -48q29 -39 29 -110q0 -13 4 -180q1 -18 10 -26.5t29 -14.5q27 -7 27 -18q0 -14 -29 -14q-15 0 -42.5 2
t-39.5 2q-19 0 -47 -1.5t-46 -1.5q-24 0 -24 13q0 10 20 16q17 5 23 14.5t9 35.5q1 11 1 167q0 61 -25 82q-24 22 -60 22q-39 0 -58 -14q-10 -10 -12 -34q-2 -53 -2 -217q1 -25 9 -36t26 -16q24 -6 24 -17q0 -14 -30 -14q-2 0 -15 0.5t-34 0.5h-42q-23 0 -51.5 -1.5
t-34.5 -1.5q-25 0 -25 14q0 11 28 19q20 8 27 19t9 30q9 79 9 291q0 175 -3 189q-5 29 -19 29q-16 2 -96.5 1.5t-100.5 -3.5q-10 -2 -10 -12q0 -18 -0.5 -89t-0.5 -119q0 -208 5 -271q3 -27 17.5 -41.5t60.5 -24.5q10 -2 17.5 -8.5t7.5 -11.5q0 -13 -28 -13q-2 0 -67 2
t-81 2q-17 0 -67.5 -3t-57.5 -3q-31 0 -31 11q0 7 7 13t15 8q47 12 59 29t14 71q9 133 9 334q0 32 -0.5 70t-0.5 47q0 6 -4 10t-7 4q-18 3 -111 3q-13 0 -30 -7t-25 -16q-14 -15 -34 -51q-17 -28 -22 -28q-15 0 -15 23q0 6 9 55.5t10 78.5q0 4 5.5 12.5t10.5 8.5q6 0 19 -15
q8 -13 42 -17q66 -6 217 -6z" />
    <glyph glyph-name="Tcaron_h" unicode="&#x164;h" horiz-adv-x="1068" 
d="M340 632q166 0 179 1q107 0 140 6q18 5 36 19q29 22 36 22q5 0 8.5 -4t3.5 -7q0 -1 -5.5 -51t-7.5 -89q-3 -88 -3 -168q0 -2 2 -4.5t5 -0.5q57 51 118 51q72 0 107 -48q29 -39 29 -110q0 -13 4 -180q1 -18 10 -26.5t29 -14.5q27 -7 27 -18q0 -14 -29 -14q-15 0 -42.5 2
t-39.5 2q-19 0 -47 -1.5t-46 -1.5q-24 0 -24 13q0 10 20 16q17 5 23 14.5t9 35.5q1 11 1 167q0 61 -25 82q-24 22 -60 22q-39 0 -58 -14q-10 -10 -12 -34q-2 -53 -2 -217q1 -25 9 -36t26 -16q24 -6 24 -17q0 -14 -30 -14q-2 0 -15 0.5t-34 0.5h-42q-23 0 -51.5 -1.5
t-34.5 -1.5q-25 0 -25 14q0 11 28 19q20 8 27 19t9 30q9 79 9 291q0 175 -3 189q-5 29 -19 29q-16 2 -96.5 1.5t-100.5 -3.5q-10 -2 -10 -12q0 -18 -0.5 -89t-0.5 -119q0 -208 5 -271q3 -27 17.5 -41.5t60.5 -24.5q10 -2 17.5 -8.5t7.5 -11.5q0 -13 -28 -13q-2 0 -67 2
t-81 2q-17 0 -67.5 -3t-57.5 -3q-31 0 -31 11q0 7 7 13t15 8q47 12 59 29t14 71q9 133 9 334q0 32 -0.5 70t-0.5 47q0 6 -4 10t-7 4q-18 3 -111 3q-13 0 -30 -7t-25 -16q-14 -15 -34 -51q-17 -28 -22 -28q-15 0 -15 23q0 6 9 55.5t10 78.5q0 4 5.5 12.5t10.5 8.5q6 0 19 -15
q8 -13 42 -17q66 -6 217 -6zM333 675q-11 0 -41 25q-7 7 -37 34.5t-49 45.5q-8 5 -11 16.5t12 12.5q2 0 30 -8q51 -25 90 -48q9 -4 19 0q12 7 46 23.5t44 21.5q17 10 31 10q13 0 7 -14q-4 -9 -15 -19q-14 -13 -46 -40.5t-41 -35.5q-28 -24 -39 -24z" />
    <glyph glyph-name="Tcommaaccent_h" unicode="&#x162;h" horiz-adv-x="1068" 
d="M340 632q166 0 179 1q107 0 140 6q18 5 36 19q29 22 36 22q5 0 8.5 -4t3.5 -7q0 -1 -5.5 -51t-7.5 -89q-3 -88 -3 -168q0 -2 2 -4.5t5 -0.5q57 51 118 51q72 0 107 -48q29 -39 29 -110q0 -13 4 -180q1 -18 10 -26.5t29 -14.5q27 -7 27 -18q0 -14 -29 -14q-15 0 -42.5 2
t-39.5 2q-19 0 -47 -1.5t-46 -1.5q-24 0 -24 13q0 10 20 16q17 5 23 14.5t9 35.5q1 11 1 167q0 61 -25 82q-24 22 -60 22q-39 0 -58 -14q-10 -10 -12 -34q-2 -53 -2 -217q1 -25 9 -36t26 -16q24 -6 24 -17q0 -14 -30 -14q-2 0 -15 0.5t-34 0.5h-42q-23 0 -51.5 -1.5
t-34.5 -1.5q-25 0 -25 14q0 11 28 19q20 8 27 19t9 30q9 79 9 291q0 175 -3 189q-5 29 -19 29q-16 2 -96.5 1.5t-100.5 -3.5q-10 -2 -10 -12q0 -18 -0.5 -89t-0.5 -119q0 -208 5 -271q3 -27 17.5 -41.5t60.5 -24.5q10 -2 17.5 -8.5t7.5 -11.5q0 -13 -28 -13q-2 0 -67 2
t-81 2q-17 0 -67.5 -3t-57.5 -3q-31 0 -31 11q0 7 7 13t15 8q47 12 59 29t14 71q9 133 9 334q0 32 -0.5 70t-0.5 47q0 6 -4 10t-7 4q-18 3 -111 3q-13 0 -30 -7t-25 -16q-14 -15 -34 -51q-17 -28 -22 -28q-15 0 -15 23q0 6 9 55.5t10 78.5q0 4 5.5 12.5t10.5 8.5q6 0 19 -15
q8 -13 42 -17q66 -6 217 -6zM322 -46q31 0 53.5 -23.5t22.5 -64.5q0 -52 -41.5 -79.5t-68.5 -27.5q-17 0 -17 9q0 11 16 18q20 7 37.5 23t17.5 36q0 13 -6.5 19.5t-23.5 9.5q-38 10 -38 39q0 20 15.5 30.5t32.5 10.5z" />
    <glyph glyph-name="f_f_b" unicode="ffb" horiz-adv-x="1091" 
d="M356 344h-154q-8 0 -8 -18q0 -9 1 -116.5t1 -112.5q1 -36 9.5 -46.5t31.5 -18.5q25 -9 25 -17q0 -7 -8 -12.5t-19 -5.5q-12 0 -49.5 1.5t-47.5 1.5q-21 0 -52.5 -2.5t-39.5 -2.5q-26 0 -26 13q0 12 21 17q27 8 34 19.5t8 35.5q3 51 3 241q0 14 -10 15l-38 7q-8 2 -8 13
q0 7 8 13.5t21 13t17 9.5q11 7 11 17q0 62 29 127q29 61 90 101q66 43 135 43q71 0 111 -33q7 -5 12 0q24 24 64.5 41t82.5 17t83 -19q5 -2 14 3q25 20 35 20q4 0 8.5 -5.5t4.5 -10.5q0 -37 -4 -237q0 -50 1 -72q0 -3 1.5 -5t3 -3t2.5 -1q48 30 103 30q78 0 128 -44
q68 -59 68 -156q0 -106 -94 -175q-29 -22 -71 -33t-75 -11q-64 0 -135 21q-6 3 -21 -4q-13 -5 -12 -5q-3 0 -7.5 4.5t-4.5 9.5q7 109 7 334q3 130 -3 241q-3 31 -11 41q-8 11 -30 22t-44 11q-35 0 -56 -33q-30 -44 -30 -227q0 -3 3 -5.5t5 -2.5q27 0 50.5 0.5t35.5 0.5h13
q5 0 11.5 -15.5t6.5 -30.5q0 -2 -7.5 -6.5t-11.5 -4.5q-3 0 -47.5 1t-50.5 1q-7 0 -7 -12q0 -212 3 -245q1 -26 10.5 -36t47.5 -18q12 -3 18 -8.5t6 -9.5q0 -5 -8.5 -9.5t-21.5 -4.5q-4 0 -43.5 2t-54.5 2q-35 0 -67.5 -2.5t-39.5 -2.5q-9 0 -17 4.5t-8 10.5q0 10 21 16
q30 9 36 20.5t7 48.5q0 17 1 112t1 125q0 4 -3 8t-5 4zM203 393h152q3 0 6 3t3 5q0 103 36 168q1 2 1.5 7.5t-0.5 6.5q-49 56 -110 56q-31 0 -56 -31q-41 -50 -41 -203q0 -12 9 -12zM939 185q0 76 -44 126q-14 18 -39.5 30.5t-54.5 12.5q-20 0 -38 -8q-8 -3 -8 -11
q-2 -15 -2 -56q0 -118 8 -174q3 -33 28 -57q27 -27 62 -27q20 0 47 30q41 46 41 134z" />
    <glyph glyph-name="f_f_h" unicode="ffh" horiz-adv-x="1090" 
d="M873 407q72 0 104.5 -43t32.5 -115q0 -116 4 -180q0 -5 1 -9t3 -7.5t4 -6t6 -5.5l6 -4.5t7.5 -3.5t6.5 -2.5t8 -2.5l6 -3q17 -7 17 -15q0 -14 -29 -14q-14 0 -41.5 2t-39.5 2q-19 0 -47.5 -1.5t-45.5 -1.5q-24 0 -24 13q0 10 21 16q17 5 22.5 14.5t7.5 35.5q2 17 2 139
q0 76 -18.5 104t-67.5 28q-38 0 -57 -14q-10 -10 -12 -34q-3 -178 -2 -217q1 -18 8.5 -30t14 -16t17.5 -9q18 -7 18 -14q0 -14 -29 -14h-20q-7 0 -43 0.5t-51 0.5q-12 0 -33.5 -1.5t-28.5 -1.5q-26 0 -26 14q0 11 28 21q31 10 35 47q9 79 9 401q0 116 -8 130
q-13 19 -39.5 33.5t-51.5 14.5q-32 0 -49 -36q-28 -57 -27 -221q0 -3 3.5 -5.5t5.5 -2.5h98q5 -1 9 -14.5t4 -27.5q0 -4 -5.5 -8.5t-10.5 -4.5q-3 0 -45.5 1t-48.5 1q-3 0 -6 -4.5t-3 -8.5q0 -172 4 -245q1 -20 2.5 -27.5t10 -15.5t27.5 -12q25 -6 25 -17q0 -6 -8.5 -10.5
t-21.5 -4.5q-5 0 -33 2l-42 3q-6 0 -17.5 -0.5t-15.5 -0.5q-22 -1 -47.5 -3t-34.5 -2q-25 0 -25 15q0 4 7 9t14 6q29 9 35.5 21t7.5 50q3 159 3 238q1 11 -10 11h-151q-8 0 -8 -19v-10q2 -112 2 -210q0 -42 8 -53.5t33 -19.5q24 -9 24 -17q0 -7 -7.5 -12.5t-18.5 -5.5h-17
q-20 0 -74 3q-5 0 -14 -0.5t-12 -0.5q-17 0 -41.5 -2t-30.5 -2q-27 0 -27 13q0 12 22 17q26 8 33.5 20t8.5 35v6q1 19 2 115t1 120q0 4 -2 7.5t-4 5t-6.5 3t-7.5 2t-9 1t-8 0.5q-10 2 -15 5q-6 9 -6 11q0 11 20 21q3 2 16 8.5t18 11.5t5 12q2 147 113 224q68 47 142 47
q72 0 110 -34q6 -6 12 0q24 24 65 41.5t83 17.5q46 0 77 -19q8 -5 15 -2t18.5 7.5t18.5 7.5t8 3q3 0 7 -4.5t4 -7.5q-12 -83 -12 -329q0 -2 2 -4.5t5 -0.5q57 51 117 51zM203 393h152q9 0 9 10q0 41 11 88t27 77q4 9 0 15q-19 22 -49.5 39.5t-59.5 17.5q-98 0 -98 -235
q0 -3 2.5 -7.5t5.5 -4.5z" />
    <glyph glyph-name="f_f_j" unicode="ffj" horiz-adv-x="817" 
d="M357 344h-153q-8 0 -8 -19q0 -187 3 -226q1 -38 8.5 -48.5t30.5 -18.5q26 -8 26 -17q0 -7 -8.5 -12.5t-19.5 -5.5q-12 0 -49 1.5t-47 1.5q-21 0 -53 -2.5t-40 -2.5q-26 0 -26 12t21 18q27 8 34 19t9 36q0 28 3 241q0 3 -3 8.5t-5 5.5q-30 6 -41 8q-7 2 -7 13q0 7 8 13.5
t20.5 13t16.5 9.5q12 8 12 17q0 64 29 126q26 59 89 102q64 43 136 43q69 0 112 -39q2 -2 5.5 -2t5.5 2q25 25 69.5 44.5t90.5 19.5q74 0 108 -42q10 -11 10 -30q0 -18 -21.5 -37t-36.5 -19t-38 25q-18 19 -44.5 35.5t-46.5 16.5q-26 0 -49 -28q-34 -40 -34 -223
q0 -10 13 -10h24h32h30q84 -1 131 12q18 7 28 7q4 0 7.5 -5.5t3.5 -12.5q-3 -159 -3 -346q-3 -107 -41 -170q-39 -63 -88 -105q-19 -16 -40.5 -28t-27.5 -12q-14 0 -23 12q-2 1 -1.5 5.5t3.5 6.5q42 25 63 49q49 60 49 239q0 239 -4 284q0 15 -10 15q-62 1 -138 0
q-7 0 -7 -15q0 -213 4 -247q3 -30 11 -38q12 -10 44 -17q24 -5 24 -17q0 -6 -8.5 -10.5t-21.5 -4.5q-4 0 -43 2.5t-54 2.5q-35 0 -67.5 -2.5t-39.5 -2.5q-9 0 -17 4.5t-8 10.5q0 4 6.5 9t14.5 7q30 9 36 20.5t7 48.5q1 39 1 237q1 3 -2 7.5t-5 4.5zM204 393h153q3 0 5.5 3
t2.5 5q0 95 37 162q4 7 0 15q-44 61 -110 61q-33 0 -56 -31q-40 -49 -40 -203q0 -4 3 -8t5 -4z" />
    <glyph glyph-name="f_f_k" unicode="ffk" horiz-adv-x="1071" 
d="M356 344h-153q-8 0 -8 -19q0 -8 1.5 -114t1.5 -113q2 -36 10 -47.5t30 -18.5q25 -9 25 -17q0 -7 -8 -12.5t-19 -5.5q-12 0 -50 1.5t-47 1.5q-21 0 -53 -2.5t-40 -2.5q-25 0 -25 13q0 12 21 17q26 8 33.5 20t8.5 35q0 7 0.5 50.5t1.5 104t1 86.5q0 13 -9 15l-39 7
q-10 2 -10 14q0 7 9.5 13.5t24.5 13.5t19 9q6 6 6 16q0 64 29 126q12 26 36 54.5t53 47.5q64 43 135 43q73 0 112 -34q7 -4 11 0q24 24 63 41.5t81 17.5q39 0 83 -20q6 -3 14 3q24 21 32 21q9 0 17 -19q-7 -56 -7 -364q0 -87 3 -100q2 -6 8 -6q3 0 16 11q21 18 58 55.5
t52 55.5q1 3 2.5 7t-5 8.5t-19.5 7.5q-26 4 -26 16t21 12h41q34 0 85 5.5t60 5.5t9 -8t-8 -15.5t-13 -8.5q-43 -10 -67 -21t-56 -35q-15 -10 -36.5 -30t-24.5 -27l-1 -7q14 -22 71 -95.5t81 -96.5q27 -26 60 -34q25 -8 25 -16q0 -16 -31 -16q-6 0 -59 3t-83 2l-48 -1
q-26 0 -26 14q0 8 22 15q24 8 13 23q-11 16 -24 33.5t-34 44.5t-39 51q-14 20 -19 20q-3 0 -5 -9q-3 -8 -2.5 -59t3.5 -67q2 -11 4.5 -17t9.5 -11.5t21 -8.5q22 -6 22 -15q0 -15 -28 -15q-13 0 -47.5 1.5t-47.5 1.5q-20 0 -52 -2t-36 -2q-28 0 -28 13q0 9 29 18
q23 6 30.5 14.5t8.5 30.5q7 66 7 362q0 104 -4 153q-3 30 -11 41q-8 12 -27.5 22.5t-42.5 10.5q-34 0 -56 -33q-30 -44 -30 -227q0 -8 6 -8q27 0 51 0.5t37 0.5h13q5 0 9.5 -15t4.5 -31q0 -2 -6 -6.5t-9 -4.5t-47.5 1t-50.5 1q-8 0 -8 -12q0 -223 2 -245q1 -25 11 -37.5
t37 -18.5q23 -5 23 -16q0 -15 -28 -15q-4 0 -38.5 2.5t-49.5 2.5q-35 0 -67.5 -3t-39.5 -3q-25 0 -25 15q0 4 6.5 9t14.5 7q29 9 35.5 20.5t7.5 49.5q2 80 2 237q1 4 -2 8t-6 4zM204 393h153q7 0 7 8q0 43 10.5 90t26.5 77q1 3 1.5 8t-0.5 6q-50 57 -110 57q-34 0 -57 -31
q-40 -49 -40 -203q0 -12 9 -12z" />
    <glyph glyph-name="f_f_t" unicode="fft" horiz-adv-x="872" 
d="M205 394h149q10 0 10 8q0 42 10.5 92t26.5 79q1 1 1 5t-1 5q-18 23 -48 39.5t-61 16.5q-98 0 -98 -233q0 -12 11 -12zM353 341h-149q-10 0 -10 -19v-8q0 -21 1 -107.5t2 -102.5q1 -43 8 -53.5t32 -18.5q26 -10 26 -17t-8.5 -12.5t-19.5 -5.5h-17q-34 2 -100 2
q-17 0 -41.5 -2t-30.5 -2q-26 0 -26 13q0 12 21 17q24 7 32 18t9 29q4 48 4 255q0 10 -41 15q-14 3 -14 15q0 2 0.5 4t3 4.5l4 4t6 4.5t7.5 4.5t9.5 5t10.5 6.5q15 10 15 16q0 149 114 228q77 46 141 46q32 0 64 -10t49 -25q5 -3 9 1q22 22 60.5 39.5t79.5 19.5q3 0 11 -0.5
t12 -0.5q31 -3 54.5 -18.5t23.5 -40.5q0 -17 -12 -32.5t-27 -20.5q-14 -3 -22 2q-11 3 -37.5 27.5t-47.5 32.5q-11 3 -20 3q-27 -3 -43 -42q-24 -57 -24 -212q0 -10 8 -10h134q17 0 47 31q9 8 21 19.5t19.5 19t8.5 7.5q5 0 12.5 -6.5t7.5 -10.5q0 -26 -1 -51q0 -2 3 -5.5
t6 -3.5q10 0 35.5 0.5t48 1.5t23.5 1q6 0 8.5 -1t6 -11.5t3.5 -32.5q0 -12 -26 -12h-96q-9 0 -10 -42v-57v-71v-46q0 -64 66 -64q17 0 42 14q9 7 17 7q7 0 7 -16q0 -28 -43.5 -52t-85.5 -24q-62 0 -94 43q-17 24 -17 71q0 19 2 108t2 106q0 22 -9 23q-31 5 -138 2
q-7 0 -7 -12q0 -200 4 -247q1 -15 2 -21t6.5 -13.5t17 -12t31.5 -8.5q23 -5 23 -17q0 -5 -8 -9.5t-21 -4.5q-12 0 -60 1.5t-65 1.5q-22 -1 -47.5 -2.5t-34.5 -1.5q-24 0 -24 15q0 9 20 15q29 9 36 21.5t8 49.5q3 105 3 233q0 12 -11 12z" />
    <glyph glyph-name="f_h" unicode="fh" horiz-adv-x="812" 
d="M480 692q0 -1 -1.5 -62.5t-3.5 -142.5t-2 -126q0 -2 1.5 -4.5t4.5 -0.5q56 51 117 51q72 0 107 -48q29 -39 29 -110q2 -141 4 -180q0 -18 9.5 -26.5t30.5 -14.5q26 -7 26 -18q0 -14 -29 -14q-15 0 -42 2t-40 2q-19 0 -47 -1.5t-45 -1.5q-25 0 -25 13q0 10 21 16
q17 5 23 15t8 35q1 11 1 167q0 61 -25 82q-25 22 -60 22q-39 0 -58 -14q-9 -9 -12 -34q-2 -42 -2 -117.5t1 -99.5q1 -25 8 -36t25 -16q25 -6 25 -17q0 -14 -30 -14q-2 0 -15.5 0.5t-34 0.5h-41.5q-24 0 -51.5 -1.5t-33.5 -1.5q-26 0 -26 14q0 11 28 19q14 5 22 13.5t10 15.5
t3 20q9 79 9 311q3 109 -4 190q-1 27 -11 41q-7 11 -29.5 22t-45.5 11q-36 0 -56 -32q-32 -49 -30 -220q0 -3 3.5 -6t5.5 -3q27 0 50.5 0.5t35.5 0.5h13q5 0 9.5 -15t4.5 -31q0 -2 -5.5 -6.5t-9.5 -4.5q-3 0 -46.5 1t-49.5 1q-3 0 -6 -4t-3 -8q-1 -20 0 -102t2 -118
q1 -44 9 -56t32 -19q25 -10 25 -16q0 -7 -8 -13t-17 -6q-15 0 -50 1.5t-44 1.5q-25 0 -57 -2.5t-41 -2.5q-26 0 -26 13q0 11 22 17q23 7 31 18t10 28q3 42 3 248q0 16 -10 17q-7 1 -21.5 4t-16.5 3q-7 2 -7 9q0 9 7.5 16t21.5 14.5t16 8.5q11 8 11 17q0 47 11 91
q25 94 97 152q26 21 65 35.5t74 14.5q42 0 79 -17q9 -3 16 2q25 22 38 22q4 0 8.5 -5.5t4.5 -10.5z" />
    <glyph glyph-name="f_j" unicode="fj" horiz-adv-x="531" 
d="M336 345q-90 2 -132 0q-9 0 -9 -14q-1 -18 0.5 -127t2.5 -131q1 -19 9.5 -27.5t33.5 -16.5q20 -7 20 -17q0 -15 -22 -15q-5 0 -47 1.5t-58 1.5q-19 0 -54.5 -2.5t-38.5 -2.5q-20 0 -20 14q0 10 19 16q28 9 34.5 20t8.5 43q3 51 3 233q0 14 -9 15q-8 1 -20 3t-17 3
q-12 3 -12 11q0 13 47 37q12 7 12 14q2 90 33 152q30 62 95 105q63 44 135 44q71 0 107 -42q10 -11 10 -30q0 -18 -21.5 -37t-36.5 -19q-14 0 -38 24q-18 20 -44.5 36t-47.5 16q-29 0 -49 -24q-15 -18 -26 -77.5t-11 -147.5q0 -10 13 -10q34 -1 80 -1q100 0 134 12
q14 7 29 7q13 0 13 -18q0 -25 -1 -178.5t-2 -167.5q-3 -107 -41 -170q-39 -64 -89 -105q-18 -16 -39.5 -28t-27.5 -12q-14 0 -23 12q-2 1 -1.5 5.5t3.5 6.5q49 30 63 49q49 57 49 239q0 218 -4 286q-2 14 -13 14z" />
    <glyph glyph-name="f_k" unicode="fk" horiz-adv-x="795" 
d="M473 361q0 -126 2 -135q2 -6 8 -6q3 0 16 11q21 18 58 55.5t52 55.5q1 3 2.5 7t-5 8.5t-19.5 7.5q-26 4 -26 16t21 12h41q34 0 85 5.5t60 5.5q10 0 10 -8t-8.5 -15.5t-13.5 -8.5q-43 -10 -67 -21t-57 -35q-14 -10 -35 -30t-25 -27l-1 -7q13 -21 70 -94.5t81 -97.5
q29 -26 61 -34q25 -8 25 -16q0 -16 -31 -16q-6 0 -59 3t-83 2q-7 0 -23.5 -0.5t-24.5 -0.5q-26 0 -26 14q0 9 22 15q24 8 13 23q-15 21 -47 62.5t-50 66.5q-15 20 -19 20q-3 0 -5 -9q-3 -8 -2.5 -59t3.5 -67q2 -11 4.5 -17t9.5 -11.5t21 -8.5q21 -6 21 -15q0 -15 -27 -15
q-13 0 -48 1.5t-47 1.5q-20 0 -53.5 -2t-37.5 -2q-29 0 -29 13q0 9 30 18q23 7 31.5 16t10.5 29q7 133 7 288q0 158 -5 220q-1 28 -11 42q-8 11 -29.5 21.5t-44.5 10.5q-35 0 -57 -32q-30 -48 -30 -220q0 -3 4 -6t5 -3q27 0 51 0.5t36 0.5h13q5 0 9.5 -15t4.5 -31
q0 -2 -6 -6.5t-9 -4.5t-47 1t-50 1q-3 0 -6 -4t-3 -8q-1 -20 0 -102t2 -118q1 -44 8 -56.5t30 -18.5q26 -10 26 -16q0 -7 -8.5 -13t-17.5 -6q-15 0 -48.5 1.5t-42.5 1.5q-25 0 -57 -2.5t-41 -2.5q-26 0 -26 13q0 11 23 17q38 11 40 46q1 15 4 248q0 16 -10 17
q-7 1 -20.5 3.5t-18.5 3.5q-6 2 -6 9q0 9 7.5 16t20.5 14t16 9q11 8 11 17q2 52 11 90q26 96 99 154q63 49 139 49q42 0 79 -17q9 -4 16 3q25 21 36 21q4 0 8.5 -5.5t4.5 -10.5q0 -2 -1.5 -63t-3 -142.5t-1.5 -125.5z" />
    <glyph glyph-name="f_t" unicode="ft" horiz-adv-x="605" 
d="M463 393q10 0 35.5 0.5t48 1t23.5 0.5q7 0 12 -12q3 -7 3 -33q0 -12 -26 -12h-94q-7 0 -9 -10q-1 -23 -1 -64.5t0.5 -87t0.5 -53.5q0 -64 64 -64q10 0 34.5 10.5t26.5 10.5q7 0 7 -16q0 -28 -43.5 -52t-85.5 -24q-30 0 -55.5 12.5t-38.5 30.5q-18 25 -18 71q0 19 2 112
t2 110q0 16 -8 16h-139q-2 0 -5 -4t-3 -7q-1 -16 0.5 -120.5t3.5 -128.5q2 -25 12 -35t46 -17q25 -6 25 -17q0 -14 -30 -14q-6 -1 -33 1t-39 2h-27q-26 -1 -63 -2.5t-44 -1.5q-25 0 -25 14q0 3 6.5 8.5t14.5 7.5q29 9 35 20.5t7 47.5q2 82 2 225q0 20 -8 20q-6 -1 -21 -1
t-22 -1q-3 0 -7 5.5t-3 10.5q0 1 31 23t31 31q0 82 33 145q31 65 88.5 107.5t116.5 45.5q13 0 20 -1q30 -2 54.5 -17t24.5 -42q0 -24 -18.5 -40.5t-38.5 -16.5q-9 0 -39.5 29t-51.5 34q-9 3 -17 2q-17 -1 -29 -16q-36 -44 -36 -236q0 -2 3 -5t4 -3q22 0 75.5 0.5t62.5 0.5
q11 0 18 6q6 5 25 23.5t34.5 34t17.5 15.5q6 0 13 -6t7 -11l-1 -54q0 -2 3 -5.5t6 -3.5z" />
    <glyph glyph-name="gamma_gamma" unicode="&#x3b3;&#x3b3;" horiz-adv-x="795" 
d="M127 412q90 0 121 -141q14 -66 14 -152q0 -7 6 -2l3 5q63 186 123 247q15 20 38.5 32t38.5 12q85 0 114 -135q17 -80 17 -155q0 -7 7 -1q2 1 3 4q53 106 82 174q31 74 39 117q0 1 4.5 2t9.5 1t7 -2q29 -19 38 -49q5 -27 -9 -59q-8 -18 -44.5 -78t-69.5 -123t-43 -107
q-5 -25 -5 -29q0 -179 -6 -201q-1 -5 -10 -11t-13 -5q-61 16 -79 53q-9 20 -5 33q21 78 55 172q11 33 6 87q-2 45 -14 90t-40 82t-66 37q-23 0 -43 -14q-72 -47 -121 -269q-3 -15 -3 -45q1 -44 -4 -130t-9 -101q-2 -5 -13.5 -12.5t-15.5 -6.5q-23 4 -46 19.5t-32 36.5
q-9 20 -5 34q11 41 71 199q5 20 5 53.5t-4 55.5q-9 60 -43 113.5t-84 53.5q-46 0 -81 -32q-14 -13 -18 9q-2 11 3 31.5t11 31.5q17 28 47 51.5t63 23.5z" />
    <glyph glyph-name="lambda_lambda" unicode="&#x3bb;&#x3bb;" horiz-adv-x="771" 
d="M103 679q37 0 62.5 -30t49.5 -112q9 -26 39 -158t39 -164q12 -46 24 -74.5t23.5 -39.5t15.5 -13t14 -3q4 -1 10.5 6.5t8.5 12.5q24 40 70 127.5t53 99.5q14 25 27 41q8 8 5 24q-42 214 -153 214q-52 0 -86 -22q-2 -1 -6.5 5.5t-4.5 9.5q0 19 18 42q43 60 108 60
q87 0 128 -148q4 -13 46 -195t55 -219q6 -15 25.5 -34.5t45.5 -19.5q34 0 55 5q2 1 3 -8q1 -3 1 -4q2 -4 -2 -21q-7 -33 -29.5 -56t-47.5 -23q-53 0 -74 70q-8 27 -28.5 114.5t-23.5 101.5q-2 7 -6.5 5t-5.5 -6q-6 -21 -53 -126.5t-69 -131.5q-7 -11 -21 -18.5t-25 -7.5
q-26 0 -46 11.5t-33 34t-20 40t-14 43.5q-38 144 -41 162q-2 6 -7.5 4t-6.5 -6q-3 -9 -45.5 -119.5t-45.5 -116.5q-24 -55 -39 -55q-32 0 -67 30q-4 3 -7 11t-2 11q5 18 147 280q25 53 33 62q11 11 5 31q-1 7 -6 29t-7 29.5t-7 26t-9 25.5t-11 21t-14.5 19.5t-17.5 13
t-23 10t-28 2.5q-36 0 -68 -10q-2 -1 -7.5 4t-5.5 8q0 24 18 49q31 46 84 46z" />
    <glyph glyph-name="longs_b" unicode="&#x17f;b" horiz-adv-x="796" 
d="M460 689q0 -31 -0.5 -80.5t-1.5 -116.5t-1 -104q0 -3 2 -5.5t3.5 -3.5t2.5 -1q47 29 103 29q78 0 128 -44q68 -59 68 -156q0 -106 -95 -175q-29 -22 -71 -33t-74 -11q-59 -1 -136 21q-6 3 -20 -4q-10 -4 -12 -4q-3 0 -7.5 4t-4.5 9q7 137 7 334q0 222 -3 246
q-1 21 -13 34q-26 26 -60 26q-33 0 -50 -27q-28 -39 -30 -217q0 -229 5 -321q2 -29 10 -41t33 -19q25 -6 25 -16q0 -6 -8.5 -11.5t-20.5 -5.5q-8 0 -41 2t-46 2q-26 0 -63 -3t-42 -3q-24 0 -24 14q0 10 21 17q26 8 32.5 19t8.5 41q2 72 2 242q0 9 -11 11l-33 6q-10 2 -10 13
q0 2 2.5 5t7 6.5t9.5 7t11.5 8.5t11.5 9q12 10 12 15q2 77 33 138q31 71 93 116q59 41 120 41q44 0 69 -15q9 -5 25 12q14 14 23 14q10 0 10 -25zM643 187q0 77 -41 125q-36 44 -95 44q-22 0 -40 -8q-6 -4 -8 -11q-2 -30 -2 -55q0 -120 8 -176q6 -38 30 -59q24 -23 55 -23
q26 0 51 28q42 45 42 135z" />
    <glyph glyph-name="longs_h" unicode="&#x17f;h" horiz-adv-x="793" 
d="M87 327q0 9 -11 11q-6 2 -33 6q-10 2 -10 13q0 2 2.5 5t7 6.5t9.5 7t11.5 8.5t11.5 9q12 10 12 15q2 77 33 138q31 71 93 116q58 42 120 42q44 0 69 -15q9 -5 26 14q11 13 22 13q10 0 10 -25q0 -30 -3 -149.5t-3 -175.5q0 -3 2 -5.5t5 -0.5q56 47 116 47q73 0 108 -48
q29 -39 29 -110q3 -175 3 -180q0 -18 9.5 -26.5t30.5 -14.5q25 -5 25 -18q0 -14 -28 -14q-15 0 -42.5 2t-40.5 2q-18 0 -46.5 -2t-45.5 -2q-25 0 -25 15q0 8 20 16q17 5 23.5 15t8.5 34q3 33 3 170q0 58 -27 81q-25 20 -59 20q-37 0 -59 -13q-10 -6 -10 -23
q-2 -41 -2.5 -128t0.5 -102q1 -25 8 -35.5t25 -15.5q24 -6 24 -18q0 -14 -29 -14q-2 0 -15 0.5t-34 1t-42 0.5q-23 0 -49.5 -1.5t-32.5 -1.5q-25 0 -25 14q0 11 28 20q14 5 21.5 13t9 14.5t2.5 20.5q8 93 8 355q0 75 -2 157q-2 25 -14 37q-24 26 -60 26q-31 0 -51 -28
q-27 -38 -29 -216q0 -229 5 -320q2 -33 8 -44t28 -17q23 -6 23 -16q0 -6 -8 -11t-19 -5q-8 0 -37.5 1.5t-42.5 1.5q-26 0 -63 -2.5t-42 -2.5q-24 0 -24 15q0 9 21 16q26 8 32.5 19.5t8.5 41.5q2 70 2 240z" />
    <glyph glyph-name="longs_i" unicode="&#x17f;i" horiz-adv-x="537" 
d="M193 399q0 -218 2 -320q2 -23 10.5 -34t31.5 -17q24 -5 24 -17q0 -15 -28 -15q-4 0 -39 2t-50 2q-21 0 -56 -2t-42 -2q-24 0 -24 15q0 3 5.5 8t13.5 7q29 9 35.5 20.5t7.5 49.5q3 123 3 232q0 3 -4 7t-9 5l-32 3q-3 0 -7 5t-4 11q0 2 5.5 6t17 12.5t19.5 15.5
q13 11 13 15q0 79 34 144q32 67 95 109q63 44 136 44q72 0 107 -43q10 -10 10 -29q0 -18 -21.5 -37.5t-35.5 -19.5q-16 0 -39 25q-18 20 -44.5 36t-47.5 16q-30 0 -50 -24q-14 -18 -25.5 -80t-11.5 -150zM354 227q0 55 -2 79q-2 10 -30 32q-14 12 -14 18q0 12 28 18
q23 4 68.5 18t47.5 15q4 1 7 -3t3 -8q-4 -66 -4 -224q0 -31 2 -101q1 -21 8 -28.5t26 -13.5q24 -8 24 -19q0 -13 -28 -13q-2 0 -36 1.5t-47 1.5q-18 0 -51.5 -2t-40.5 -2q-11 0 -18.5 4.5t-7.5 9.5q0 9 27 17q26 10 32 29q6 21 6 171z" />
    <glyph glyph-name="longs_k" unicode="&#x17f;k" horiz-adv-x="778" 
d="M88 327q0 9 -11 11q-4 1 -16 3t-17 3q-11 3 -11 13q0 2 2.5 5t7.5 6.5l10 7t11.5 8.5t11.5 9q12 10 12 15q0 76 32 138q32 73 94 117q59 41 120 41q44 0 69 -15q8 -5 22 10q17 17 26 17q10 0 10 -25q0 -36 -3 -171t-3 -184q0 -97 3 -109q1 -7 7 -7q7 0 18 11
q21 16 57 53.5t52 57.5q1 3 2 6.5t-6 8t-20 7.5q-25 4 -25 17q0 12 21 12h43q35 0 83.5 5t57.5 5q13 0 13 -9q0 -8 -8.5 -14.5t-13.5 -7.5q-46 -11 -68 -21t-53 -34q-39 -29 -61 -58q-5 -5 -1 -9q21 -31 75 -99t78 -91q25 -24 60 -33q24 -6 24 -15q0 -17 -32 -17
q-6 0 -58 2.5t-82 1.5q-10 0 -28 -0.5t-24 -0.5q-26 0 -26 14q0 9 21 16q12 3 16.5 9t-1.5 14q-6 9 -96 128q-12 18 -20 18q-3 0 -6 -8q-2 -6 -1.5 -60t2.5 -65q2 -16 9 -23.5t27 -13.5q21 -5 21 -15q0 -16 -27 -16q-12 0 -47 2t-48 2q-20 0 -50.5 -2t-34.5 -2q-28 0 -28 14
q0 10 26 18q23 6 29.5 14t9.5 29q6 31 6 293q0 187 -2 227q0 22 -13 37q-24 26 -60 26q-31 0 -51 -28q-29 -41 -29 -216q0 -230 5 -322q2 -32 8 -43.5t28 -16.5q24 -7 24 -16q0 -6 -8.5 -11t-20.5 -5q-8 0 -37 2t-42 2q-26 0 -63 -3t-43 -3q-23 0 -23 14q0 11 21 17
q26 8 32.5 19t7.5 41q3 54 3 242z" />
    <glyph glyph-name="longs_l" unicode="&#x17f;l" horiz-adv-x="537" 
d="M88 327q0 9 -11 11q-4 1 -11 2t-12.5 2t-9.5 2q-11 3 -11 13q0 2 2.5 5t7.5 6.5l10 7t11.5 8.5t11.5 9q12 10 12 15q0 76 32 138q31 71 94 116q58 42 120 42q44 0 69 -15q9 -6 26 14q11 13 22 13q10 0 10 -25q0 -30 -1.5 -186t-1.5 -212q-2 -133 4 -222q1 -18 9.5 -27.5
t34.5 -17.5q21 -7 21 -17q0 -13 -26 -13q-13 0 -53.5 2t-48.5 2q-12 0 -44 -2t-43 -2q-29 0 -29 13q0 11 24 18q25 7 31 18.5t8 52.5q6 90 6 250q0 182 -3 243q0 22 -13 37q-24 26 -60 26q-31 0 -51 -28q-29 -41 -29 -216q0 -230 5 -322q2 -32 8 -43.5t28 -17.5
q24 -6 24 -16q0 -6 -8.5 -10.5t-20.5 -4.5q-8 0 -37 2t-42 2q-26 0 -63 -3t-43 -3q-24 0 -24 14q0 10 22 17q26 8 32.5 19t7.5 41q3 54 3 242z" />
    <glyph glyph-name="longs_longs" unicode="&#x17f;s" horiz-adv-x="551" 
d="M88 329q0 9 -12 11q-5 1 -15 2.5t-15 2.5q-7 1 -10 7t0 11q6 11 35 26q17 10 17 21q0 68 31 130q31 57 84 94q68 46 132 46q53 0 86 -24q22 -3 39 -10q39 39 102 40q45 19 92 7q16 -4 30 -19t14 -29q0 -15 -9 -29t-21 -19q-10 -6 -23 -6q-12 0 -29 18q-50 48 -73 48
t-40 -23q-35 -46 -35 -230q0 -18 1.5 -161t1.5 -151q2 -30 9.5 -43.5t31.5 -18.5q25 -6 25 -20q0 -5 -8.5 -9.5t-16.5 -4.5q-13 0 -42 2t-53 2q-26 0 -54.5 -2t-37.5 -2q-27 0 -27 16q0 10 25 17q21 7 28.5 20t8.5 39q0 13 1 109.5t1 129.5q0 12 -11 14q-6 1 -16.5 2.5
t-15.5 2.5q-18 4 -11 18q5 8 37 27q16 9 16 21q10 114 36 159q5 11 1 16q-49 51 -108 51q-32 0 -54 -27q-40 -40 -40 -272q0 -215 3 -262q0 -21 7.5 -31t27.5 -15q26 -8 26 -19q0 -15 -30 -15q-12 0 -41 1.5t-47 1.5q-31 0 -56.5 -2t-36.5 -2q-26 0 -26 14q0 12 24 18
q6 2 11 4t8.5 3.5t6 5t4.5 5t3.5 6.5t2.5 6.5t1.5 8.5t0.5 9t0.5 11.5t0.5 12.5q0 14 1 106t1 123z" />
    <glyph glyph-name="longs_longs_i" unicode="&#x17f;si" horiz-adv-x="818" 
d="M336 680q72 0 117 -37q3 -3 10 3q57 59 139 59q36 0 66 -15.5t31 -44.5q0 -15 -9 -29t-21 -19q-12 -6 -23 -6q-13 0 -30 18q-48 48 -72 48q-25 0 -40 -23q-36 -47 -36 -233q0 -15 1.5 -158.5t1.5 -150.5q2 -31 9 -43.5t30 -17.5q25 -6 25 -21q0 -5 -8.5 -9.5t-16.5 -4.5
q-13 0 -41 2t-52 2q-26 0 -55 -2.5t-38 -2.5q-26 0 -26 17q0 4 7.5 9.5t16.5 8.5q22 7 29.5 19.5t8.5 38.5q0 7 1 102.5t1 136.5q0 12 -11 14l-32 5q-18 4 -11 20q5 7 34 25q19 9 19 21q9 111 36 160q3 6 -2 17q-47 49 -104 49q-32 0 -56 -30q-39 -39 -39 -265
q0 -229 3 -266q0 -21 7.5 -30.5t27.5 -14.5q26 -8 26 -18q0 -18 -30 -18q-12 0 -41 2t-47 2q-31 0 -56.5 -2t-36.5 -2q-25 0 -27 13q0 11 23 18q20 6 28.5 16t10 19.5t2.5 37.5q0 14 1 106t1 123q0 9 -12 11l-30 5q-7 1 -10 7t0 11q6 11 35 26q17 10 17 21q0 71 31 129
q31 59 84 95q70 46 133 46zM587 355q0 13 27 18q24 5 71.5 20.5t48.5 15.5q3 0 6.5 -4t3.5 -7q-5 -57 -5 -226q0 -31 2 -101q1 -21 8.5 -28t29.5 -14q24 -8 24 -19q0 -13 -29 -13q-2 0 -36 1.5t-46 1.5q-18 0 -53 -2t-42 -2q-28 0 -28 13q0 10 27 18q28 8 34 29q5 23 5 156
q0 82 -2 90q-3 10 -33 36q-13 10 -13 17z" />
    <glyph glyph-name="longs_longs_l" unicode="&#x17f;sl" horiz-adv-x="806" 
d="M336 680q69 0 116 -35q6 -4 11 1q58 56 142 56q38 0 72 -17q10 -2 15 4q25 23 33 23q4 0 8.5 -5.5t4.5 -10.5q0 -2 -1 -63t-2.5 -144t-1.5 -130q-4 -148 2 -284q1 -15 2.5 -21t10 -13.5t26.5 -12.5q9 -2 16 -7t7 -8q0 -16 -25 -16q-11 0 -44.5 1.5t-42.5 1.5
q-19 1 -54 -1t-38 -2q-33 0 -33 15q0 10 25 16q16 4 24 12.5t10 17.5t3 29q2 30 3.5 152t0.5 151q0 138 -3 193q0 27 -13 42q-22 29 -59 29q-27 0 -44 -23q-39 -51 -39 -230q0 -15 1.5 -158t1.5 -151q2 -31 9 -43.5t30 -17.5q25 -6 25 -21q0 -5 -8.5 -9.5t-16.5 -4.5
q-13 0 -41 2t-52 2q-26 0 -55.5 -2.5t-38.5 -2.5q-25 0 -25 16q0 4 7 9.5t16 8.5q22 7 30 20t9 39q2 50 2 239q0 12 -11 14l-32 5q-18 4 -11 20q5 7 34 25q19 9 19 21q8 108 37 160q5 10 0 15q-45 51 -107 51q-33 0 -57 -30q-38 -38 -38 -265q0 -213 3 -266q0 -21 9 -30
t29 -15q29 -9 29 -20q0 -16 -32 -16q-12 0 -43 2t-49 2q-31 0 -57 -2t-37 -2q-25 0 -27 13q0 11 23 18q20 6 28.5 15.5t10 20t2.5 37.5q3 99 3 229q0 9 -12 11l-30 5q-5 1 -8.5 7.5t-1.5 10.5q5 10 35 26q17 10 17 21q0 66 31 130q31 57 84 94q68 46 133 46z" />
    <glyph glyph-name="longs_t" unicode="&#x17f;t" horiz-adv-x="608" 
d="M76 338q-6 1 -32 4q-11 3 -11 16q0 2 43 36q9 7 11 11t2 15q0 60 26 117.5t73 97.5q63 51 130 51q70 0 105 -35.5t35 -84.5v-162q0 -2 3 -5.5t6 -3.5q10 0 34 0.5t45 0.5h22q16 0 17 -12l3 -38v-1q0 -12 -26 -12q-2 0 -46.5 0.5t-47.5 0.5q-8 0 -8 -18v-190q0 -34 14 -49
q17 -19 48 -19q22 0 44 15q11 8 17 8q8 0 8 -18q0 -14 -20 -31q-41 -44 -108 -44q-29 0 -55 13t-39 31q-18 25 -18 70q0 19 2 113.5t2 111.5q0 5 -29 11q-4 1 -6.5 1.5t-6 1.5t-7.5 2q-11 2 -11 12q0 9 9 14q6 4 21.5 12t18.5 10q8 8 11 22q7 31 7 158q0 31 -27 56
q-20 17 -51 17q-87 0 -88 -221q0 -168 3 -345q1 -24 7.5 -33.5t26.5 -14.5q28 -7 28 -18q0 -16 -31 -16q-12 0 -41 2t-48 2q-31 0 -56 -2t-36 -2q-25 0 -25 13q0 11 21 17q15 4 23.5 9t12 15.5t4.5 18t1 29.5q2 72 2 231q0 7 -12 9z" />
    <glyph glyph-name="f_f" unicode="ff" horiz-adv-x="582" 
d="M358 344h-156q-8 0 -8 -20q0 -9 1 -115.5t1 -111.5q1 -36 9.5 -46.5t31.5 -18.5q25 -9 25 -17q0 -7 -8 -12.5t-19 -5.5q-12 0 -49.5 1.5t-47.5 1.5q-21 0 -52.5 -2.5t-39.5 -2.5q-26 0 -26 13q0 12 21 17q27 8 34 19.5t8 35.5q3 51 3 241q0 14 -10 15l-37 7q-8 2 -8 13
q0 7 8 13.5t20.5 13t16.5 9.5q11 7 11 17q0 62 29 127q30 62 89 101q64 43 136 43q70 0 111 -35q7 -4 11 0q24 24 64.5 42t82.5 18q35 0 64.5 -15.5t29.5 -44.5q0 -14 -10 -29.5t-22 -20.5q-12 -6 -22 -6q-12 0 -30 19q-48 50 -76 50q-21 0 -40 -24q-33 -45 -32 -234
q0 -2 3 -4.5t4 -2.5h99q5 -1 9 -14.5t4 -27.5q0 -4 -5.5 -8.5t-10.5 -4.5q-3 0 -46 1t-49 1q-2 0 -4.5 -4t-2.5 -8q0 -213 3 -246q1 -25 10.5 -36t45.5 -19q25 -6 25 -17q0 -6 -8.5 -10.5t-21.5 -4.5q-4 0 -43 2.5t-54 2.5q-35 0 -68 -3t-40 -3q-24 0 -24 15q0 10 20 16
q29 9 36 21t8 49q0 17 1 112t1 125q0 12 -6 12zM202 393h153q3 0 6 3t3 5q0 102 36 167q1 3 1.5 8t-0.5 7q-19 22 -50 39.5t-61 17.5q-32 0 -56 -32q-40 -47 -40 -203q0 -12 8 -12z" />
    <glyph glyph-name="f_i" unicode="fi" horiz-adv-x="546" 
d="M205 394q21 -1 91 -1q91 0 132 13q18 5 32 5q3 0 5 -2t3 -10t1.5 -21.5t0.5 -38.5q0 -247 1 -271q1 -19 7.5 -25.5t25.5 -12.5q26 -8 26 -19q0 -14 -29 -14q-5 0 -39 1.5t-47 1.5q-18 0 -48.5 -1.5t-38.5 -1.5q-26 0 -26 15q0 8 28 18q25 12 27 37q5 81 5 264
q0 4 -4.5 8.5t-7.5 5.5q-85 4 -146 0q-1 0 -3 -1.5t-4 -5t-2 -6.5q-1 -17 0.5 -125t2.5 -130q2 -22 10 -30.5t36 -17.5q20 -7 20 -17q0 -5 -6 -10t-16 -5q-5 0 -48.5 1.5t-58.5 1.5q-20 0 -56 -3t-38 -3q-20 0 -20 14q0 10 19 15q28 9 34.5 20.5t8.5 44.5q3 51 3 233
q0 13 -9 15q-8 1 -21 3t-17 3q-11 3 -10 11q0 8 10.5 16t35.5 21q12 7 12 15q0 85 33 151q31 63 94 105q63 44 138 44q72 0 107 -43q10 -11 10 -29t-21.5 -37.5t-36.5 -19.5t-38 25q-18 20 -45 36t-48 16q-32 0 -50 -24q-15 -18 -26 -77t-11 -148q0 -4 4 -7t8 -3z" />
    <glyph glyph-name="f_l" unicode="fl" horiz-adv-x="543" 
d="M331 701q41 0 78 -17q8 -4 17 3q24 21 35 21q4 0 8.5 -5.5t4.5 -10.5q0 -33 -6 -333q-2 -193 3 -284q1 -14 2.5 -20.5t9.5 -14t25 -12.5q22 -6 22 -14q0 -17 -23 -17q-10 0 -44 1.5t-43 1.5q-22 1 -53 -1t-34 -2q-31 0 -31 15q0 10 23 17q20 6 26 17t7 33q6 111 3 250
q0 15 -8 15q-32 3 -150 3q-9 0 -9 -12q-1 -20 0 -106.5t2 -122.5q1 -44 8.5 -56.5t31.5 -18.5q25 -10 25 -17t-8.5 -12t-18.5 -5q-15 0 -48.5 1.5t-42.5 1.5q-25 0 -57 -2.5t-41 -2.5q-26 0 -26 13q0 11 23 17q38 11 40 46q1 15 4 248q0 16 -10 17l-40 7q-6 2 -6 9
q0 8 8 15.5t21 14.5t16 9q11 8 11 17q1 48 11 88q25 97 98 156q65 49 136 49zM277 654q-35 0 -55 -32q-29 -44 -29 -219q0 -9 12 -9h4h10.5t15.5 -0.5t19.5 -0.5h21.5h22t21 0.5t18.5 1t14.5 0.5q9 0 9 11q3 54 -4 171q-2 32 -10 44q-9 11 -28.5 22t-41.5 11z" />
    <glyph glyph-name="f_f_i" unicode="ffi" horiz-adv-x="822" 
d="M355 344h-151q-10 0 -10 -19q0 -179 3 -224q2 -37 10 -49.5t30 -19.5q26 -8 26 -17q0 -7 -8.5 -12.5t-19.5 -5.5q-12 0 -49.5 1.5t-47.5 1.5q-21 0 -52.5 -2.5t-39.5 -2.5q-27 0 -27 13q0 11 22 18q26 8 33.5 19.5t8.5 34.5q3 51 3 241q0 15 -8 15l-41 6q-8 4 -7 12t6 14
q5 5 21 13.5t19 10.5q12 8 12 17q0 64 28 126q30 61 90 101q65 44 136 44q33 0 65 -11t50 -25q5 -6 11 0q23 23 69.5 42t88.5 19q74 0 109 -43q10 -11 10 -29t-21.5 -37.5t-36.5 -19.5t-38 25q-17 20 -44.5 36.5t-47.5 16.5q-32 0 -50 -24q-14 -17 -25.5 -77t-11.5 -148
q0 -10 10 -10q12 -1 92 -1q81 -1 133 12q20 6 30 6q4 0 6.5 -5t3.5 -20.5t1 -46.5q0 -248 1 -272q0 -13 4.5 -20.5t9.5 -10t19 -6.5q26 -9 26 -20q0 -14 -29 -14q-5 0 -39 1.5t-47 1.5q-18 0 -48.5 -1.5t-38.5 -1.5q-26 0 -26 16q0 6 28 18q26 11 28 36q4 87 4 264
q0 11 -11 14q-87 4 -147 0q-2 0 -4.5 -3.5t-2.5 -7.5q0 -202 3 -252q1 -19 3.5 -27t14.5 -15.5t38 -13.5q24 -5 24 -16q0 -6 -8.5 -10.5t-21.5 -4.5q-4 0 -42.5 2.5t-53.5 2.5q-35 0 -68.5 -3t-40.5 -3q-24 0 -24 14q0 10 21 16q29 9 35.5 21.5t7.5 49.5q2 78 2 237
q0 3 -2.5 7.5t-5.5 4.5zM203 393h153q8 0 8 8q0 93 39 166q4 6 0 14q-49 58 -112 58q-31 0 -56 -31q-41 -50 -41 -203q0 -12 9 -12z" />
    <glyph glyph-name="f_f_l" unicode="ffl" horiz-adv-x="820" 
d="M357 344h-155q-8 0 -8 -19q0 -9 1.5 -115t1.5 -111q1 -36 9.5 -48t30.5 -19q26 -10 26 -17t-8.5 -12.5t-19.5 -5.5q-12 0 -49.5 1.5t-47.5 1.5q-21 0 -52.5 -2.5t-39.5 -2.5q-26 0 -26 12q0 13 21 18q26 8 33.5 20t8.5 35q3 51 3 241q0 14 -10 15q-14 4 -35 7
q-4 1 -7.5 5t-3.5 8q0 7 8 13.5t21.5 13t16.5 8.5q11 7 11 17q0 61 30 128q30 62 89 101q65 43 136 43q72 0 111 -32q6 -6 11 -1q62 54 140 54q44 0 81 -17q11 -2 15 2q26 22 37 22q4 0 8.5 -5.5t4.5 -10.5q0 -2 -1 -63.5t-2.5 -143.5t-1.5 -126q-2 -209 2 -284
q1 -14 2.5 -20.5t10 -14t25.5 -12.5q22 -6 22 -14q0 -17 -23 -17q-10 0 -44 1.5t-44 1.5q-22 1 -52.5 -1t-33.5 -2q-32 0 -32 15q0 10 24 17q20 6 26 17t7 33q6 111 3 252q0 11 -6 13q-18 1 -153 1q-7 0 -7 -11q0 -208 4 -252q1 -26 9 -36t40 -18q24 -7 24 -17
q0 -14 -29 -14q-4 0 -39.5 1.5t-50.5 1.5q-35 0 -68 -2.5t-40 -2.5q-9 0 -17 4.5t-8 10.5q0 4 6.5 9t14.5 7q30 9 36.5 20.5t7.5 48.5q0 17 1 112.5t1 125.5q0 11 -7 11zM204 394h155q5 0 5 8q0 42 10.5 91t26.5 78q3 6 0 12q-43 56 -110 56q-33 0 -56 -31q-41 -50 -41 -202
q0 -12 10 -12zM554 656q-33 0 -54 -33q-30 -47 -30 -220q0 -3 3.5 -6t5.5 -3h4h11h16.5h20.5h22.5h23h21.5t18 0.5t13 0.5q9 0 9 11q0 120 -3 171q-1 31 -11 44q-9 12 -28.5 23.5t-41.5 11.5z" />
    <glyph glyph-name=".notdef" horiz-adv-x="500" 
d="M0 0v700h500v-700h-500zM250 395l170 255h-340zM280 350l170 -255v510zM80 50h340l-170 255zM50 605v-510l170 255z" />
    <glyph glyph-name=".null" horiz-adv-x="0" 
 />
    <glyph glyph-name="nonmarkingreturn" horiz-adv-x="333" 
 />
    <glyph glyph-name="space" unicode=" " horiz-adv-x="193" 
 />
    <glyph glyph-name="exclam" unicode="!" horiz-adv-x="288" 
d="M161 612q35 0 53.5 -35t15.5 -67q-3 -36 -20.5 -137t-28.5 -145q-2 -12 -9 -23.5t-17 -11.5q-5 0 -12.5 10t-10.5 26q-39 200 -46 276q-3 50 21 78.5t54 28.5zM156 140q32 0 53 -23t21 -52q0 -30 -22 -53.5t-53 -23.5q-30 0 -51.5 22t-21.5 55q0 32 23 53.5t51 21.5z" />
    <glyph glyph-name="quotedbl" unicode="&#x22;" horiz-adv-x="351" 
d="M131 677q6 0 11.5 -9t5.5 -22q0 -26 -12.5 -96.5t-21.5 -100.5q-4 -12 -12.5 -23.5t-16.5 -11.5q-6 0 -11 9t-6 19q-17 148 -21 173q0 10 9 19q43 43 75 43zM290 688q6 0 12 -8t6 -23q0 -27 -13 -97.5t-23 -106.5q-4 -13 -12.5 -25t-17.5 -12q-5 0 -10 10.5t-6 18.5
q-12 114 -17 185q0 11 11 20q44 38 70 38z" />
    <glyph glyph-name="numbersign" unicode="#" horiz-adv-x="497" 
d="M458 438q-12 -46 -22 -46l-74 -3q-2 0 -4.5 -3.5t-3.5 -6.5l-25 -99q-1 -2 0.5 -4.5t3.5 -1.5l77 2q3 0 5 -10t1 -16q-2 -14 -10 -32.5t-16 -18.5l-73 -3q-3 0 -6 -2.5t-3 -4.5l-41 -158q-5 -14 -28 -14q-5 0 -9.5 3t-2.5 8l40 158q1 3 -1.5 6t-4.5 3l-95 -4
q-2 0 -6 -3.5t-4 -4.5l-42 -160q-3 -11 -25 -11q-5 0 -10 5t-4 8l40 155q3 10 -6 10l-72 -2q-2 0 -4.5 9t-2.5 12q4 17 11 36t13 19l75 4q7 0 9 7l25 99q0 9 -5 9l-78 -2q-2 0 -3.5 6t-1.5 15.5t2 20.5q3 9 10 20.5t11 12.5l77 4q5 0 9 7l37 142q6 12 28 12q3 0 7.5 -3.5
t4.5 -5.5l-35 -142q0 -7 3 -7l97 3q8 0 9 7l39 147q3 9 30 9q1 0 3 -1.5t3.5 -4.5t0.5 -8l-36 -139q-2 -9 3 -9l76 1q3 -3 4 -14t0 -16zM315 377q0 3 0.5 5.5t-1 3.5t-3.5 1l-101 -3q-4 0 -6 -8l-25 -100q-1 -2 1 -5.5t5 -2.5l94 4q7 0 10 9z" />
    <glyph glyph-name="dollar" unicode="$" horiz-adv-x="497" 
d="M260 234l-21 -197q0 -5 5 -5q42 5 73.5 31.5t31.5 71.5q0 32 -19 55t-64 48q-6 3 -6 -4zM244 385l20 189q0 8 -6 8q-45 -2 -71.5 -28.5t-26.5 -71.5q0 -62 78 -101q6 0 6 4zM270 618l8 64q0 6 6 6q8 0 16.5 -3t8.5 -7l-8 -60q0 -7 4 -7q55 -6 92 -22q8 -2 16 -29
q10 -40 10 -65q0 -29 -11 -29t-17 14q-29 75 -92 97q-8 2 -8 -5l-20 -203q0 -8 5 -9q87 -42 126.5 -81t39.5 -107q0 -72 -73 -128q-43 -33 -132 -41q-7 -1 -7 -8l-8 -75q-1 -3 -9 -5.5t-12 -1.5q-6 0 -12 6l8 76q0 8 -4 8q-21 1 -61 11q-52 12 -62 15q-13 3 -19 24
q-12 68 -12 97q0 18 9 18q18 0 41 -43q26 -47 49 -65t57 -26q6 -1 6 4l23 212q2 6 -3 9q-76 37 -114.5 77.5t-39.5 111.5q0 59 49 108q24 23 63 38.5t80 16.5q6 0 7 7z" />
    <glyph glyph-name="percent" unicode="%" horiz-adv-x="729" 
d="M191 625q45 0 79 -29t48.5 -67t14.5 -76q0 -76 -38.5 -130t-108.5 -54q-50 0 -85 29t-48 66t-13 77q0 78 38.5 131t112.5 53zM195 297q52 0 52 142q0 33 -5 66t-21 62.5t-41 29.5q-55 0 -55 -142q0 -51 17.5 -104.5t52.5 -53.5zM560 638q7 0 14 -4t10 -9t1 -8
q-49 -77 -192 -303t-218 -342q-7 -7 -21 4q-13 12 -7 22q69 109 203.5 320t194.5 307q10 13 15 13zM545 342q67 0 105 -54.5t38 -115.5q0 -79 -37 -132.5t-112 -53.5q-71 0 -107.5 53t-36.5 115q0 79 37.5 133.5t112.5 54.5zM550 13q52 0 52 142q0 54 -17 106.5t-50 52.5
q-30 0 -42.5 -43.5t-12.5 -98.5q0 -30 5.5 -63.5t22.5 -64.5t42 -31z" />
    <glyph glyph-name="ampersand" unicode="&#x26;" horiz-adv-x="782" 
d="M278 609q63 -1 103 -39.5t40 -87.5q0 -17 -4 -30t-18 -26t-19 -18t-28.5 -19t-24.5 -15q-5 -5 0 -9q27 -18 74 -62t79 -83q5 -6 13 2q52 52 90 119q12 24 12 34q0 13 -49 22q-11 2 -11 10q-1 4 6.5 11t16.5 7q70 0 117 5q11 1 35 4t30 3q25 0 25 -10q0 -14 -21 -19
q-39 -11 -61.5 -26t-58.5 -53q-5 -5 -115 -135q-7 -7 -3 -12q19 -25 52 -70q36 -49 108 -51q29 0 71 21q3 2 5.5 -1.5t2.5 -8.5q0 -16 -17 -33q-53 -55 -145 -55q-39 0 -72 12q-25 9 -40 33q-6 10 -16.5 26.5l-17.5 27.5t-11 16q-2 2 -9 -1q-47 -59 -94 -88q-46 -31 -97 -29
q-82 1 -132.5 51.5t-50.5 125.5q0 34 17.5 65.5t32 44.5t39.5 32q25 21 51 36q3 1 3 4.5t-2 4.5q-59 55 -59 113q0 71 53 113q46 38 100 38zM263 578q-17 0 -34.5 -18.5t-17.5 -57.5q0 -30 25 -62.5t55 -48.5q8 -5 13 -2q13 7 24 28q13 20 13 61q0 29 -20 64.5t-58 35.5z
M285 64q26 0 60 17.5t52 39.5q6 8 1 16q-35 48 -97.5 109t-84.5 72q-6 5 -14 -3q-55 -53 -55 -118q0 -26 12.5 -54t32.5 -45q40 -34 93 -34z" />
    <glyph glyph-name="quotesingle" unicode="'" horiz-adv-x="201" 
d="M137 683q6 0 12.5 -8.5t6.5 -22.5q0 -28 -11.5 -92.5t-22.5 -101.5q-14 -39 -30 -39q-6 0 -12.5 10t-7.5 19q-11 112 -25 173q0 10 8 18q60 44 82 44z" />
    <glyph glyph-name="parenleft" unicode="(" horiz-adv-x="331" 
d="M139 285q0 -103 17.5 -179t44.5 -126t82 -128q9 -11 -1 -21q-28 -16 -35 -16q-15 0 -31 17q-146 174 -146 432q0 138 50 252.5t117 188.5q15 17 28 17q9 0 19 -6t11 -11q2 -7 -6 -15q-70 -76 -110 -187t-40 -218z" />
    <glyph glyph-name="parenright" unicode=")" horiz-adv-x="331" 
d="M200 250q0 146 -33.5 235.5t-112.5 196.5q-8 12 2 22q28 16 36 16q17 0 32 -17q144 -178 144 -428q0 -138 -50.5 -253.5t-117.5 -188.5q-15 -17 -26 -17q-9 0 -18 5.5t-10 10.5q-4 6 4 16q70 77 110 187t40 215z" />
    <glyph glyph-name="asterisk" unicode="*" horiz-adv-x="323" 
d="M156 649q5 1 10.5 -4.5t7.5 -12.5q7 -19 23 -89q0 -7 9 -2q47 33 74 41q22 5 24 -6q1 -8 -11 -22q-23 -23 -67 -54q-5 -5 1 -9q57 -32 79 -47q14 -11 14 -22q0 -14 -25 -8q-42 9 -86 31q-2 2 -4 0t-2 -4q1 -30 1 -75q0 -35 -16 -35q-14 0 -21 25q-9 34 -15 81
q0 2 -1.5 3.5t-3 1.5t-2.5 -1q-45 -26 -79 -38q-11 -4 -20 -2t-9 8q0 11 13 22q10 9 68 51q7 4 -1 8q-55 29 -71 42q-14 9 -14 18q0 16 26 10q17 -3 82 -29q3 0 5 5q-5 66 -1 90q1 21 12 23z" />
    <glyph glyph-name="plus" unicode="+" horiz-adv-x="624" 
d="M279 498q0 5 20.5 10t33.5 5q15 0 15 -11l-3 -211q0 -7 7 -7h201q3 0 6.5 -4.5t3.5 -10.5q0 -17 -4.5 -31t-9.5 -14l-196 -2q-8 0 -8 -10l-1 -210q0 -8 -16 -12.5t-33 -4.5q-5 0 -10 4.5t-5 9.5l-1 212q0 11 -7 11h-195q-17 0 -17 22q0 11 4.5 25.5t9.5 14.5h197q8 0 8 7
v207z" />
    <glyph glyph-name="comma" unicode="," horiz-adv-x="240" 
d="M109 143q36 0 62.5 -29.5t26.5 -80.5q0 -47 -30 -82.5t-60.5 -49.5t-47.5 -14q-20 0 -20 12q0 10 20 19q67 36 67 79q0 29 -39 36q-41 10 -41 49q0 27 20 44t42 17z" />
    <glyph glyph-name="hyphen" unicode="-" horiz-adv-x="311" 
d="M59 234q23 5 103 13.5t99 9.5q4 0 8 -3.5t4 -7.5q1 -19 -5.5 -41t-16.5 -23q-137 -11 -196 -17q-6 -1 -11 5t-5 11q0 16 6.5 34t13.5 19z" />
    <glyph glyph-name="period" unicode="." horiz-adv-x="240" 
d="M122 133q34 0 51 -24.5t17 -48.5q-1 -33 -21.5 -52.5t-47.5 -19.5q-25 0 -46 19t-21 53q0 36 22.5 54.5t45.5 18.5z" />
    <glyph glyph-name="slash" unicode="/" horiz-adv-x="415" 
d="M47 -49q21 53 268 695q11 21 19 21q15 0 30 -6q5 -2 7.5 -7.5t0.5 -11.5q-51 -133 -145.5 -374t-124.5 -318q-9 -25 -31 -16q-3 0 -7.5 1.5l-6 2t-2.5 -1.5q-11 6 -8 15z" />
    <glyph glyph-name="zero" unicode="0" horiz-adv-x="497" 
d="M252 625q58 0 102.5 -31.5t67 -81t33.5 -99.5t11 -99q0 -115 -32.5 -191.5t-83.5 -106.5q-48 -31 -100 -29q-60 0 -105 32t-68.5 83t-34.5 102.5t-11 100.5q0 215 124 293q46 27 97 27zM239 594q-31 0 -54 -42q-37 -70 -37 -224q0 -128 30.5 -219t83.5 -91q33 0 52 38
q34 66 34 247q0 117 -21.5 186.5t-46.5 88.5q-18 16 -41 16z" />
    <glyph glyph-name="one" unicode="1" horiz-adv-x="497" 
d="M98 7q0 13 34 22q40 10 50 22t13 43q9 65 9 294q0 112 -2 121q-2 18 -15 21q-10 3 -26.5 6t-18.5 3q-24 5 -24 19q0 11 22 15q110 26 128 37q34 17 46 17q3 1 6 -2.5t3 -7.5t-0.5 -20.5t-1.5 -46.5t-1 -62q-2 -137 0 -366q0 -53 8.5 -66.5t56.5 -25.5q24 -7 24 -22
q0 -12 -27 -12q-5 0 -47 2t-64 2q-33 0 -67 -1.5t-55 -3t-24 -1.5q-27 0 -27 13z" />
    <glyph glyph-name="two" unicode="2" horiz-adv-x="497" 
d="M53 -3q-5 0 -14 6t-9 10q-2 9 12 21q71 64 162 179q88 112 88 209q0 58 -30.5 88.5t-74.5 30.5q-62 0 -118 -58q-19 -19 -21 -19q-3 0 -8 5.5t-5 9.5q0 12 16 35q75 111 186 111q73 0 122.5 -49.5t49.5 -125.5q0 -81 -84 -172q-62 -67 -177 -179q-3 -5 5 -8
q34 -4 122.5 -4t108.5 4q31 5 56 37q14 18 22 18q10 0 10.5 -12.5t-5.5 -23.5q-26 -55 -36 -105q-2 -10 -15 -10q-1 0 -57.5 1t-121.5 2.5t-85 1.5q-24 0 -99 -3z" />
    <glyph glyph-name="three" unicode="3" horiz-adv-x="497" 
d="M247 625q68 0 108.5 -39.5t40.5 -83.5q0 -50 -36 -86q-26 -23 -65 -46q-6 -4 3 -8q85 -15 127 -68q28 -37 28 -92q0 -64 -39 -120t-105 -95q-78 -45 -165 -45q-39 0 -70 15.5t-31 37.5q0 6 8 26q17 24 35 24q10 0 28 -15q50 -42 103 -42q35 0 64 22q29 21 44 58.5
t15 71.5q0 71 -35 109q-31 34 -86 34q-35 0 -77 -14q-4 -1 -6.5 3t-1.5 9q3 11 21 26q16 12 48 27q89 39 89 117q0 43 -28.5 72.5t-67.5 29.5q-62 0 -105 -52q-15 -18 -23 -18q-10 0 -10 15q-1 11 18 36.5t42 44.5q55 46 129 46z" />
    <glyph glyph-name="four" unicode="4" horiz-adv-x="497" 
d="M388 441v-194q0 -9 5 -9l86 3q3 0 6.5 -3t3.5 -7q0 -8 -7 -24.5t-14 -19.5l-74 2q-4 0 -6 -7q0 -72 1 -85q2 -37 10.5 -47.5t43.5 -21.5q22 -7 22 -17q0 -5 -7 -10t-20 -5q-12 -1 -53.5 1.5t-56.5 2.5q-19 0 -59 -2t-57 -2q-25 0 -25 13q0 11 28 20q34 9 42 19t11 42
q1 7 1 10q2 27 2 77q0 9 -7 9q-204 3 -240 0q-18 -2 -18 9q0 7 23 42l317 440q9 15 21 15l16 -1q13 0 13 -8q0 -7 -3 -11l-312 -422q-4 -6 1 -8q22 -4 185 -4q1 0 3 3.5t2 4.5l1 178q0 12 10 19q9 5 44 14.5t47 9.5q14 0 14 -26z" />
    <glyph glyph-name="five" unicode="5" horiz-adv-x="497" 
d="M439 186q0 -102 -93 -174q-45 -35 -115.5 -56t-112.5 -21h-21q-24 0 -24 10q0 5 8 14t12 9q56 6 107.5 25.5t91 60t39.5 92.5q0 40 -26 72.5t-71 51.5q-77 32 -162 48q-3 1 -9.5 12.5t-6.5 17.5q0 25 20.5 97t36.5 108q4 7 13 20.5t11 13.5q19 8 112.5 23t139.5 15
q3 0 8 -4t5 -7q0 -25 -23 -62.5t-38 -39.5q-84 -15 -198 -15q-4 0 -10 -4t-7 -7q-13 -30 -15 -46q-1 -3 2.5 -7.5t6.5 -5.5q49 -11 119 -34.5t97 -39.5q103 -60 103 -167z" />
    <glyph glyph-name="six" unicode="6" horiz-adv-x="497" 
d="M327 369q48 0 82 -25t47 -58t13 -69q0 -121 -102 -191q-58 -43 -126 -43q-99 0 -155 64t-56 167q0 110 68 218.5t173 178.5q113 72 182 72q25 0 25 -14q0 -8 -17 -15q-90 -36 -173 -117q-59 -57 -99 -141.5t-40 -165.5q0 -92 40 -147.5t99 -55.5q26 0 48 19q35 32 35 98
q0 67 -30.5 107.5t-83.5 40.5q-21 0 -58 -15q-4 -1 -7.5 1.5t-3.5 5.5q0 15 13 28q25 22 61 39q36 18 65 18z" />
    <glyph glyph-name="seven" unicode="7" horiz-adv-x="497" 
d="M261 611q54 -1 157 3q10 0 20.5 0.5t16 1t7.5 0.5q14 0 16 -11q2 -6 -3 -11q-20 -29 -209 -412q-104 -211 -104 -212q-7 -14 -15 -14q-7 0 -18 7t-11 13q0 10 17 40q184 352 248 483q1 3 0 6t-3 3q-42 5 -205 5q-53 0 -71 -6q-19 -3 -53 -51q-11 -17 -23 -17q-9 0 -9 13
q0 11 9 31q6 16 11.5 40t10 47.5t4.5 24.5q2 9 13 23q4 2 12 0q16 -4 182 -7z" />
    <glyph glyph-name="eight" unicode="8" horiz-adv-x="497" 
d="M245 643q78 0 129 -43.5t51 -109.5q0 -52 -55 -96q-9 -8 -30 -23t-24 -17t-3 -5t3 -4q59 -41 93 -84.5t34 -99.5q0 -72 -66 -124q-61 -49 -147 -49q-94 0 -144.5 48t-50.5 105q0 29 13.5 55t25 37t32.5 28q32 23 56 38q4 4 1 7q-32 21 -58 50q-52 54 -52 116q0 76 60 125
q55 46 132 46zM250 22q43 0 65 28t22 71q0 68 -128 158q-13 8 -17 6q-23 -13 -43 -51.5t-20 -81.5q0 -47 33 -87q38 -43 88 -43zM233 610q-38 0 -60.5 -25t-22.5 -67q0 -73 126 -149q6 -6 12 0q23 18 35 44q17 39 17 75q0 41 -31.5 81.5t-75.5 40.5z" />
    <glyph glyph-name="nine" unicode="9" horiz-adv-x="497" 
d="M254 625q96 0 151.5 -71t55.5 -172q0 -111 -71 -223t-180 -176q-82 -48 -132 -48q-7 0 -15 4t-8 11t7 9q101 51 169 135q110 133 110 283q0 57 -15 108.5t-45 78.5q-28 22 -60 22q-41 0 -63.5 -37.5t-22.5 -81.5q0 -66 32 -108.5t88 -42.5q17 0 40 10q4 2 7.5 -1t3.5 -6
q0 -9 -5 -19q-9 -15 -19 -23q-45 -36 -96 -36q-65 0 -108.5 45.5t-43.5 123.5q0 50 26.5 101t86.5 85q53 29 107 29z" />
    <glyph glyph-name="colon" unicode=":" horiz-adv-x="297" 
d="M150 386q32 0 49 -24t17 -47q-1 -32 -21.5 -50t-46.5 -18t-46.5 17.5t-20.5 53.5q0 34 23 51t46 17zM150 128q32 0 49 -24.5t17 -46.5q-1 -32 -21.5 -50t-46.5 -18t-46.5 17.5t-20.5 52.5t23 52t46 17z" />
    <glyph glyph-name="semicolon" unicode=";" horiz-adv-x="297" 
d="M150 386q32 0 49 -24t17 -47q-1 -32 -21.5 -50t-46.5 -18q-25 0 -46 17.5t-21 52.5t23 52t46 17zM136 135q35 0 60 -28t25 -77q0 -64 -49.5 -102.5t-81.5 -38.5q-19 0 -19 12q0 10 18 19q64 28 64 76q0 25 -31 30q-16 3 -31 15.5t-15 35.5q0 26 19.5 42t40.5 16z" />
    <glyph glyph-name="less" unicode="&#x3c;" horiz-adv-x="527" 
d="M465 86q2 -3 1 -11.5t-7 -21.5t-14 -21q-6 -6 -18 1l-325 179q-41 23 -41 33q0 4 5 14q17 22 33 31l325 182q13 8 20 2q11 -11 18.5 -27.5t-0.5 -24.5l-303 -161q-3 -1 -4 -4.5t3 -6.5z" />
    <glyph glyph-name="equal" unicode="=" horiz-adv-x="624" 
d="M552 381q11 0 11 -12q0 -50 -10 -50l-479 -2q-14 0 -14 17q0 12 4.5 27.5t10.5 15.5zM554 192q9 0 9 -18t-4.5 -31t-9.5 -13l-476 2q-5 0 -9 8t-4 17q0 11 5 23t10 12h479z" />
    <glyph glyph-name="greater" unicode="&#x3e;" horiz-adv-x="527" 
d="M465 260q0 -4 -6 -14q-14 -21 -32 -31l-330 -185q-6 -4 -21 7q-8 8 -14 25t-1 19q58 30 166 88t140 75q9 4 1 10q-132 70 -307 164q-2 3 -2 11t4.5 20.5t12.5 20.5q2 2 8 4t7 1q90 -49 333 -183q41 -23 41 -32z" />
    <glyph glyph-name="question" unicode="?" horiz-adv-x="376" 
d="M138 608q48 0 114 -48q20 -16 51 -59.5t31 -86.5q0 -71 -42 -109q-73 -44 -91 -53q-6 -3 -10 -6t-6 -8t-2.5 -8.5t-1 -10.5t-0.5 -10q-1 -11 -9.5 -17t-15.5 -6q-6 0 -22 42q-15 43 -15 74q0 30 27.5 53t89.5 51q24 10 33.5 20t9.5 25q-2 54 -64 54q-4 0 -34.5 -6.5
t-41.5 -6.5q-14 0 -30.5 24.5t-16.5 46.5q0 16 14.5 30.5t31.5 14.5zM181 132q32 0 50.5 -21t18.5 -49q0 -31 -20.5 -52.5t-50.5 -21.5t-49.5 20.5t-19.5 52.5q0 31 22 51t49 20z" />
    <glyph glyph-name="at" unicode="@" horiz-adv-x="861" 
d="M474 317q-36 0 -70 -37q-32 -34 -55.5 -82t-23.5 -81q0 -32 18 -32q25 0 61 34q71 62 116 168q4 12 -3 17q-19 13 -43 13zM511 375q19 0 34 -13q5 -5 9 3q9 25 17 31t17 6q25 0 45 -12q5 -4 5 -15q-88 -210 -102 -285q-6 -40 33 -40q79 0 134.5 65t55.5 161
q0 121 -80 191t-206 70q-87 0 -157.5 -33.5t-114 -90t-66.5 -126t-23 -144.5q0 -57 18.5 -111t54 -99t96 -72t137.5 -27q61 0 120.5 20.5t100.5 54.5q5 4 9 0.5t4 -11.5q0 -9 -10 -22q-43 -47 -114.5 -68.5t-135.5 -21.5q-53 0 -104 13.5t-96.5 42.5t-80 70.5t-54.5 101
t-20 130.5q0 78 26.5 147.5t70.5 120t99.5 88t116.5 56t119 18.5q159 0 248.5 -86.5t89.5 -209.5q0 -112 -83.5 -193t-209.5 -81q-33 0 -53.5 10.5t-21.5 21.5q0 17 3 28l26 71q2 4 -2 5q-2 1 -5 -2q-132 -134 -202 -134q-15 0 -25.5 14t-10.5 32q-2 64 96 182
q45 56 102 99.5t90 43.5z" />
    <glyph glyph-name="A" unicode="A" horiz-adv-x="677" 
d="M356 650q8 0 17 -22q10 -27 40 -112q90 -252 143 -386q23 -56 41 -74t48 -27q26 -8 26 -18q0 -15 -33 -15q-12 0 -63.5 2t-67.5 2q-17 0 -51.5 -1t-46.5 -1q-32 0 -32 15q0 12 26 17q28 7 35 17t5 25q-2 23 -46 146q-1 4 -8.5 9.5t-15.5 5.5q-111 1 -168 -3q-4 0 -11 -10
q-43 -108 -43 -145q0 -16 10.5 -26.5t36.5 -17.5q29 -7 29 -20t-30 -13q-7 0 -33 1t-47 1q-23 0 -59 -2t-40 -2q-29 0 -29 12q0 13 25 20q37 10 52.5 26t38.5 63q13 26 85 208.5t89 223.5q5 10 5 18q0 7 2 8q34 35 52 62q9 13 18 13zM371 281q1 0 3 2.5t1 5.5
q-37 117 -73 201q-2 5 -5.5 4t-5.5 -7q-68 -180 -72 -198q-2 -10 7 -10q78 2 145 2z" />
    <glyph glyph-name="B" unicode="B" horiz-adv-x="619" 
d="M534 487q0 -35 -16.5 -64t-28 -38.5t-34.5 -25.5q-2 -1 -1.5 -5t2.5 -4q120 -50 120 -165q0 -88 -85 -145q-32 -23 -85.5 -33.5t-93.5 -10.5q-48 0 -183 3q-21 1 -48 0t-28 -1q-32 0 -32 16q0 12 28 17q43 8 54.5 20t14.5 41q8 84 8 319q0 122 -6 150q-4 18 -15 25.5
t-48 14.5q-26 4 -26 19q0 13 28 13h66q15 0 94 3.5t101 3.5q97 0 144 -30q70 -43 70 -123zM417 475q0 60 -36 94.5t-92 34.5q-13 0 -35 -6q-7 -3 -9 -16q-4 -32 -4 -213q0 -4 3.5 -8.5t7.5 -4.5q85 0 117 24q48 34 48 95zM444 176q0 43 -20 77.5t-54 52.5q-34 19 -86 19
q-27 0 -34 -7q-8 -8 -8 -47q-3 -74 4 -176q2 -20 13 -32q32 -34 63 -34q49 0 85.5 43t36.5 104z" />
    <glyph glyph-name="C" unicode="C" horiz-adv-x="710" 
d="M426 650q66 0 130 -16q47 -12 72 -15q5 0 10 -8t5 -19q1 -40 5 -92q1 -16 -4 -27t-13 -11q-10 0 -19 27q-17 52 -42 71q-69 58 -148 58q-114 0 -174 -78.5t-60 -199.5q0 -101 34 -169q39 -77 99 -113t125 -36q59 0 97 23q53 30 87 91q17 31 27 31q7 0 9 -14.5t-1 -22.5
q-9 -45 -30 -87q-2 -7 -13.5 -17t-22.5 -15q-81 -29 -175 -29q-100 0 -178 35t-116 78q-84 97 -84 225q0 81 34.5 144t75.5 96q109 90 270 90z" />
    <glyph glyph-name="D" unicode="D" horiz-adv-x="760" 
d="M354 641q93 0 160.5 -29.5t106.5 -66.5q42 -40 68 -99t26 -119q0 -97 -48.5 -172t-109.5 -109q-95 -55 -229 -55q-82 0 -200 6q-30 1 -68 1q-33 0 -33 16q0 13 26 17q45 6 56.5 25t13.5 88q3 87 2 138q0 181 -3 231q-3 51 -12.5 66.5t-48.5 21.5q-9 2 -16.5 7t-7.5 10
q0 6 8 10.5t19 4.5h52q21 0 109.5 4t128.5 4zM309 606q-32 0 -52 -11q-8 -5 -8 -14q-4 -48 -4 -176v-145q0 -105 4 -164q2 -26 20 -44q11 -10 33.5 -18.5t33.5 -8.5q79 0 150 59q44 37 68.5 103t24.5 140q0 54 -21.5 112t-58.5 96q-32 33 -84 52t-106 19z" />
    <glyph glyph-name="E" unicode="E" horiz-adv-x="587" 
d="M250 633h150q46 0 88 6q3 1 7 -3.5t5 -9.5q1 -18 1 -107q0 -11 -4.5 -19.5t-11.5 -8.5q-6 0 -11.5 8t-7.5 17q-15 67 -64 75q-46 7 -139 6q-12 0 -13 -28q-7 -81 -4 -219q0 -3 3 -6.5t7 -3.5h80q51 0 62 6.5t26 41.5q10 26 22 26q6 0 8.5 -9t1.5 -19q-4 -56 -4 -69
q0 -18 4 -68q2 -30 -13 -30q-12 0 -19 22q-9 32 -22 42t-43 12q-32 3 -100 3q-3 0 -8 -5t-5 -7q-5 -36 -2 -139q3 -78 4 -82q7 -21 22 -24q32 -6 81 -6q67 0 92 9q47 17 79 74q19 35 31 35t8 -29q0 -6 -16 -55.5t-22 -60.5q-2 -5 -10.5 -9t-13.5 -4q-3 0 -71 1t-148.5 2.5
t-113.5 1.5q-37 0 -68.5 -2.5t-45.5 -2.5q-34 0 -34 13t30 20q39 9 52 23t16 53q8 112 8 242q0 178 -1 193q-2 29 -12.5 43.5t-40.5 20.5q-32 6 -32 18q0 6 10 10.5t21 4.5q23 0 88.5 -1.5t92.5 -1.5z" />
    <glyph glyph-name="F" unicode="F" horiz-adv-x="544" 
d="M196 633h132q128 0 164 4q5 1 9 -3t4 -9q-1 -17 1.5 -61.5t2.5 -49.5q1 -10 -3.5 -19t-11.5 -9q-13 0 -23 33q-20 66 -67 73q-21 2 -73 2.5t-66 -0.5q-4 0 -9.5 -4.5t-5.5 -6.5q-6 -36 -6 -214q0 -35 12 -35q101 0 116 2q24 4 34.5 12.5t18.5 33.5q9 26 21 26t12 -24
q0 -6 -2 -30t-2 -34q0 -20 1 -45t1 -31q0 -33 -17 -33q-10 0 -18 26q-12 42 -41 48q-26 6 -65 6t-62 -3q-4 -1 -9 -11q0 -39 2 -109.5t2 -72.5q2 -32 13 -44t48 -19q29 -5 29 -20q0 -6 -10 -10.5t-23 -4.5q-11 0 -46 1.5t-55 1.5q-28 0 -78.5 -3t-64.5 -3q-29 0 -29 12
q0 15 29 21q31 8 42 20.5t13 32.5q8 83 8 287q0 151 -2 177q-2 25 -13 37.5t-40 19.5q-32 9 -32 21q0 14 30 14q23 0 66 -1.5t63 -1.5z" />
    <glyph glyph-name="G" unicode="G" horiz-adv-x="743" 
d="M424 650q81 0 163 -21q22 -5 45 -8q10 0 12 -23q0 -12 7.5 -55t7.5 -65q0 -25 -17 -25q-9 0 -19 26q-15 41 -38 70q-21 25 -63.5 46.5t-96.5 21.5q-109 0 -174.5 -84.5t-65.5 -206.5q0 -108 42 -180q33 -59 89 -94.5t122 -35.5q34 0 63 20q21 14 21 70q0 73 -4 89
q-4 14 -9 22t-22.5 16t-48.5 11q-11 1 -20 6.5t-9 12.5q0 14 34 14q20 0 64 -2t56 -2q10 0 53 3t63 3q27 0 27 -15q0 -11 -23 -19q-16 -4 -24 -10.5t-8.5 -10t-2.5 -14.5q-5 -30 -5 -124q0 -14 16 -30q11 -8 11 -17q0 -4 -5 -8.5t-10 -6.5q-40 -12 -91 -22q-96 -20 -148 -20
q-81 0 -152 23t-116 64q-103 99 -103 249q0 144 111 241q47 42 119 66.5t149 24.5z" />
    <glyph glyph-name="H" unicode="H" horiz-adv-x="817" 
d="M246 361q2 -13 12 -13q29 0 138.5 2t166.5 2q7 0 9 25q2 8 1.5 75t-3.5 94q-3 28 -11.5 38.5t-37.5 18.5t-29 20q0 13 33 13q5 0 51.5 -1.5t61.5 -1.5q18 0 60.5 2t46.5 2q31 0 31 -13q0 -14 -32 -22q-25 -6 -33.5 -17.5t-10.5 -35.5q-8 -75 -8 -279q0 -51 4 -183
q1 -28 9.5 -36t41.5 -19q28 -9 28 -21q0 -14 -32 -14q-7 0 -45.5 1.5t-55.5 1.5q-11 0 -61.5 -2.5t-60.5 -2.5q-34 0 -34 14q0 13 27 21q36 10 44 24t12 71q2 30 3 85.5t-1 75.5q0 13 -8 13q-29 0 -110.5 0.5t-124.5 1t-70 -0.5q-4 -1 -8.5 -6t-4.5 -9q-3 -53 1 -176
q1 -37 9.5 -51t38.5 -23q35 -10 35 -25q0 -5 -5.5 -8t-12.5 -4t-14 -1l-52 1q-52 2 -73 2q-10 0 -50 -2t-58 -2q-35 0 -35 13q0 14 28 22q33 9 43.5 21t14.5 44q9 90 9 326v125q-1 25 -10 35.5t-34 18.5q-34 10 -34 22q0 14 31 14q14 0 54.5 -2t53.5 -2q23 0 62 1.5t49 1.5
q33 0 33 -13q0 -14 -34 -22q-29 -6 -37 -20.5t-9 -48.5q-8 -141 -3 -171z" />
    <glyph glyph-name="I" unicode="I" horiz-adv-x="369" 
d="M124 334q0 155 -3 193q-2 29 -4 39.5t-13 20t-35 15.5q-30 8 -30 20q0 14 32 14q14 0 55.5 -1.5t58.5 -1.5q26 0 64.5 1.5t54.5 1.5q31 0 31 -14q0 -15 -31 -20q-18 -3 -29.5 -9t-16.5 -15.5t-6.5 -16.5t-2.5 -20q-4 -33 -4 -232q0 -149 3 -194t14 -60t52 -26
q28 -6 28 -21q0 -13 -31 -13q-17 0 -72 3t-78 2q-13 0 -45 -1.5t-51 -1.5q-31 0 -31 17q0 12 30 19q33 8 43 24t12 51q5 63 5 226z" />
    <glyph glyph-name="J" unicode="J" horiz-adv-x="357" 
d="M-77 -168q0 8 11 24.5t20 25.5q3 4 14 9.5t15 5.5q13 0 31 -11q41 -29 63 -29q18 0 27 12q15 19 20 65q3 43 3 331q0 180 -5 285q-2 38 -56 51q-32 7 -32 22q0 14 31 14q14 0 52.5 -2t61.5 -2q31 0 70 1.5t52 1.5q28 0 28 -12q0 -14 -30 -22q-27 -6 -37 -20t-11 -50
q-3 -275 -7 -430q-3 -86 -38.5 -156.5t-87.5 -107.5q-71 -51 -123 -51q-26 0 -49 12.5t-23 32.5z" />
    <glyph glyph-name="K" unicode="K" horiz-adv-x="703" 
d="M43 622q0 14 30 14q11 0 50.5 -1.5t55.5 -1.5t56.5 1t51.5 1q32 0 32 -13q0 -10 -27 -18q-30 -9 -39 -19t-10 -42q-4 -57 -1 -206q0 -7 7 -7q8 0 17 9q26 19 100 93t109 117q19 19 15.5 32.5t-33.5 20.5q-24 6 -24 16q0 14 25 14h42q36 0 93 2.5t66 2.5q28 0 28 -12
q0 -13 -36 -20q-27 -5 -53.5 -18.5t-39 -23t-44.5 -34.5q-81 -64 -159 -151q-5 -5 -1 -10q17 -25 109.5 -132.5t141.5 -158.5q23 -24 42 -33.5t53 -16.5q8 -2 14.5 -8t6.5 -9q0 -7 -9.5 -11.5t-19.5 -4.5q-13 0 -84.5 4t-85.5 4q-20 0 -46.5 -1t-36.5 -1q-22 0 -22 16
q0 9 47 23q7 3 0 14q-25 34 -85 108t-93 110t-37 37q-7 0 -7 -23q-1 -44 4 -208q0 -15 10.5 -25.5t40.5 -18.5q28 -8 28 -20q0 -15 -32 -15q-10 0 -58.5 1t-65.5 1q-15 0 -56 -2t-57 -2q-10 0 -18.5 5t-8.5 10q0 12 29 19q37 7 49 23.5t14 61.5q3 42 3 226q0 120 -4 192
q-1 35 -10 48t-38 21t-29 20z" />
    <glyph glyph-name="L" unicode="L" horiz-adv-x="586" 
d="M43 621q0 14 30 14q13 0 49 -1t51 -1q21 0 71.5 2t60.5 2q31 0 31 -12t-22 -19q-61 -15 -63 -40q-7 -50 -7 -299q0 -143 5 -185q1 -15 14.5 -26t21.5 -13q32 -5 83 -5q50 0 72 5q21 5 31 14q39 39 63 78q14 20 27 20q11 0 4 -27q-21 -67 -32 -118q-1 -4 -10.5 -10.5
t-12.5 -6.5q-1 0 -37 1.5t-108 3.5t-162 2q-26 0 -80.5 -3t-67.5 -3q-30 0 -30 13q0 14 25 19q39 7 52 22t17 50q5 63 5 274q0 136 -1 169q-1 28 -10.5 40.5t-41.5 20.5q-28 7 -28 19z" />
    <glyph glyph-name="M" unicode="M" horiz-adv-x="886" 
d="M46 624q0 13 29 13t74.5 -2t87.5 -2q2 0 6 -5t5 -9q9 -29 38 -90q149 -306 163 -325q6 -6 9 -3q24 44 85 166t82 174q25 60 29 77q1 3 5.5 9t6.5 6q31 0 68.5 1t63 2t27.5 1q27 0 27 -12q0 -13 -29 -19q-22 -6 -45 -17q-24 -11 -24 -80q0 -315 12 -415q4 -27 16.5 -40.5
t47.5 -22.5q12 -3 19.5 -9t7.5 -12q0 -15 -30 -15q-2 0 -61 2.5t-80 2.5q-8 0 -45.5 -1.5t-49.5 -1.5q-29 0 -29 14q0 15 28 21q28 7 36 25.5t11 55.5q3 33 4.5 172.5t0.5 184.5q0 10 -5 11q-3 1 -5 -4q-76 -150 -146 -309q-20 -45 -60 -143q-13 -31 -28 -31q-9 0 -19 22
q-14 46 -37 102q-35 86 -87 201t-71 151q-6 12 -6 -3q-6 -53 -11.5 -162t-4.5 -187q1 -43 12 -58.5t49 -27.5q29 -10 29 -22q0 -14 -29 -14q-16 0 -48.5 2t-43.5 2q-12 0 -45 -2t-44 -2q-31 0 -31 14q0 9 27 19q42 14 55 32t20 70q31 266 33 403q0 50 -38 60q-28 9 -41 12
q-21 6 -21 18z" />
    <glyph glyph-name="N" unicode="N" horiz-adv-x="772" 
d="M22 622q0 15 30 15q7 0 65 -2t87 -2q9 0 22 -13q7 -8 34.5 -39.5t49.5 -57.5q17 -21 61.5 -69t84.5 -90.5t91.5 -96.5t60.5 -63q3 -3 6 0t3 6q2 12 2 226q0 55 -6 107q-4 41 -62 56q-33 8 -33 23q0 12 29 12q13 0 36 -0.5t32 -0.5q27 0 66 2.5t49 2.5q24 0 24 -13
t-25 -20q-36 -12 -47 -27t-15 -48q-2 -28 -6 -170t-4 -204q0 -23 3 -84t3 -72q0 -6 -6 -12.5t-10 -6.5q-25 0 -54 38q-17 22 -65 81q-52 63 -180.5 206t-165.5 186q-4 4 -7.5 1t-3.5 -6q-4 -55 -5 -129q-2 -228 2 -264q3 -25 16 -39t47 -25q28 -8 28 -19q0 -15 -33 -15
q-14 0 -41.5 2t-45.5 2q-12 0 -49.5 -1.5t-45.5 -1.5q-26 0 -26 13q0 11 22 18q40 12 55.5 28.5t17.5 68.5q2 40 6.5 125.5l8 152t3.5 98.5q0 48 -6 56q-1 1 -6.5 7.5t-6 7.5t-5.5 6.5t-7.5 6.5t-8.5 5t-11.5 6t-13.5 4.5t-18 4.5q-9 2 -17.5 7t-8.5 10z" />
    <glyph glyph-name="O" unicode="O" horiz-adv-x="783" 
d="M388 650q80 0 147.5 -28t110.5 -74t67 -103.5t24 -118.5q0 -171 -126 -272q-43 -33 -102 -52.5t-117 -19.5q-159 0 -260 107q-86 92 -86 229q0 157 129 260q38 29 96 50.5t117 21.5zM364 615q-31 0 -62 -15.5t-51 -35.5q-70 -68 -70 -224q0 -123 68 -222t172 -99
q61 0 102 41q33 33 55 95.5t22 139.5q0 67 -26.5 143t-77.5 123q-26 23 -63 38.5t-69 15.5z" />
    <glyph glyph-name="P" unicode="P" horiz-adv-x="584" 
d="M419 444q0 63 -38.5 113.5t-97.5 50.5q-15 0 -27 -9q-8 -8 -9 -37q0 -9 -0.5 -46.5t-1 -102.5t-0.5 -109q0 -54 1 -115.5t1 -65.5q1 -49 11 -66t51 -28q28 -6 28 -21q0 -6 -10 -10t-21 -4t-57 3t-70 3q-14 0 -53.5 -2t-55.5 -2q-37 0 -37 16q0 11 24 18q36 9 49 23.5
t15 49.5q6 80 6 156q0 256 -2 285t-13 41t-50 17q-23 4 -23 15q0 13 21 16q6 1 33 1q34 0 102.5 4t88.5 4q143 0 202 -58q58 -57 58 -135q0 -94 -66 -151q-20 -17 -56 -31t-64 -14q-34 0 -52 7q-21 9 -21 20q0 3 4.5 6.5t10.5 3.5h15q37 0 70.5 41.5t33.5 112.5z" />
    <glyph glyph-name="Q" unicode="Q" horiz-adv-x="782" 
d="M394 650q140 0 241 -91.5t101 -233.5q0 -88 -28 -145.5t-80 -106.5q-45 -41 -119 -71q-10 -4 -2 -14q12 -16 53.5 -48t76.5 -53q99 -60 167 -60q21 0 64 8q15 2 15 -7q0 -14 -21 -30q-18 -13 -53.5 -22.5t-60.5 -9.5q-116 0 -236 75q-16 9 -37.5 24.5t-56.5 42.5t-56 42
q-58 41 -96 55q-100 39 -160 119.5t-60 188.5q0 173 139 272q90 65 209 65zM370 613q-58 0 -103 -36q-86 -69 -86 -255q0 -54 21 -112.5t58 -104.5q30 -37 74 -61t76 -24q67 0 105 26q40 28 62.5 103.5t22.5 135.5q0 72 -24 146t-69 121q-26 27 -64.5 44t-72.5 17z" />
    <glyph glyph-name="R" unicode="R" horiz-adv-x="651" 
d="M541 476q0 -72 -70 -128q-6 -5 -39 -21q-8 -3 -2 -14q17 -37 67 -117t84 -119q33 -39 86 -50q7 -1 12.5 -6t5.5 -8q0 -10 -16 -15q-21 -8 -67 -8q-104 0 -151 65q-43 59 -121 192q-21 35 -32 42q-15 13 -48 13q-9 0 -11 -10q-2 -15 -0.5 -90t3.5 -109q2 -33 12 -44.5
t44 -20.5q24 -7 24 -19q0 -15 -31 -15q-16 0 -59 3t-69 3q-21 0 -57 -2t-39 -2q-32 0 -32 16q0 9 24 16q34 10 46 22t14 36q6 77 6 246q0 174 -5 219q-2 20 -13.5 31t-44.5 19q-25 7 -25 19q0 5 8.5 9.5t20.5 4.5h73q16 0 80.5 2.5t93.5 2.5q121 0 174 -44q24 -19 39 -52
t15 -67zM417 464q0 62 -43 106q-34 35 -81 35q-24 0 -38 -7q-9 -5 -12 -21q-3 -29 -4.5 -120.5t1.5 -114.5q2 -12 13 -12q34 0 65.5 7.5t42.5 14.5q56 41 56 112z" />
    <glyph glyph-name="S" unicode="S" horiz-adv-x="498" 
d="M286 650q34 0 126 -17q3 -1 7.5 -8.5t5.5 -11.5q0 -8 5 -50.5t5 -43.5q0 -25 -9 -25q-7 0 -16.5 7t-12.5 17q-14 47 -43 71q-34 28 -80 28q-38 0 -70 -29t-32 -75q0 -41 29 -70.5t105 -77.5q85 -52 116 -100t31 -100q0 -41 -23 -81.5t-65 -65.5q-58 -36 -140 -36
q-77 0 -144 26q-6 3 -16 14.5t-10 14.5q-17 74 -17 107q0 5 6 13t10 8q12 0 39 -55q22 -44 60.5 -68t78.5 -24q38 0 71 27.5t33 72.5q0 34 -24 67t-89 75q-82 54 -119.5 101t-37.5 110q0 81 61 131q57 48 159 48z" />
    <glyph glyph-name="T" unicode="T" horiz-adv-x="678" 
d="M342 632q166 0 216 3q59 5 77 16q13 8 16 8q4 0 8 -7.5t1 -17.5q-16 -57 -21 -116q0 -8 -5.5 -17t-13.5 -9q-12 0 -17 31q-7 42 -20.5 54t-51.5 14q-91 0 -122 -5q-10 -2 -10 -12q0 -18 -0.5 -89t-0.5 -119q0 -208 5 -271q3 -27 17.5 -41.5t60.5 -24.5q10 -2 17.5 -8.5
t7.5 -11.5q0 -13 -28 -13q-2 0 -67.5 2t-80.5 2q-17 0 -67.5 -3t-57.5 -3q-31 0 -31 12q0 14 22 21q47 12 58.5 28.5t14.5 70.5q9 133 9 334q0 32 -0.5 70t-0.5 47q0 6 -4 10t-7 4q-25 4 -113 4q-13 0 -30 -7t-25 -16q-13 -14 -34 -53q-16 -26 -22 -26q-15 0 -15 22
q0 6 9 56t10 79q0 4 5.5 12t10.5 8t17 -16q10 -13 41 -16q66 -6 222 -6z" />
    <glyph glyph-name="U" unicode="U" horiz-adv-x="763" 
d="M33 623q0 14 30 14q22 0 61 -2t56 -2q20 0 63 2t52 2q29 0 29 -15q0 -14 -30 -20q-27 -5 -38.5 -17t-15.5 -41q-4 -26 -4 -270q0 -79 13.5 -117t42.5 -68q19 -19 57.5 -31.5t64.5 -12.5q145 0 175 131q19 84 19 275q0 69 -5 97q-2 23 -17 36t-49 21q-27 8 -27 20t27 12
q11 0 43 -2t49 -2q21 0 51 2t42 2q25 0 25 -15q0 -11 -26 -17q-37 -9 -50.5 -28t-14.5 -66q0 -10 -8 -218q-5 -119 -37.5 -182t-91.5 -97q-55 -31 -137 -31q-121 0 -188 61q-44 41 -62 98.5t-18 173.5q0 195 -4 243q-4 35 -50 45q-27 7 -27 19z" />
    <glyph glyph-name="V" unicode="V" horiz-adv-x="674" 
d="M-4 623q0 15 29 15q6 0 48.5 -2.5t70.5 -2.5q18 0 63.5 1t55.5 1q24 0 24 -12q0 -14 -25 -21q-31 -8 -37.5 -21t1.5 -33q11 -36 69.5 -181.5t76.5 -182.5q2 -2 5 -2t4 2q8 16 66 152.5t78 189.5q4 10 6 17.5t1.5 14.5t0 11t-4.5 9t-5.5 7t-8.5 5.5t-9 4t-12.5 4.5
t-12.5 5q-22 8 -22 17q0 6 8 10.5t19 4.5q15 0 41.5 -1.5t43.5 -1.5q16 0 48 2t42 2q30 0 30 -14t-27 -19q-33 -8 -52.5 -26t-38.5 -58q-5 -12 -31 -66t-56 -120t-57 -132q-50 -120 -75 -196q-3 -9 -11.5 -17.5t-15.5 -8.5t-13.5 8.5t-8.5 15.5q-12 52 -52 153
q-33 87 -149 366q-17 38 -33 55.5t-48 26.5q-26 7 -26 18z" />
    <glyph glyph-name="W" unicode="W" horiz-adv-x="982" 
d="M-5 623q0 14 29 14q25 0 62 -2t60 -2q24 0 56.5 1.5t33.5 1.5q28 0 28 -13t-28 -23q-32 -10 -22 -36q25 -64 183 -407q5 -7 9 1q50 92 69 139q3 5 0 14q-49 120 -99 214q-21 44 -32 57.5t-37 20.5q-24 7 -24 20q0 14 32 14q5 0 41 -2t55 -2q28 0 65.5 1.5t38.5 1.5
q25 0 25 -14q0 -13 -25 -20q-19 -5 -23.5 -14.5t2.5 -30.5q14 -38 57 -130q3 -7 8 1q33 65 50 103q11 26 10.5 41t-7.5 20.5t-24 10.5q-24 10 -24 19q0 13 30 13q8 0 29.5 -1t39.5 -1t46 1t34 1q24 0 24 -11q0 -14 -29 -21q-30 -10 -46 -22t-37 -47q-41 -70 -79 -142
q-3 -9 1 -16q70 -155 102 -214q4 -7 10 3q82 175 159 364q13 35 5.5 51t-39.5 25q-26 7 -26 18q0 14 30 14q12 0 35.5 -2t33.5 -2q16 0 45 1.5t45 1.5q30 0 30 -11q0 -13 -29 -21q-29 -6 -43.5 -19.5t-35.5 -53.5q-28 -51 -134 -284q-86 -197 -101 -235q-4 -10 -13 -17.5
t-16 -7.5q-13 0 -18 19q-13 33 -32 74.5t-44 94t-38 80.5q-4 6 -7 1q-73 -136 -120 -253q-4 -8 -14.5 -15.5t-17.5 -7.5q-1 1 -3 2t-2.5 1.5t-2 1.5t-2.5 3t-2.5 4.5t-3.5 6.5q-51 131 -63 158q-122 281 -166 367q-16 32 -22 42t-20 21.5t-35 16.5q-27 5 -27 19z" />
    <glyph glyph-name="X" unicode="X" horiz-adv-x="718" 
d="M33 623q0 15 30 15q8 0 66.5 -2.5t78.5 -2.5q21 0 47.5 1t40.5 1q29 0 29 -11q0 -14 -30 -25q-24 -6 -13 -30q35 -72 104 -172q6 -8 10 -1q23 26 64.5 83t57.5 84q14 28 -36 39q-13 3 -19.5 9t-6.5 11q0 13 27 13q16 0 45.5 -1t43.5 -1q13 0 55 2t54 2q25 0 25 -11
q0 -6 -8 -12t-17 -8q-46 -11 -74.5 -27t-56.5 -47q-8 -10 -38.5 -45.5t-52.5 -62.5t-42 -55q-4 -8 -1 -15q5 -15 57.5 -97t86.5 -131q31 -44 56 -65t76 -33q24 -5 24 -19t-34 -14q-10 0 -78.5 3t-95.5 3q-16 0 -48 -2.5t-37 -2.5q-25 0 -25 14q0 12 23 19q25 9 30 12
q3 2 4.5 7.5t0.5 9.5q-17 31 -65.5 110.5t-56.5 86.5q-6 6 -10 2q-61 -71 -99 -132q-27 -50 -23 -66t36 -27q25 -7 25 -19q0 -15 -25 -15q-13 0 -49.5 1.5t-53.5 1.5q-23 0 -57 -2.5t-43 -2.5q-33 0 -33 12q1 16 36 23q64 14 114 70q76 83 150 185q5 6 2 14q-5 17 -58 102
t-98 147q-18 24 -37 35.5t-49 17.5q-14 3 -22 9t-7 12z" />
    <glyph glyph-name="Y" unicode="Y" horiz-adv-x="641" 
d="M5 626q0 12 30 12q9 0 56.5 -3t73.5 -3q13 0 44.5 1t52.5 1q25 0 25 -11q0 -6 -6.5 -12.5t-16.5 -8.5q-24 -5 -29 -17.5t6 -31.5q28 -51 115 -199q2 -2 6.5 -1t6.5 4q82 128 111 185q15 23 8.5 38.5t-39.5 22.5q-27 6 -27 22q0 10 22 10q13 0 35 -1t33 -1q16 0 64 2.5
t55 2.5q23 0 23 -11q0 -13 -28 -21q-32 -8 -51.5 -24.5t-49.5 -52.5q-35 -44 -133 -195q-14 -24 -14 -54q0 -140 7 -198q2 -21 14 -32t50 -21q26 -7 26 -19q0 -14 -31 -14q-6 0 -51.5 2.5t-58.5 2.5q-29 0 -62 -1.5t-56 -3.5t-27 -2q-26 0 -26 12q0 14 29 21q63 18 65 46
q1 15 1 193q0 31 -9 49q-14 28 -119 199q-32 50 -51 68t-45 24q-29 6 -29 20z" />
    <glyph glyph-name="Z" unicode="Z" horiz-adv-x="632" 
d="M308 631q196 0 235 6q8 1 14 -1t6 -6q0 -13 -13 -30q-43 -56 -82 -117q-66 -100 -149 -239t-102 -178q-2 -4 0 -9.5t5 -6.5q24 -11 113 -13q70 0 101 1q76 3 142 108q18 28 26 28q12 0 12 -24q-3 -32 -51 -137q-8 -18 -57 -18q-71 0 -214 2t-156 2q-26 0 -57 -1t-33 -1
q-6 0 -11.5 3.5t-5.5 9.5q0 8 32 49q45 58 174 269.5t145 248.5q1 3 0.5 5.5t-1.5 4.5t-3 2q-33 5 -149 5q-30 0 -62 -6q-61 -12 -98 -79q-13 -26 -24 -26q-8 0 -11 9t1 21q2 10 21.5 60t25.5 78q1 8 3.5 10t8.5 2q10 0 16 -8q11 -16 49 -20q45 -4 149 -4z" />
    <glyph glyph-name="bracketleft" unicode="[" horiz-adv-x="338" 
d="M129 704q34 0 87 0.5t56 0.5q9 0 17 -5.5t8 -11.5t-7 -11t-16 -7q-51 -7 -88 -9q-5 0 -10.5 -7.5t-6.5 -16.5q-4 -75 -4 -322q0 -18 7 -391q0 -48 17 -50q13 -1 34.5 -3.5t38 -4.5t18.5 -2q6 0 16 -6t10 -12t-11 -12t-20 -5h-74q-17 0 -51.5 -0.5t-35.5 -0.5
q-14 0 -14 33v585v125t-0.5 81.5t-0.5 27.5q0 16 7 21q3 3 23 3z" />
    <glyph glyph-name="backslash" unicode="\" horiz-adv-x="381" 
d="M352 -51q2 -2 -1 -8t-7 -7q-15 -9 -30 -9q-5 -1 -9.5 5t-7.5 16q-80 210 -263 698q-2 9 9 15q24 9 33 9q7 0 15 -19q240 -644 261 -700z" />
    <glyph glyph-name="bracketright" unicode="]" horiz-adv-x="338" 
d="M217 -171q-34 0 -85.5 -0.5t-54.5 -0.5q-11 0 -19.5 5.5t-8.5 11.5q0 5 9.5 11t20.5 8q52 8 83 10q12 0 14 23q4 73 4 321q0 15 -7 391q0 49 -17 50q-35 2 -89 10q-7 1 -16.5 6.5t-9.5 10.5q0 7 11 13.5t21 5.5q1 0 28 -0.5t43 -0.5q17 0 52 0.5t36 0.5q14 0 14 -33v-585
v-125t0.5 -83.5t0.5 -28.5q0 -13 -7 -18q-3 -3 -23 -3z" />
    <glyph glyph-name="asciicircum" unicode="^" horiz-adv-x="485" 
d="M243 626q12 0 33 -40l160 -304q6 -14 1 -20q-12 -11 -32.5 -18t-22.5 -1l-137 275q-6 9 -11 -1l-134 -271q-4 -8 -22.5 -0.5t-28.5 18.5q-6 6 1 20l156 299q22 43 37 43z" />
    <glyph glyph-name="underscore" unicode="_" horiz-adv-x="495" 
d="M0 -124h495v-49h-495v49z" />
    <glyph glyph-name="grave" unicode="`" 
d="M157 655q16 0 29 -35q27 -65 52 -145q10 -33 -5 -33q-14 0 -25 16q-41 52 -94 147q-8 16 -6 28q3 10 21 17q12 5 28 5z" />
    <glyph glyph-name="a" unicode="a" horiz-adv-x="418" 
d="M218 407q67 0 104 -54q22 -29 22 -86q0 -23 -2 -95t-2 -74q0 -19 11.5 -29.5t25.5 -10.5q5 0 35 12q3 2 6 -1q3 -6 3 -14q0 -17 -32.5 -42.5t-70.5 -25.5q-57 0 -75 48q-1 3 -4.5 4.5t-4.5 -0.5q-21 -15 -79 -42q-22 -8 -44 -8q-29 0 -53 30t-24 71q0 26 18 51
q8 12 36 24q10 4 37.5 12.5t60 17.5t38.5 11q18 6 18 15q1 8 2 38t0 39q-1 22 -18.5 43t-48.5 21q-22 0 -32 -7q-6 -3 -6 -46q0 -5 -4 -9q-5 -5 -44 -22.5t-44 -17.5q-4 0 -8.5 4.5t-4.5 9.5q0 42 84 96q25 16 56 26.5t44 10.5zM190 49q20 0 38 12q9 5 9 19q4 28 4 89
q0 10 -7 10q-13 0 -40 -9t-41 -17q-18 -13 -18 -40q0 -30 18.5 -47t36.5 -17z" />
    <glyph glyph-name="b" unicode="b" horiz-adv-x="516" 
d="M484 207q0 -105 -94 -175q-29 -22 -71 -33t-76 -11q-65 0 -134 21q-7 3 -21 -4q-10 -4 -13 -4t-7 4t-4 9q6 94 6 334q0 214 -3 237q-2 15 -21 31q-4 3 -8.5 6l-7.5 5t-5.5 4t-4 3t-2.5 2.5t-1 2.5q0 5 6 11t11 8q86 23 108 34q25 13 33 13q2 0 6.5 -6t4.5 -10
q-9 -213 -9 -231q0 -54 1 -76l4 -5q48 30 106 30q78 0 128 -44q68 -59 68 -156zM364 187q0 75 -43 126q-15 18 -41 30.5t-54 12.5q-21 0 -39 -8q-6 -4 -8 -11q-2 -30 -2 -56q0 -111 9 -174q3 -35 28 -57q26 -27 61 -27q19 0 49 30q40 48 40 134z" />
    <glyph glyph-name="c" unicode="c" horiz-adv-x="414" 
d="M273 402q25 0 55 -6t43 -16q17 -12 17 -36q0 -12 -16.5 -29.5t-22.5 -17.5q-17 0 -46 25q-3 2 -11 9t-11.5 9.5t-10 7.5t-11 7t-11 5t-12.5 4t-12 1q-22 0 -43 -22q-39 -41 -39 -122q0 -67 32 -105q39 -54 109 -54q43 0 96 33q4 3 8.5 0.5t4.5 -8.5q0 -15 -16 -31
q-27 -29 -68.5 -48t-85.5 -19q-52 0 -93 23t-64 57q-33 51 -33 116q0 109 100 174q26 18 68 30.5t73 12.5z" />
    <glyph glyph-name="d" unicode="d" horiz-adv-x="522" 
d="M274 405q39 0 55 -2q5 -1 8 9q3 26 2 96t-4 92q-3 25 -42 42q-14 6 -14 10t7 11t11 8q86 13 126 29q12 5 19 5q3 0 6.5 -6.5t2.5 -13.5q-9 -85 -9 -380q0 -136 3 -193q0 -70 17 -70q4 0 24 2t26 2t6 -8q0 -4 -8.5 -14.5t-12.5 -12.5q-86 -13 -106 -20q-33 -11 -44 -11
q-4 0 -8 5t-4 9q0 3 1 16.5t1 21.5q0 3 -2.5 5.5t-4.5 1.5q-57 -47 -123 -47q-69 0 -120 48q-55 51 -55 141q0 122 108 186q27 17 66.5 27.5t67.5 10.5zM238 369q-29 0 -59 -30q-37 -40 -37 -122q0 -66 39 -116.5t95 -50.5q30 0 48 15q3 2 8.5 19t5.5 28q3 118 -1 173
q-5 26 -18 40q-37 44 -81 44z" />
    <glyph glyph-name="e" unicode="e" horiz-adv-x="414" 
d="M241 407q65 0 107 -42q38 -36 38 -88q0 -6 -7 -15t-15 -9h-218q-9 0 -11 -7q-4 -11 -4 -36q0 -18 9 -46.5t22 -46.5q39 -50 111 -50q63 0 90 35q8 12 13 12q3 0 6 -4.5t3 -8.5q0 -12 -8 -25q-56 -87 -160 -87q-84 0 -134.5 57t-50.5 144q0 62 33.5 116t93.5 82
q40 19 82 19zM234 379q-31 0 -57.5 -25t-35.5 -60q-2 -10 7 -10h26.5h38.5h42q14 0 24.5 8.5t10.5 25.5q0 21 -17.5 41t-38.5 20z" />
    <glyph glyph-name="f" unicode="f" horiz-adv-x="304" 
d="M202 393q27 0 51 0.5t37 0.5h13q5 0 9.5 -15t4.5 -31q0 -2 -5.5 -6.5t-9.5 -4.5q-3 0 -47.5 1t-50.5 1q-2 0 -5 -4t-3 -7q-1 -16 0.5 -120t3.5 -128q2 -25 12 -35t46 -17q25 -6 25 -17q0 -14 -30 -14q-4 0 -34 1.5t-44 1.5q-36 0 -80 -2t-48 -2q-25 0 -25 14q0 3 6.5 8.5
t14.5 7.5q29 9 35 20.5t7 47.5q2 82 2 225q0 19 -8 19q-6 0 -21 -1t-22 -1q-3 0 -7 5.5t-3 10.5l52 41q10 9 10 14q0 82 33 145q34 73 96 114q53 37 114 39q39 1 69 -18q9 -6 17 -18.5t8 -23.5q0 -15 -11.5 -31.5t-24.5 -21.5q-10 -4 -21 -4q-12 0 -30 20q-46 46 -72 46
q-25 0 -39 -23q-32 -46 -32 -230q0 -2 3 -5t4 -3z" />
    <glyph glyph-name="g" unicode="g" horiz-adv-x="455" 
d="M225 411q43 0 95 -15q24 -7 27 -7q73 0 113 -7q10 -2 10 -12t-9 -24t-13 -14q-34 0 -58 2q-3 0 -5 -3t-1 -5q6 -24 6 -43q0 -81 -57 -125q-52 -38 -121 -38q-20 0 -40 2q-10 2 -14 -2q-19 -12 -19 -26q0 -13 13 -24.5t24 -12.5q183 -8 188 -9q27 -5 51 -24q43 -38 43 -92
t-31.5 -94.5t-71.5 -65.5q-70 -44 -152 -44q-74 0 -126 34q-53 37 -53 90q0 38 31 59q7 5 32 20.5t32 20.5q6 4 0 7q-26 9 -41 19q-39 27 -39 79q0 7 7 12q2 2 20 13t36 23.5t25 20.5q2 1 1.5 4.5t-3.5 5.5q-30 14 -55.5 46t-25.5 80q0 68 60 113q49 36 121 36zM215 383
q-25 0 -39 -21q-23 -29 -23 -85q0 -50 22.5 -89.5t57.5 -39.5q13 0 31 15q27 25 27 101q0 15 -6 41t-16 41q-24 37 -54 37zM248 -224q45 0 78 17q45 26 45 79q0 31 -17 49q-19 21 -56 26q-35 5 -104 5q-32 0 -48 -12q-30 -27 -30 -64q0 -43 35 -71q36 -29 97 -29z" />
    <glyph glyph-name="h" unicode="h" horiz-adv-x="525" 
d="M308 407q73 0 108 -48q28 -38 28 -110q0 -13 4 -180q1 -18 10 -27t30 -14q26 -6 26 -18q0 -14 -29 -14q-15 0 -42 2t-40 2q-19 0 -47 -1.5t-45 -1.5q-25 0 -25 13q0 10 21 16q17 5 23 14.5t8 35.5q2 22 2 167q0 61 -25 82q-25 22 -61 22q-38 0 -57 -14q-10 -8 -12 -34
q-2 -36 -2.5 -117.5t0.5 -99.5q1 -25 8.5 -36t25.5 -16q24 -6 24 -17q0 -14 -29 -14q-2 0 -15.5 0.5t-34 0.5h-41.5q-24 0 -52.5 -1.5t-33.5 -1.5q-25 0 -25 14q0 11 28 19q20 8 26.5 19t8.5 30q9 79 9 401q0 87 -3 107q-2 15 -7.5 22t-23.5 19q-4 2 -6 4q-10 5 -10 19
q0 7 7 7q103 24 130 40q11 7 17 7q3 0 6.5 -5t3.5 -8q-7 -48 -10 -177.5t-2 -153.5q0 -2 2.5 -4t4.5 -1q56 51 117 51z" />
    <glyph glyph-name="i" unicode="i" horiz-adv-x="272" 
d="M42 354q0 14 27 19q24 5 71.5 20.5t48.5 15.5q3 0 6.5 -4t3.5 -7q-5 -85 -5 -226q0 -31 2 -101q1 -21 9 -28t30 -14t22 -19q0 -13 -28 -13q-2 0 -36 1.5t-47 1.5q-18 0 -54 -2t-43 -2q-28 0 -28 13q0 10 26 18q33 10 37 29q6 21 6 156q0 78 -2 90q-1 8 -34 36
q-12 12 -12 16zM148 616q24 0 38.5 -20.5t14.5 -41.5q0 -24 -20 -42.5t-40 -18.5q-23 0 -40 17q-19 19 -19 44q0 27 16 44q20 18 50 18z" />
    <glyph glyph-name="j" unicode="j" horiz-adv-x="259" 
d="M29 354q0 7 17 12q79 20 118 42q11 6 18 6q3 0 7 -5t4 -8q0 -23 -1.5 -181t-2.5 -172q-3 -106 -42 -170q-39 -66 -88 -105q-18 -16 -39.5 -28t-27.5 -12q-15 0 -24 12q-2 1 -1 5.5t4 6.5q45 29 62 48q49 59 49 243q0 194 -3 241q-2 23 -39 48q-11 7 -11 17zM123 619
q34 0 50.5 -21.5t16.5 -40.5q0 -30 -20.5 -46t-41.5 -16q-17 0 -37 18t-21 43q-2 29 23 50q13 13 30 13z" />
    <glyph glyph-name="k" unicode="k" horiz-adv-x="505" 
d="M291 393h42q34 0 85 5.5t60 5.5t9 -8t-8 -15.5t-13 -8.5q-43 -10 -67 -21t-57 -35q-14 -10 -35 -30t-25 -27l-1 -7q13 -21 70 -94.5t81 -97.5q29 -26 61 -34q25 -8 25 -16q0 -16 -31 -16q-6 0 -59 3t-83 2l-48 -1q-26 0 -26 14q0 9 22 15q24 8 13 23q-15 21 -47 62.5
t-50 66.5q-15 20 -19 20q-3 0 -5 -9q-3 -8 -2.5 -59t3.5 -67q2 -11 4.5 -17t9.5 -11.5t21 -8.5q21 -6 21 -15q0 -15 -27 -15q-13 0 -48 1.5t-47 1.5q-20 0 -53.5 -2t-37.5 -2q-28 0 -28 13q0 9 29 18q23 7 31.5 16t10.5 29q7 133 7 307q0 165 -6 221q-2 11 -30 28
q-16 8 -16 21q0 6 16 10q82 18 118 38q18 9 21 9q2 0 6 -5t3 -8q-9 -52 -9 -372q0 -85 3 -95q1 -6 8 -6q3 0 16 11q21 18 58 55.5t52 55.5q1 3 2 7t-6 8.5t-23 7.5q-21 5 -21 14q0 5 6.5 9.5t13.5 4.5z" />
    <glyph glyph-name="l" unicode="l" horiz-adv-x="264" 
d="M33 646q0 10 18 17q9 2 32 8t35.5 9.5t30.5 11t32 16.5q2 1 7 -3t5 -7q-8 -96 -8 -387q0 -200 4 -240q2 -13 5 -20t12.5 -14t27.5 -12q21 -7 21 -17q0 -12 -27 -12q-13 0 -52 2t-47 2q-12 0 -47.5 -2t-45.5 -2q-29 0 -29 12q0 13 24 17q24 7 32 21.5t10 54.5q6 88 6 315
q0 29 -0.5 96t-0.5 79q0 9 -5.5 15t-21.5 19q-18 15 -18 21z" />
    <glyph glyph-name="m" unicode="m" horiz-adv-x="783" 
d="M47 347q0 4 6.5 10t12.5 8q56 18 108 46q5 2 9 0q9 -5 9 -13t-1.5 -23t-1.5 -20q0 -2 2.5 -5t4.5 -1q71 58 135 58q46 0 73 -20q15 -12 33 -40q2 -3 8 -3q39 26 73 43q29 15 58 15q52 0 86 -36q34 -33 38 -100q3 -41 5 -201q2 -30 35 -40q20 -6 20 -16q0 -13 -28 -13
q-9 0 -37.5 2t-42.5 2q-18 0 -45 -1.5t-37 -1.5q-25 0 -25 15q0 8 20 15q19 6 24.5 16t7.5 40q1 15 0 89.5t-1 80.5q0 32 -14 54q-21 34 -64 34q-36 0 -61 -20q-8 -6 -8 -31q0 -202 1 -213q2 -25 9.5 -34.5t32.5 -16.5q21 -6 21 -15q0 -14 -26 -14q-11 0 -44.5 1.5
t-45.5 1.5q-11 0 -41 -1t-41 -1q-29 0 -29 15q0 8 20 14q21 6 28.5 17t7.5 37l1 172q1 47 -12 63q-23 32 -65 32q-34 0 -61 -21q-9 -7 -9 -23q-1 -65 -1 -232q0 -31 35 -43q24 -8 24 -18q0 -5 -8.5 -9t-18.5 -4q-1 0 -17.5 0.5t-40 1t-40.5 0.5q-18 0 -46.5 -2t-37.5 -2
q-28 0 -28 13q0 10 25 17q25 6 32 17.5t10 46.5q5 68 5 193q0 17 -6 22q-36 36 -36 42z" />
    <glyph glyph-name="n" unicode="n" horiz-adv-x="534" 
d="M49 350q0 4 6.5 12t11.5 10q52 16 81 30q30 15 34 15q3 0 7 -6t4 -9q0 -6 -0.5 -23t-0.5 -21q0 -3 2 -4t4 -1h1q72 54 127 54q57 0 92 -40q36 -41 36 -121q0 -140 3 -182q3 -25 35 -34q26 -7 26 -18q0 -14 -29 -14q-11 0 -44 1t-47 1t-43.5 -1.5t-35.5 -1.5q-27 0 -27 14
q0 10 24 17q17 7 22.5 16.5t7.5 34.5q2 33 2 186q0 40 -22 60q-23 21 -57 21q-38 0 -66 -20q-7 -5 -10 -22q-1 -12 0 -123.5t2 -120.5q1 -12 7 -18t28 -13q17 -8 17 -17q0 -14 -28 -14q-9 0 -37.5 1t-39.5 1q-21 0 -54 -1.5t-39 -1.5q-27 0 -27 15q0 10 21 16q25 8 32 18
t9 38q5 50 5 211q0 15 -29 41q-11 11 -11 14z" />
    <glyph glyph-name="o" unicode="o" horiz-adv-x="504" 
d="M261 407q81 0 146 -58t65 -150q0 -58 -27.5 -103t-61.5 -67q-58 -41 -138 -41q-34 0 -72 14.5t-66 37.5q-33 27 -54 69.5t-21 84.5q0 97 69 155q67 58 160 58zM242 374q-26 0 -49 -22q-41 -37 -41 -131q0 -59 12 -96q15 -50 45.5 -77t63.5 -27q22 0 44 25q37 48 37 137
q0 94 -40 151q-31 40 -72 40z" />
    <glyph glyph-name="p" unicode="p" horiz-adv-x="514" 
d="M319 405q29 0 60.5 -16t52.5 -40q49 -56 49 -131q0 -107 -86 -174q-65 -51 -154 -51q-31 0 -49 3q-3 1 -5.5 -4.5t-2.5 -9.5q-2 -102 4 -148q3 -23 11.5 -34.5t36.5 -19.5q27 -8 27 -21q0 -14 -28 -14q-13 0 -63.5 2.5t-69.5 2.5q-10 0 -33.5 -1.5t-47.5 -1.5
q-29 0 -29 16q0 11 26 18q35 7 44 21.5t11 59.5q4 70 4 213q0 198 -1 217q-1 23 -8 28q-37 30 -37 36q0 4 6.5 12t14.5 11q73 22 102 39q15 9 20 9q3 0 7.5 -5t4.5 -9q0 -1 -3 -47q0 -3 3 -5.5t5 -1.5q28 19 59 32q34 14 69 14zM250 346q-31 0 -53 -12q-9 -10 -11 -26
q-8 -62 -4 -178q0 -28 10 -46q15 -26 39.5 -41.5t42.5 -15.5t33 12q34 24 47.5 73t13.5 78q0 72 -42 119q-15 17 -38 27t-38 10z" />
    <glyph glyph-name="q" unicode="q" horiz-adv-x="511" 
d="M267 407q52 0 86 -10q30 -10 34 -10q8 0 23 13q19 19 34 19q10 0 7 -17q-10 -64 -10 -363q0 -135 3 -200q1 -28 10 -38.5t42 -16.5q23 -6 23 -16q0 -16 -28 -16q-53 0 -133 -6l-81 -5q-31 0 -31 13q0 11 24 18q28 7 43 18.5t17 19.5t3 23q5 70 5 177q0 4 -1.5 6.5
t-4.5 1.5q-60 -30 -105 -30q-87 0 -143 56q-24 24 -38 63t-14 77q0 118 101 185q24 15 63.5 26.5t70.5 11.5zM240 373q-23 0 -44 -18q-47 -39 -47 -141q0 -88 52 -143q35 -34 90 -34q19 0 36 11q11 6 11 32q0 149 -8 196q-6 39 -18 56q-12 19 -34 30t-38 11z" />
    <glyph glyph-name="r" unicode="r" horiz-adv-x="359" 
d="M44 348q0 15 13 19q80 25 101 38q19 12 24 12q4 0 8 -4.5t4 -7.5q0 -9 -1.5 -27.5t-1.5 -28.5q0 -2 3 -4t5 0q25 26 54.5 44t51.5 18q29 0 43.5 -13.5t14.5 -27.5q0 -6 -6 -16q-10 -16 -27 -37t-22 -22q-14 0 -18 4q-10 9 -30 18.5t-33 9.5q-18 0 -25 -6q-9 -7 -9 -20
q0 -119 6 -209q3 -48 23 -52q10 -2 43 -13q20 -6 20 -16q0 -12 -28 -12q-11 0 -59.5 2.5t-81.5 2.5q-10 0 -32 -1.5t-34 -1.5q-24 0 -24 14q0 6 23 15q26 9 32 23t7 61v165q0 31 -8 38q-36 29 -36 35z" />
    <glyph glyph-name="s" unicode="s" horiz-adv-x="347" 
d="M196 407q31 0 57 -6q20 -3 36 -11q8 -6 9 -17q4 -28 4 -64q0 -7 -5 -14t-10 -7q-9 0 -22 24q-34 65 -83 65q-19 0 -34.5 -16t-15.5 -35q0 -17 13 -33t28.5 -25.5t46.5 -27.5q60 -32 79 -60t19 -66q0 -61 -63 -101q-15 -10 -46.5 -17.5t-54.5 -7.5q-74 0 -101 23
q-4 5 -11.5 32t-7.5 50t10 23q11 0 24 -23q23 -39 49 -57t48 -18q21 0 40 13q20 16 20 45q0 30 -40 55q-54 34 -69 43q-70 44 -70 112q0 29 16.5 56t46.5 44q38 21 87 21z" />
    <glyph glyph-name="t" unicode="t" horiz-adv-x="331" 
d="M190 393q10 0 35.5 0.5t47.5 1.5t23 1q4 0 9.5 -3t5.5 -8l3 -40v-1q0 -12 -26 -12h-95q-10 0 -10 -7q0 -24 -0.5 -97.5t-0.5 -104.5q0 -32 16 -47q19 -17 49 -17q18 0 44 14q11 7 17 7q7 0 7 -16q0 -10 -16 -29q-45 -47 -114 -47q-29 0 -54.5 12.5t-38.5 30.5
q-18 24 -18 71q0 19 2 109.5t2 107.5q0 8 -38 22q-12 5 -12 17q0 5 5 9q77 51 105 80q19 22 23 22q5 0 12.5 -6t7.5 -11v-50q0 -2 3 -5.5t6 -3.5z" />
    <glyph glyph-name="u" unicode="u" horiz-adv-x="513" 
d="M256 51q32 0 61 24q3 2 6.5 11t3.5 12l1 224q0 15 -17 23q-5 2 -40 15q-16 5 -16 18q0 3 5.5 6.5t11.5 3.5q69 0 132 13q20 4 24 4q10 0 10 -16q-5 -90 -5 -322q0 -18 13 -18q3 0 20 3.5t25 3.5q3 0 12 -26q1 -2 -4 -6.5t-8 -4.5q-30 -2 -102 -21q-44 -13 -52 -13
q-3 0 -7 4.5t-4 9.5q0 7 2 41q0 2 -1 4.5t-2.5 3t-2.5 -0.5q-51 -37 -70 -44q-32 -15 -64 -15q-67 0 -102 53q-11 16 -11 53q0 141 -3 221q0 14 -6 22.5t-11 11.5t-17 8q-18 8 -18 21q0 11 16 11q12 0 45.5 2.5t62.5 5.5t30 3q3 0 5.5 -5.5t2.5 -9.5q1 -51 0.5 -94
t-1 -103.5t-0.5 -74.5q0 -26 19 -43q25 -19 56 -19z" />
    <glyph glyph-name="v" unicode="v" horiz-adv-x="424" 
d="M-12 386q0 4 9 8t19 4q6 0 52 -2.5t52 -2.5q15 0 40 1.5t30 1.5q24 0 24 -12q0 -13 -24 -19q-18 -4 -21 -12.5t3 -21.5q15 -46 41.5 -107t34.5 -74q4 -6 8 2q8 14 34 80t34 90q6 19 -1 29t-30 17q-20 7 -20 16q0 12 25 12q5 0 25 -1.5t30 -1.5t33.5 2.5t33.5 2.5
q23 0 23 -11t-23 -19q-32 -11 -54 -48q-29 -55 -81 -181q-29 -71 -49 -131q-4 -11 -12.5 -18.5t-15.5 -7.5q-8 0 -15 18q-18 55 -39 105q-63 161 -99 223q-17 31 -43 39q-24 10 -24 19z" />
    <glyph glyph-name="w" unicode="w" horiz-adv-x="658" 
d="M111 393q13 0 36 1.5t32 1.5q25 0 25 -12q0 -10 -23 -17q-25 -6 -15 -33q10 -28 40.5 -106t36.5 -91q5 -7 9 -1q36 75 55 120q3 7 3 17q-7 26 -22 59q-16 28 -37 36q-22 7 -22 19q0 10 25 10q6 0 35 -2t43 -2q8 0 40.5 2t44.5 2q23 0 23 -11q0 -12 -20 -17
q-28 -8 -28 -22q0 -9 8 -28q2 -3 33.5 -82t40.5 -99q3 -6 8 0q7 16 25 62.5t25 63.5q21 56 21 73q0 21 -41 31q-24 7 -24 17q0 12 24 12q5 0 29 -2t36 -2q17 0 43 2.5t33 2.5q22 0 22 -10q0 -12 -29 -19q-27 -9 -49 -47q-27 -51 -98 -216q-9 -23 -23 -58.5t-17 -42.5
q-6 -19 -15 -19q-11 0 -27 19q-1 2 -11 31t-16 43q-7 16 -26.5 64.5t-31.5 75.5q-2 2 -7 0q-55 -107 -88 -187q-19 -48 -31 -48q-14 0 -19 15q-1 2 -5.5 14.5t-11 30.5t-10.5 29q-7 19 -46.5 113.5t-54.5 124.5q-9 20 -13.5 27.5t-14 16.5t-23.5 13q-24 6 -24 15q0 14 29 14
q9 0 47.5 -2t50.5 -2z" />
    <glyph glyph-name="x" unicode="x" horiz-adv-x="434" 
d="M9 386q0 13 28 13q7 0 46 -3t63 -3q12 0 32.5 1t28.5 1q22 0 22 -12q0 -11 -18 -17q-17 -7 -17 -18q0 -6 18 -36.5t31 -48.5q1 -2 3 -2t3 2q34 42 49 70q15 23 -9 30q-29 10 -29 20q0 12 20 12q5 0 25.5 -1t30.5 -1q14 0 43 2.5t37 2.5q22 0 22 -11q0 -9 -19 -16
q-53 -13 -85 -50q-27 -30 -69 -84q-3 -5 -1 -7q15 -35 89 -151q29 -40 69 -51q25 -6 25 -17q0 -15 -25 -15q-6 0 -57.5 2t-67.5 2q-10 0 -31 -1.5t-32 -1.5q-8 0 -15 4.5t-7 9.5q0 11 22 17q16 4 18.5 10t-7.5 28q-39 67 -46 77q-3 5 -7 1q-57 -70 -57 -89t32 -31
q14 -4 14 -15t-22 -11q-12 0 -26 1t-21 1q-19 0 -46.5 -2t-38.5 -2q-31 0 -31 12q0 10 24 18q38 10 72 42q29 30 84 105q3 4 -1 11q-11 30 -74 129q-29 44 -64 53q-28 9 -28 20z" />
    <glyph glyph-name="y" unicode="y" horiz-adv-x="426" 
d="M-13 385q0 4 6.5 8t17.5 4q18 0 51.5 -2t47.5 -2q17 0 46.5 1t34.5 1q24 0 24 -12q0 -11 -24 -19q-20 -6 -23 -13.5t4 -26.5q10 -34 37.5 -99.5t39.5 -89.5q5 -7 10 3q60 145 72 181q5 18 -3 29t-35 18q-21 6 -21 16q0 13 25 13q10 0 31.5 -1t27.5 -1t31 2t39 2
q21 0 21 -12q0 -11 -24 -18q-28 -8 -52 -49q-35 -74 -113 -268q-85 -215 -108 -272q-6 -15 -23.5 -24.5t-33.5 -9.5q-26 0 -39.5 17t-13.5 38q0 15 12 32t33 17q2 0 21 -0.5t25 -0.5q11 0 18 17q12 21 44 113q4 15 1 21q-6 11 -17 43q-72 180 -123 287q-9 17 -16.5 24
t-27.5 13q-23 8 -23 20z" />
    <glyph glyph-name="z" unicode="z" horiz-adv-x="401" 
d="M209 393q42 0 88 2t51 2q8 0 15 -5q6 -4 1 -14q-2 -3 -50 -78q-15 -23 -72 -123.5t-71 -124.5q-2 -3 -0.5 -6t4.5 -4q16 -7 103 -7q15 0 25 13q26 26 53 61q15 22 23 22q6 0 8.5 -7t1.5 -13q-1 -11 -14.5 -49t-16.5 -54q-1 -4 -6 -9t-9 -5q-1 0 -43.5 1.5t-93 3
t-71.5 1.5q-19 0 -38 -1t-36 -2.5t-24 -1.5q-3 0 -7.5 5t-4.5 11q0 7 64 103q13 19 36 59.5t52.5 92.5t45.5 80q6 8 -1 10q-40 5 -107 5q-7 0 -27 -21t-35 -46q-13 -17 -18 -17t-8.5 6.5t-2.5 13.5q2 17 8 35q9 30 9 67q0 6 5 10q7 5 13 3q27 -19 55 -19h95z" />
    <glyph glyph-name="braceleft" unicode="{" horiz-adv-x="345" 
d="M38 296q50 11 74 37.5t24 56.5q0 19 -12.5 87t-12.5 79q0 69 60 120q61 43 122 43q20 0 20 -12q0 -3 -4.5 -8.5t-7.5 -7.5q-2 -1 -8.5 -3.5t-15.5 -5.5t-14 -5q-68 -21 -68 -112q0 -20 13 -76t13 -82q0 -70 -119 -119q-10 -5 -1 -9q61 -25 91 -58t30 -81q0 -29 -23 -127
q-8 -31 -8 -57q0 -78 100 -105q15 -2 15 -8q0 -9 -9 -15t-17 -6q-82 0 -127 45t-45 119q0 19 11 78.5t11 82.5q0 48 -16 71t-57 36q-14 5 -22 15.5t-8 17.5q0 5 11 9z" />
    <glyph glyph-name="bar" unicode="|" horiz-adv-x="271" 
d="M99 743h73v-991h-73v991z" />
    <glyph glyph-name="braceright" unicode="}" horiz-adv-x="345" 
d="M304 265q-50 -10 -73.5 -40t-23.5 -62q0 -27 11.5 -99t11.5 -81q0 -70 -61 -120q-56 -41 -120 -41q-18 0 -18 12q0 8 11 13q11 7 39 16q65 21 65 112q0 19 -12 78t-12 92q0 42 33.5 76.5t84.5 51.5q11 4 1 9q-62 26 -90 56.5t-28 78.5q0 21 19 107q8 30 8 56
q0 79 -101 109q-4 1 -9 5t-5 6q0 8 9 13.5t16 5.5q82 0 127.5 -46t45.5 -120q0 -20 -9 -71.5t-9 -67.5q0 -48 14.5 -71.5t54.5 -36.5q15 -5 23 -14.5t8 -15.5t-11 -11z" />
    <glyph glyph-name="asciitilde" unicode="~" horiz-adv-x="624" 
d="M214 347q33 0 74.5 -29t76.5 -57.5t53 -28.5q26 0 45 21.5t46 83.5q4 9 11 9q13 0 28.5 -9t12.5 -19q-52 -152 -149 -152q-36 0 -75 29t-73.5 57.5t-57.5 28.5q-48 0 -88 -100q-5 -15 -13 -15q-9 0 -27 8.5t-15 17.5q50 155 151 155z" />
    <glyph glyph-name="uni00A0" unicode="&#xa0;" horiz-adv-x="193" 
 />
    <glyph glyph-name="exclamdown" unicode="&#xa1;" horiz-adv-x="282" 
d="M127 -158q-25 0 -42 19.5t-22.5 42t-4.5 40.5q3 34 20 133t29 151q2 11 9 22t17 11q6 0 12.5 -9t9.5 -25q2 -10 14 -75t21 -119.5t11 -84.5q4 -50 -20 -78t-54 -28zM132 315q-31 0 -52 23t-21 51q0 31 21.5 54t52.5 23q30 0 50.5 -21.5t20.5 -54.5q0 -32 -22 -53.5
t-50 -21.5z" />
    <glyph glyph-name="cent" unicode="&#xa2;" horiz-adv-x="497" 
d="M167 336q0 -54 23.5 -96t59.5 -60q7 -2 7 6l29 299q0 6 -5 6q-49 0 -81.5 -49t-32.5 -106zM61 293q0 121 107 191q41 27 115 41q8 2 8 6l7 68q0 7 6 7t17 -2.5t11 -5.5l-6 -65q0 -6 5 -7q58 -3 92 -27q16 -13 16 -29q0 -11 -13 -24t-25 -13q-6 0 -12.5 4t-17.5 14t-18 16
q-23 15 -28 16q-2 1 -3.5 -1t-1.5 -4l-29 -304q0 -7 5 -8q14 -3 22 -3q28 0 59 14t45 26q11 5 11 -5q0 -20 -14 -34q-43 -51 -130 -64q-7 0 -7 -6l-7 -76q-1 -2 -11.5 -5t-14.5 -3q-10 0 -10 7l8 76q2 8 -6 8q-99 14 -148 85q-32 50 -32 107z" />
    <glyph glyph-name="sterling" unicode="&#xa3;" horiz-adv-x="497" 
d="M353 625q47 0 74 -21t29 -54q1 -23 -18 -42.5t-39 -19.5q-4 0 -8.5 3t-4.5 6q0 4 0.5 12t0.5 10q1 31 -12 55t-32 24q-34 0 -56 -62.5t-37 -196.5q0 -7 7 -7l112 6q9 0 8 -15q0 -6 -3.5 -13t-6.5 -7l-116 -9q-8 -3 -11 -13q-23 -99 -80 -152q-3 -5 2 -7q42 0 97 -24
q13 -6 40 -22t46 -25t33 -9q28 0 39.5 12.5t12.5 38.5q0 26 -6 58q-1 4 2.5 7.5t7.5 3.5q18 0 31 -13t12 -38q-2 -46 -61 -98t-117 -52q-31 0 -55.5 16t-71.5 58q-33 29 -56 29q-4 0 -25 -23q-54 -57 -77 -57q-11 0 -18.5 8t-6.5 18q0 25 27.5 55.5t63.5 47.5q11 5 16 13
q22 29 30 154q0 7 -5 7l-59 -3q-2 0 -5 5t-2 9q0 18 9 20l60 6q2 0 4.5 3.5t2.5 5.5q11 95 36.5 156t76.5 99q17 14 47 25.5t62 11.5z" />
    <glyph glyph-name="currency" unicode="&#xa4;" horiz-adv-x="497" 
d="M466 470l-52 -59q-2 -5 0 -11q31 -51 31 -108q0 -56 -33 -103q-4 -5 -2 -7l55 -64q4 -3 1.5 -14.5t-12.5 -20.5q-5 -6 -14.5 -9.5t-13.5 0.5l-63 60q-3 3 -10 -1q-48 -32 -89 -32q-49 0 -93 27q-5 3 -12 -1l-55 -56q-9 -9 -30 9q-7 8 -10 17t-2.5 14t1.5 7l49 54
q3 7 0 11q-30 51 -30 108q0 53 31 102q1 1 1.5 5.5t-1.5 7.5l-53 63q-4 5 2 17t12 18q20 20 31 10l52 -56q8 -8 15 -3q43 26 92 26q48 0 96 -28q6 -3 9 1l52 57q11 11 34 -10q20 -17 11 -31zM264 417q-53 0 -87.5 -35.5t-34.5 -90.5t36 -89.5t86 -34.5q49 0 85.5 35t36.5 89
q0 51 -38.5 88.5t-83.5 37.5z" />
    <glyph glyph-name="yen" unicode="&#xa5;" horiz-adv-x="497" 
d="M0 605q0 12 25 12q6 0 40.5 -2t48.5 -2q16 0 55 1t47 1q24 0 24 -12t-24 -19q-16 -5 -19 -12.5t4 -23.5q5 -11 35.5 -74.5t46.5 -99.5q1 -2 4 -2t5 3q19 35 60 125q22 47 22 63q0 15 -33 23q-22 6 -22 18q0 11 26 11q10 0 31.5 -1t30.5 -1q13 -1 35 1.5t32 2.5
q24 0 24 -12q0 -13 -21 -17q-28 -9 -42.5 -23t-35.5 -51q-38 -64 -89 -171q-3 -8 3 -8l96 -1q5 0 5 -10q0 -8 -3 -15.5t-7 -7.5h-97q-6 0 -6 -6v-59q0 -8 7 -8h98q6 0 6 -12q0 -8 -3 -15t-7 -7h-95q-6 0 -6 -11v-24q0 -74 4.5 -94.5t22.5 -27.5q13 -5 31 -10q19 -5 19 -15
q0 -4 -7.5 -9t-16.5 -5q-10 0 -47.5 1t-55.5 1q-15 0 -54 -2t-53 -2q-25 0 -25 12q0 14 24 18q29 7 36 21.5t10 63.5q2 27 2 73q0 10 -7 10h-95q-6 0 -6 11q0 23 9 23h92q7 0 7 8v54q0 11 -10 11h-89q-6 0 -6 11q0 7 3 15t7 8h82q3 0 4 4t0 7q-44 94 -103 192
q-15 24 -24 32.5t-31 14.5q-24 6 -24 20z" />
    <glyph glyph-name="brokenbar" unicode="&#xa6;" horiz-adv-x="271" 
d="M99 -173v346h73v-346h-73zM99 668h73v-346h-73v346z" />
    <glyph glyph-name="section" unicode="&#xa7;" horiz-adv-x="460" 
d="M288 631q26 0 52 -16q13 -10 13 -23q0 -9 -11 -24.5t-18 -20.5q-3 -2 -13.5 -2.5t-15.5 1.5q-4 2 -20.5 12t-28.5 15.5t-22 5.5q-23 0 -34 -15.5t-11 -33.5q0 -8 4 -18.5t12.5 -22.5t15.5 -21t20.5 -23.5t20 -21t21.5 -20.5t17 -16q120 -114 120 -217q0 -64 -22.5 -120
t-50.5 -90q-62 -79 -137 -107q-26 -8 -49 -8q-24 0 -40 8t-21 16t-5 15q0 8 15.5 26t34.5 28q7 5 24 -5q12 -10 34 -18t35 -8q19 0 32 12.5t13 36.5q0 20 -33 60.5t-70 72.5q-70 64 -104 129q-20 40 -20 99q0 82 69 174q11 49 57 91q54 50 116 49zM359 91q0 83 -113 205
q-7 8 -29.5 31t-31.5 32.5t-24 26.5t-24 30t-15 25q-2 4 -6 0q-15 -36 -15 -66q0 -83 109 -188q104 -97 127 -166q0 -2 1 -3q2 -1 3 2q1 1 1 2q17 28 17 69z" />
    <glyph glyph-name="dieresis" unicode="&#xa8;" 
d="M109 605q22 0 36.5 -18.5t14.5 -39.5q0 -25 -18 -40t-39 -15q-20 0 -36 14.5t-16 41.5q0 22 16.5 39.5t41.5 17.5zM298 605q22 0 36.5 -18.5t14.5 -39.5q0 -23 -18.5 -39t-38.5 -16t-36.5 15t-16.5 41q0 22 17.5 39.5t41.5 17.5z" />
    <glyph glyph-name="copyright" unicode="&#xa9;" horiz-adv-x="705" 
d="M353 632q132 0 221.5 -92t89.5 -223q0 -128 -90 -222t-221 -94q-137 0 -224.5 92.5t-87.5 223.5q0 130 91.5 222.5t220.5 92.5zM353 601q-116 0 -195.5 -82t-79.5 -201q0 -116 82.5 -201t192.5 -85q114 0 193.5 84t79.5 202q0 119 -79.5 201t-193.5 82zM375 497
q35 0 63 -7q5 -1 23 -5t26 -5q8 -8 9 -24q1 -14 1 -45q0 -22 -11 -22q-7 0 -15 19q-10 28 -36 45.5t-55 17.5q-49 0 -80 -41.5t-31 -95.5q0 -79 38 -119t78 -40q57 0 92 59q14 24 24 24q7 0 7 -15q-4 -36 -18 -62q-9 -16 -24 -21q-30 -15 -93 -15q-48 0 -89.5 17.5
t-63.5 42.5q-44 50 -44 118q0 43 18.5 76.5t41.5 50.5q55 47 139 47z" />
    <glyph glyph-name="ordfeminine" unicode="&#xaa;" horiz-adv-x="293" 
d="M154 535q39 0 62 -25.5t23 -66.5q0 -47 -3 -91q-1 -15 7 -23t17 -8q14 0 24 7q3 2 5 -4q1 -3 1 -8q0 -8 -6 -17q-27 -32 -65 -32t-52 31q-4 6 -8 3q-48 -34 -74 -34q-22 0 -41 19.5t-19 46.5q0 36 42 52l19.5 6.5t38 12.5t33.5 11q5 2 7 9q1 7 1 29q0 20 -13 33.5
t-31 13.5q-13 0 -23 -5q-4 -2 -7 -37q0 -2 -7 -7q-2 0 -21.5 -8t-25.5 -10q-4 -1 -8.5 1.5t-4.5 8.5q0 11 14 29.5t33 30.5q45 32 82 32zM100 345q0 -12 9.5 -21.5t21.5 -9.5q11 0 24 9q7 6 7 12q1 6 1 49q0 8 -7 5q-56 -16 -56 -44z" />
    <glyph glyph-name="guillemotleft" unicode="&#xab;" horiz-adv-x="685" 
d="M103 179q-8 4 -9 13t3 11q131 72 224 149q27 23 39 23q4 0 6.5 -3.5t1 -10t-6.5 -14.5q-9 -14 -30 -36t-37 -37t-44.5 -40t-31.5 -28q-10 -9 -3 -16q109 -100 143 -150q6 -8 7 -18.5t-9 -12.5q-14 0 -25 10q-89 81 -228 160zM328 179q-8 5 -9 13.5t3 10.5q137 77 223 149
q27 23 39 23q4 0 6.5 -3.5t1 -10t-6.5 -14.5q-31 -47 -144 -143q-8 -6 -2 -14q109 -95 144 -151q5 -7 4.5 -18t-6.5 -12q-11 0 -23 10q-86 77 -230 160z" />
    <glyph glyph-name="logicalnot" unicode="&#xac;" horiz-adv-x="624" 
d="M75 349h460q12 0 12 -21l-1 -278q0 -7 -18.5 -11.5t-33.5 -4.5q-12 0 -12 12l-2 218q0 25 -17 25h-382q-14 0 -17.5 2.5t-3.5 12.5q0 12 4.5 28.5t10.5 16.5z" />
    <glyph glyph-name="uni00AD" unicode="&#xad;" horiz-adv-x="311" 
d="M59 234q23 5 103 13.5t99 9.5q4 0 8 -3.5t4 -7.5q1 -19 -5.5 -41t-16.5 -23q-137 -11 -196 -17q-6 -1 -11 5t-5 11q0 16 6.5 34t13.5 19z" />
    <glyph glyph-name="registered" unicode="&#xae;" horiz-adv-x="242" 
d="M97 504v52q0 15 -11 19q-6 2 -7 4.5t1 3.5t5 2q31 3 50 3q20 0 32.5 -8.5t12.5 -22.5q0 -13 -19 -22q-2 -2 -1 -4q22 -38 33 -46q7 -3 7 -6q0 -5 -15 -5q-19 0 -28 15q-8 12 -18 30q-1 4 -9 4q-7 0 -7 -4v-11q0 -12 2 -14.5t14 -7.5q3 -1 4.5 -3.5t0 -4t-4.5 -1.5h-28
h-26q-4 0 -5 3.5t3 4.5q14 6 14 19zM123 571v-31q0 -4 9 -4q19 0 19 18q0 22 -18 22q-10 0 -10 -5zM133 644q48 0 80.5 -33t32.5 -81q0 -44 -31 -80t-84 -36q-48 0 -80 33.5t-32 82.5q0 46 33 80t81 34zM133 625q-39 1 -65.5 -26.5t-26.5 -68.5q0 -40 26.5 -67.5t65.5 -27.5
q40 0 65.5 27t25.5 68q0 40 -27 67.5t-64 27.5z" />
    <glyph glyph-name="macron" unicode="&#xaf;" 
d="M98 571l212 3q7 0 7 -25q0 -15 -6.5 -28t-11.5 -13l-207 -1q-2 0 -5 5.5t-3 11.5q0 10 3 21.5t6 18.5t5 7z" />
    <glyph glyph-name="degree" unicode="&#xb0;" horiz-adv-x="294" 
d="M150 636q47 0 81 -33t34 -86q0 -52 -35.5 -85.5t-83.5 -33.5t-83 32t-35 87q0 52 36.5 85.5t85.5 33.5zM144 597q-29 0 -47.5 -24t-18.5 -56q0 -36 21.5 -58t53.5 -22q26 0 44 22t18 58q0 34 -19.5 57t-51.5 23z" />
    <glyph glyph-name="plusminus" unicode="&#xb1;" horiz-adv-x="624" 
d="M279 545q0 5 19 10t32 5q10 0 12.5 -3t2.5 -17v-185q0 -12 9 -12h194q9 0 12 -2.5t3 -9.5q0 -18 -4.5 -33t-9.5 -15l-194 -1q-10 0 -10 -13l-1 -186q0 -11 -17.5 -16t-34.5 -5q-12 0 -12 15l-1 188q0 17 -11 17l-194 1q-14 0 -14 15q0 12 4.5 28.5t10.5 16.5h196
q8 0 8 11v191zM548 10q9 0 12 -2.5t3 -9.5q0 -18 -4.5 -33t-9.5 -15h-468q-14 0 -17.5 2.5t-3.5 12.5q0 12 4.5 28.5t10.5 16.5h473z" />
    <glyph glyph-name="two.superior" unicode="&#xb2;" horiz-adv-x="311" 
d="M148 765q46 0 76 -28t30 -73q0 -36 -49 -88q-14 -15 -27.5 -28t-30 -27t-26.5 -23q-3 -4 -1 -6t4 -2h36.5h50.5h23q13 0 35 29q10 12 15 12q6 0 9 -9t0 -16q-19 -39 -28 -82q-2 -6 -9 -6h-21q-21 1 -46 1.5t-50.5 0.5h-35.5h-58q-4 0 -11 5.5t-7 8.5q0 8 8 14
q48 43 94 96q38 44 38 95q0 28 -15.5 44.5t-39.5 16.5q-37 0 -61 -26q-10 -10 -19 -10q-8 0 -8 13q0 12 11 24q49 64 113 64z" />
    <glyph glyph-name="three.superior" unicode="&#xb3;" horiz-adv-x="311" 
d="M154 766q41 0 65.5 -22t24.5 -48q0 -23 -15 -38t-44 -31q-2 -1 -1.5 -3t2.5 -3q87 -12 87 -77q0 -77 -103 -121q-37 -18 -79 -18q-21 0 -40.5 11.5t-19.5 25.5q0 26 27 37q6 3 13 -4q42 -33 72 -33q20 0 34 19.5t14 45.5q0 30 -16 50.5t-46 20.5q-4 0 -9.5 -1t-13.5 -2.5
t-12 -2.5q-10 -2 -10 4q0 9 2 13q8 11 26 20q31 13 42.5 24.5t11.5 34.5q0 18 -13.5 32t-31.5 14q-26 0 -54 -26q-5 -5 -9 -7.5t-6 -2t-3 2.5q-2 2 -4 8t-1 8q14 26 43.5 47.5t66.5 21.5z" />
    <glyph glyph-name="acute" unicode="&#xb4;" 
d="M246 634q2 6 11 12t18 6q41 0 43 -15q2 -13 -7 -28q-14 -27 -49.5 -79t-51.5 -70q-16 -16 -27 -16q-14 0 -4 31q23 71 67 159z" />
    <glyph glyph-name="mu" unicode="&#xb5;" horiz-adv-x="485" 
d="M104 412q34 0 65 -21q10 -7 10 -33q0 -11 -26 -112q-24 -95 -27 -104q-4 -20 1 -35q4 -11 15.5 -19t22.5 -8q31 0 70.5 41t58.5 90q6 17 8 35q11 132 12 135q2 11 7.5 21.5t10.5 10.5q24 0 47 -9.5t32 -18.5q10 -10 7 -45q-4 -34 -27.5 -96.5t-41.5 -93.5q-5 -8 -3 -21
q1 -26 19 -36.5t38 -10.5q34 0 73 29q4 8 11 -3q2 -3 3 -8q2 -5 -2 -27.5t-9 -31.5q-33 -61 -82 -61q-34 0 -52.5 26.5t-23.5 84.5q0 2 -3.5 3t-5.5 -2q-39 -60 -65.5 -83.5t-55.5 -23.5q-43 0 -79 68q-4 9 -7 -6l-2 -12q-6 -101 2 -139q7 -29 34 -58t43 -38q6 -6 -1 -25
q-3 -7 -14.5 -18t-21.5 -17q-17 -10 -36 -10t-37 30q-10 17 -10 128q0 53 6 203q0 15 -1 51q-1 12 -2 111.5t0 131.5q2 17 13 22q10 5 26 5z" />
    <glyph glyph-name="paragraph" unicode="&#xb6;" horiz-adv-x="555" 
d="M471 619h36q8 0 13 -8.5t5 -14.5q0 -5 -3.5 -10.5t-7.5 -5.5h-105q-4 0 -7.5 -10t-3.5 -22v-268t0.5 -219t0.5 -86q0 -236 -145 -236q-43 0 -73.5 27.5t-30.5 69.5t25 66t59 24q20 0 35.5 -15t15.5 -32q0 -22 -14.5 -38t-23.5 -16q-15 0 -25 6q-8 7 -14 7q-11 0 -11 -14
q0 -24 19.5 -38.5t45.5 -14.5q94 0 96 170q1 126 -3 166q-2 12 -10 12q-129 1 -214 64t-85 184q0 97 73 172q30 30 77 48.5t85 23.5q120 8 190 8z" />
    <glyph glyph-name="periodcentered" unicode="&#xb7;" horiz-adv-x="240" 
d="M123 266q35 0 53 -26.5t18 -50.5q-1 -34 -23 -53t-50 -19q-27 0 -49 18.5t-22 56.5q0 37 24.5 55.5t48.5 18.5z" />
    <glyph glyph-name="cedilla" unicode="&#xb8;" 
d="M278 -140q0 -23 -19 -47t-41 -39q-44 -30 -68 -30q-13 0 -22 13q-4 7 -2.5 17.5t6.5 16.5q5 8 15 8q27 -5 36 -5q16 0 25.5 11t9.5 26q0 20 -17.5 32.5t-41.5 12.5q-9 0 -15 -1q-4 0 -11.5 8t-7.5 12t8 13q22 23 82 97h34q-27 -35 -37 -49q-5 -8 5 -14q61 -30 61 -82z
" />
    <glyph glyph-name="one.superior" unicode="&#xb9;" horiz-adv-x="311" 
d="M207 758q0 -2 -0.5 -10.5t-1 -27.5t-0.5 -41q-1 -62 1 -182q0 -26 6.5 -34t34.5 -16q19 -4 19 -16q0 -13 -22 -13q-3 0 -37.5 1t-47.5 1q-23 0 -51 -1l-27 -1q-28 0 -28 14q0 13 28 18q20 4 27 12t9 24q4 28 4 127q0 45 -2 73q0 13 -10 16q-6 2 -15 4.5t-12 3.5
q-22 4 -22 15q0 9 21 12q67 5 116 28q4 2 7 -0.5t3 -6.5z" />
    <glyph glyph-name="ordmasculine" unicode="&#xba;" horiz-adv-x="335" 
d="M166 535q65 0 105 -38.5t40 -95.5q0 -54 -40 -94t-104 -40q-62 0 -102.5 39t-40.5 95q0 57 42.5 95.5t99.5 38.5zM162 509q-27 0 -39.5 -31t-12.5 -69q0 -46 18.5 -80t46.5 -34q50 0 50 103q0 43 -19 77t-44 34z" />
    <glyph glyph-name="guillemotright" unicode="&#xbb;" horiz-adv-x="685" 
d="M582 204q8 -4 9 -12.5t-3 -10.5q-135 -76 -224 -150q-26 -22 -39 -22q-4 0 -6 3.5t-0.5 9.5t6.5 14q25 40 143 141q9 9 2 16q-113 106 -143 151q-3 5 -5.5 11.5t-0.5 13t9 6.5q11 0 24 -11q89 -81 228 -160zM357 204q8 -5 9.5 -13t-2.5 -10q-142 -81 -224 -150
q-26 -22 -39 -22q-4 0 -6 3t-1 9.5t6 14.5q26 40 144 143q9 7 2 14q-114 104 -145 152q-5 7 -4 18t7 12q11 0 23 -11q97 -83 230 -160z" />
    <glyph glyph-name="onequarter" unicode="&#xbc;" horiz-adv-x="674" 
d="M207 613q0 -2 -0.5 -10.5t-1 -27.5t-0.5 -41q-1 -62 1 -182q0 -26 6.5 -34t34.5 -16q19 -4 19 -16q0 -13 -22 -13q-3 0 -37.5 1t-47.5 1q-23 0 -51 -1l-27 -1q-28 0 -28 14q0 13 28 18q20 4 27 12t9 24q4 28 4 127q0 45 -2 73q0 13 -10 16q-6 2 -15 4.5t-12 3.5
q-22 4 -22 15q0 9 21 12q67 5 116 28q4 2 7 -0.5t3 -6.5zM576 638q9 0 16 -8t3 -13q-299 -465 -420 -646q-5 -9 -14 -3q-8 5 -11.5 13.5t0.5 14.5q84 126 239 368t168 262q9 12 19 12zM596 347q9 0 9 -13q0 -1 0.5 -39.5t1 -84.5t0.5 -63q0 -7 6 -7h52q5 0 5 -9
q0 -29 -10 -31h-48q-4 0 -4 -7q0 -3 1 -39t0 -49q0 -12 -9 -15q-12 -5 -69 -5q-9 0 -9 14q0 58 2 94q0 7 -5 7q-112 0 -138 -2q-3 0 -6.5 5t-3.5 9q0 2 18 25q3 3 35.5 41.5t64 76.5t44.5 54q8 11 29.5 24.5t33.5 13.5zM525 144q0 8 2 48t2 66q0 2 -2.5 2t-3.5 -1
q-6 -7 -24.5 -30t-36 -45t-29.5 -38q-2 -2 0 -4t5 -2l79 -1q8 1 8 5z" />
    <glyph glyph-name="onehalf" unicode="&#xbd;" horiz-adv-x="702" 
d="M207 613q0 -2 -0.5 -10.5t-1 -27.5t-0.5 -41q-1 -62 1 -182q0 -26 6.5 -34t34.5 -16q19 -4 19 -16q0 -13 -22 -13q-3 0 -37.5 1t-47.5 1q-23 0 -51 -1l-27 -1q-28 0 -28 14q0 13 28 18q20 4 27 12t9 24q4 28 4 127q0 45 -2 73q0 13 -10 16q-6 2 -15 4.5t-12 3.5
q-22 4 -22 15q0 9 21 12q67 5 116 28q4 2 7 -0.5t3 -6.5zM560 638q9 0 16 -8t3 -13q-299 -465 -420 -646q-5 -9 -14 -3q-8 5 -11.5 13.5t0.5 14.5q84 126 239 368t168 262q9 12 19 12zM539 345q46 0 76 -28t30 -73q0 -36 -49 -88q-14 -15 -27.5 -28t-30 -27t-26.5 -23
q-3 -4 -1 -6t4 -2h110q13 0 35 29q10 12 15 12q6 0 9 -9t0 -16q-19 -39 -28 -82q-2 -6 -9 -6h-21q-21 1 -46 1.5t-50.5 0.5h-35.5h-58q-4 0 -11 5.5t-7 8.5q0 8 8 14q48 43 94 96q38 44 38 95q0 28 -15.5 44.5t-39.5 16.5q-37 0 -61 -26q-10 -10 -19 -10q-8 0 -8 13
q0 12 11 24q49 64 113 64z" />
    <glyph glyph-name="threequarters" unicode="&#xbe;" horiz-adv-x="639" 
d="M154 621q41 0 65.5 -22t24.5 -48q0 -23 -15 -38t-44 -31q-2 -1 -1.5 -3t2.5 -3q87 -12 87 -77q0 -77 -103 -121q-37 -18 -79 -18q-21 0 -40.5 11.5t-19.5 25.5q0 26 27 37q6 3 13 -4q42 -33 72 -33q20 0 34 19.5t14 45.5q0 30 -16 50.5t-46 20.5q-4 0 -9.5 -1t-13.5 -2.5
t-12 -2.5q-10 -3 -10 4q0 9 2 13q8 11 26 20q31 13 42.5 24.5t11.5 34.5q0 18 -13.5 32t-31.5 14q-26 0 -54 -26q-5 -5 -9 -7.5t-6 -2t-3 2.5q-2 2 -4 8t-1 8q14 26 43.5 47.5t66.5 21.5zM546 638q9 0 16 -8t3 -13q-299 -465 -420 -646q-5 -9 -14 -3q-8 5 -11.5 13.5
t0.5 14.5q84 126 239 368t168 262q9 12 19 12zM561 347q9 0 9 -13q0 -1 0.5 -39.5t1 -84.5t0.5 -63q0 -7 6 -7h52q5 0 5 -9q0 -29 -10 -31h-48q-4 0 -4 -7q0 -3 1 -39t0 -49q0 -12 -9 -15q-13 -5 -69 -5q-9 0 -9 14q0 58 2 94q0 7 -5 7q-112 0 -138 -2q-3 0 -6.5 5t-3.5 9
q0 2 18 25q3 3 35.5 41.5t64 76.5t44.5 54q8 11 29.5 24.5t33.5 13.5zM490 144q0 8 2 48t2 66q0 2 -2.5 2t-3.5 -1q-6 -7 -24.5 -30t-36 -45t-29.5 -38q-2 -2 0 -4t5 -2l79 -1q8 1 8 5z" />
    <glyph glyph-name="questiondown" unicode="&#xbf;" horiz-adv-x="355" 
d="M238 -154q-53 0 -114 47q-10 8 -26.5 25.5t-36 53.5t-19.5 68q0 74 41 109q14 10 51 30t40 22q22 13 26 43q1 11 9.5 17.5t15.5 6.5t18 -42q1 -6 5 -21.5t6 -28.5t2 -24q0 -30 -27.5 -53t-87.5 -50q-23 -10 -33 -20t-10 -25q0 -28 14.5 -41t48.5 -13q5 0 35 5.5t41 5.5
q13 0 29.5 -23.5t16.5 -46.5q0 -17 -14.5 -31t-30.5 -14zM194 317q-32 0 -51.5 21.5t-19.5 50.5q0 32 21 54t52 22q30 0 50.5 -21t20.5 -54q0 -32 -22.5 -52.5t-50.5 -20.5z" />
    <glyph glyph-name="Agrave" unicode="&#xc0;" horiz-adv-x="677" 
d="M356 650q8 0 17 -22q10 -27 40 -112q90 -252 143 -386q23 -56 41 -74t48 -27q26 -8 26 -18q0 -15 -33 -15q-12 0 -63.5 2t-67.5 2q-17 0 -51.5 -1t-46.5 -1q-32 0 -32 15q0 12 26 17q28 7 35 17t5 25q-2 23 -46 146q-1 4 -8.5 9.5t-15.5 5.5q-111 1 -168 -3q-4 0 -11 -10
q-43 -108 -43 -145q0 -16 10.5 -26.5t36.5 -17.5q29 -7 29 -20t-30 -13q-7 0 -33 1t-47 1q-23 0 -59 -2t-40 -2q-29 0 -29 12q0 13 25 20q37 10 52.5 26t38.5 63q13 26 85 208.5t89 223.5q5 10 5 18q0 7 2 8q34 35 52 62q9 13 18 13zM371 281q1 0 3 2.5t1 5.5
q-37 117 -73 201q-2 5 -5.5 4t-5.5 -7q-68 -180 -72 -198q-2 -10 7 -10q78 2 145 2zM224 825q10 0 42 -25q78 -63 113 -95q5 -4 10 -12t2 -11q-10 -14 -39 -1q-122 53 -157 74q-21 14 -21 25q0 9 26 31q12 14 24 14z" />
    <glyph glyph-name="Aacute" unicode="&#xc1;" horiz-adv-x="677" 
d="M356 650q8 0 17 -22q10 -27 40 -112q90 -252 143 -386q23 -56 41 -74t48 -27q26 -8 26 -18q0 -15 -33 -15q-12 0 -63.5 2t-67.5 2q-17 0 -51.5 -1t-46.5 -1q-32 0 -32 15q0 12 26 17q28 7 35 17t5 25q-2 23 -46 146q-1 4 -8.5 9.5t-15.5 5.5q-111 1 -168 -3q-4 0 -11 -10
q-43 -108 -43 -145q0 -16 10.5 -26.5t36.5 -17.5q29 -7 29 -20t-30 -13q-7 0 -33 1t-47 1q-23 0 -59 -2t-40 -2q-29 0 -29 12q0 13 25 20q37 10 52.5 26t38.5 63q13 26 85 208.5t89 223.5q5 10 5 18q0 7 2 8q34 35 52 62q9 13 18 13zM371 281q1 0 3 2.5t1 5.5
q-37 117 -73 201q-2 5 -5.5 4t-5.5 -7q-68 -180 -72 -198q-2 -10 7 -10q78 2 145 2zM433 808q15 12 32 6q14 -7 27.5 -19t13.5 -20q0 -6 -7.5 -14t-15.5 -12q-100 -48 -161 -69q-25 -8 -34 1q-2 2 -1 6t4.5 10t8.5 10q33 30 133 101z" />
    <glyph glyph-name="Acircumflex" unicode="&#xc2;" horiz-adv-x="677" 
d="M356 650q8 0 17 -22q10 -27 40 -112q90 -252 143 -386q23 -56 41 -74t48 -27q26 -8 26 -18q0 -15 -33 -15q-12 0 -63.5 2t-67.5 2q-17 0 -51.5 -1t-46.5 -1q-32 0 -32 15q0 12 26 17q28 7 35 17t5 25q-2 23 -46 146q-1 4 -8.5 9.5t-15.5 5.5q-111 1 -168 -3q-4 0 -11 -10
q-43 -108 -43 -145q0 -16 10.5 -26.5t36.5 -17.5q29 -7 29 -20t-30 -13q-7 0 -33 1t-47 1q-23 0 -59 -2t-40 -2q-29 0 -29 12q0 13 25 20q37 10 52.5 26t38.5 63q13 26 85 208.5t89 223.5q5 10 5 18q0 7 2 8q34 35 52 62q9 13 18 13zM371 281q1 0 3 2.5t1 5.5
q-37 117 -73 201q-2 5 -5.5 4t-5.5 -7q-68 -180 -72 -198q-2 -10 7 -10q78 2 145 2zM345 800q11 0 41 -25q38 -38 86 -80q3 -2 6 -6.5t5 -9.5t-0.5 -9t-10.5 -4q-11 0 -32 9q-35 16 -90 47q-10 4 -18 -1q-11 -6 -43.5 -21t-47.5 -23q-18 -10 -30 -10q-13 0 -7 14q4 9 15 19
q8 7 86 76q28 24 40 24z" />
    <glyph glyph-name="Atilde" unicode="&#xc3;" horiz-adv-x="677" 
d="M356 650q8 0 17 -22q10 -27 40 -112q90 -252 143 -386q23 -56 41 -74t48 -27q26 -8 26 -18q0 -15 -33 -15q-12 0 -63.5 2t-67.5 2q-17 0 -51.5 -1t-46.5 -1q-32 0 -32 15q0 12 26 17q28 7 35 17t5 25q-2 23 -46 146q-1 4 -8.5 9.5t-15.5 5.5q-111 1 -168 -3q-4 0 -11 -10
q-43 -108 -43 -145q0 -16 10.5 -26.5t36.5 -17.5q29 -7 29 -20t-30 -13q-7 0 -33 1t-47 1q-23 0 -59 -2t-40 -2q-29 0 -29 12q0 13 25 20q37 10 52.5 26t38.5 63q13 26 85 208.5t89 223.5q5 10 5 18q0 7 2 8q34 35 52 62q9 13 18 13zM371 281q1 0 3 2.5t1 5.5
q-37 117 -73 201q-2 5 -5.5 4t-5.5 -7q-68 -180 -72 -198q-2 -10 7 -10q78 2 145 2zM214 705q22 35 44 55q10 10 26 10q20 0 77.5 -2.5t69.5 -1.5q20 2 40 32q5 7 10 7q7 0 16 -15q3 -8 -6 -17q-5 -5 -28 -33t-30 -34q-10 -8 -19 -8q-11 0 -49.5 2.5t-63.5 4t-40 -0.5
q-14 -3 -34 -31q-6 -8 -9 -8q-7 0 -12 4.5t-5 7.5q0 6 13 28z" />
    <glyph glyph-name="Adieresis" unicode="&#xc4;" horiz-adv-x="677" 
d="M356 650q8 0 17 -22q10 -27 40 -112q90 -252 143 -386q23 -56 41 -74t48 -27q26 -8 26 -18q0 -15 -33 -15q-12 0 -63.5 2t-67.5 2q-17 0 -51.5 -1t-46.5 -1q-32 0 -32 15q0 12 26 17q28 7 35 17t5 25q-2 23 -46 146q-1 4 -8.5 9.5t-15.5 5.5q-111 1 -168 -3q-4 0 -11 -10
q-43 -108 -43 -145q0 -16 10.5 -26.5t36.5 -17.5q29 -7 29 -20t-30 -13q-7 0 -33 1t-47 1q-23 0 -59 -2t-40 -2q-29 0 -29 12q0 13 25 20q37 10 52.5 26t38.5 63q13 26 85 208.5t89 223.5q5 10 5 18q0 7 2 8q34 35 52 62q9 13 18 13zM371 281q1 0 3 2.5t1 5.5
q-37 117 -73 201q-2 5 -5.5 4t-5.5 -7q-68 -180 -72 -198q-2 -10 7 -10q78 2 145 2zM247 793q22 0 35.5 -18.5t13.5 -40.5q0 -23 -18 -38t-38 -15q-18 0 -34 14.5t-16 41.5q0 21 17 38.5t40 17.5zM453 793q22 0 35.5 -18.5t13.5 -40.5t-18 -37.5t-37 -15.5t-35 14.5
t-16 40.5q0 22 17 39.5t40 17.5z" />
    <glyph glyph-name="Aring" unicode="&#xc5;" horiz-adv-x="677" 
d="M356 650q8 0 17 -22q10 -27 40 -112q90 -252 143 -386q23 -56 41 -74t48 -27q26 -8 26 -18q0 -15 -33 -15q-12 0 -63.5 2t-67.5 2q-17 0 -51.5 -1t-46.5 -1q-32 0 -32 15q0 12 26 17q28 7 35 17t5 25q-2 23 -46 146q-1 4 -8.5 9.5t-15.5 5.5q-111 1 -168 -3q-4 0 -11 -10
q-43 -108 -43 -145q0 -16 10.5 -26.5t36.5 -17.5q29 -7 29 -20t-30 -13q-7 0 -33 1t-47 1q-23 0 -59 -2t-40 -2q-29 0 -29 12q0 13 25 20q37 10 52.5 26t38.5 63q13 26 85 208.5t89 223.5q5 10 5 18q0 7 2 8q34 35 52 62q9 13 18 13zM371 281q1 0 3 2.5t1 5.5
q-37 117 -73 201q-2 5 -5.5 4t-5.5 -7q-68 -180 -72 -198q-2 -10 7 -10q78 2 145 2zM341 825q35 0 58 -24t23 -57q0 -32 -23 -56t-58 -24t-58 24t-23 56q0 33 23 57t58 24zM341 792q-17 0 -29 -14t-12 -34q0 -22 12 -34.5t29 -12.5q41 0 41 49q0 19 -11.5 32.5t-29.5 13.5z
" />
    <glyph glyph-name="AE" unicode="&#xc6;" horiz-adv-x="914" 
d="M491 633h227q14 0 28 1t24.5 2t18.5 2t13 2t6 1q3 0 8.5 -6t5.5 -12q0 -3 6.5 -51.5t7.5 -59.5q0 -7 -4.5 -15t-9.5 -8q-12 0 -22 26q-31 70 -63 75q-30 5 -135 5q-16 0 -16 -15q-3 -42 -3 -239q0 -19 8 -19q87 0 120 7q20 5 35 47q10 25 24 25q5 0 8 -7.5t2 -18.5
q-9 -56 -3 -157q0 -8 -4 -15t-9 -7q-13 0 -22 23q-12 39 -22 47q-12 10 -38 10q-7 0 -34 0.5t-53 0.5q-9 0 -11 -10v-167q1 -35 13 -47t35 -14h36h43h39q33 1 55 21.5t50 65.5q14 26 27 26q5 0 8.5 -9.5t2.5 -23.5q-3 -18 -16.5 -58.5t-17.5 -48.5q-9 -16 -32 -16
q-6 0 -117 2t-151 2q-12 0 -84 -2t-86 -2q-27 0 -27 14q0 12 33 20q38 8 49.5 20.5t15.5 43.5q4 35 4 172q0 9 -8 9q-123 0 -167 -2q-2 0 -9 -5t-10 -10q-96 -170 -96 -194q0 -21 46 -33q10 -3 16.5 -8.5t6.5 -9.5q0 -16 -26 -16q-10 0 -43 1.5t-56 1.5q-16 0 -57.5 -2.5
t-47.5 -2.5q-7 0 -14.5 5t-7.5 10q0 6 9 12t24 9q38 7 61.5 25.5t53.5 64.5q14 21 58 93.5t87 145.5t83.5 142t43.5 74q6 12 -6 16q-6 2 -34 6.5t-37 7.5q-19 5 -19 15q0 14 31 14q17 0 70.5 -1t74.5 -1zM466 570q0 16 -12 5q-4 -5 -9 -13q-93 -153 -133 -230
q-3 -5 0.5 -8.5t8.5 -3.5h134q9 0 9 16q0 1 1 110.5t1 123.5z" />
    <glyph glyph-name="Ccedilla" unicode="&#xc7;" horiz-adv-x="710" 
d="M426 650q66 0 130 -16q47 -12 72 -15q5 0 10 -8t5 -19q1 -40 5 -92q1 -16 -4 -27t-13 -11q-10 0 -19 27q-17 52 -42 71q-69 58 -148 58q-114 0 -174 -78.5t-60 -199.5q0 -97 35 -167q39 -78 98 -114.5t125 -36.5q52 0 99 26q52 30 85 88q17 31 28 31q7 0 8.5 -14.5
t-1.5 -22.5q-3 -14 -29 -85q-7 -21 -37 -34q-61 -24 -148 -28q-20 -25 -22 -30q-5 -8 6 -14q64 -33 64 -86q0 -24 -20 -49.5t-43 -41.5q-47 -31 -73 -31q-15 0 -23 13q-9 15 4 35q8 10 19 8q2 0 16.5 -2t19.5 -2q17 0 27 11.5t10 27.5q0 21 -18.5 34t-43.5 13q-10 0 -18 -1
q-4 0 -11 8t-7 12q0 7 8 14q11 12 68 80q-97 2 -172.5 36.5t-111.5 76.5q-84 97 -84 225q0 81 34.5 144t75.5 96q109 90 270 90z" />
    <glyph glyph-name="Egrave" unicode="&#xc8;" horiz-adv-x="587" 
d="M250 633h150q46 0 88 6q3 1 7 -3.5t5 -9.5q1 -18 1 -107q0 -11 -4.5 -19.5t-11.5 -8.5q-6 0 -11.5 8t-7.5 17q-15 67 -64 75q-46 7 -139 6q-12 0 -13 -28q-7 -81 -4 -219q0 -3 3 -6.5t7 -3.5h80q51 0 62 6.5t26 41.5q10 26 22 26q6 0 8.5 -9t1.5 -19q-4 -56 -4 -69
q0 -18 4 -68q2 -30 -13 -30q-12 0 -19 22q-9 32 -22 42t-43 12q-32 3 -100 3q-3 0 -8 -5t-5 -7q-5 -36 -2 -139q3 -78 4 -82q7 -21 22 -24q32 -6 81 -6q67 0 92 9q47 17 79 74q19 35 31 35t8 -29q0 -6 -16 -55.5t-22 -60.5q-2 -5 -10.5 -9t-13.5 -4q-3 0 -71 1t-148.5 2.5
t-113.5 1.5q-37 0 -68.5 -2.5t-45.5 -2.5q-34 0 -34 13t30 20q39 9 52 23t16 53q8 112 8 242q0 178 -1 193q-2 29 -12.5 43.5t-40.5 20.5q-32 6 -32 18q0 6 10 10.5t21 4.5q23 0 88.5 -1.5t92.5 -1.5zM189 831q10 0 42 -25q78 -63 113 -95q5 -4 10 -12t2 -11q-10 -14 -39 -1
q-122 53 -157 74q-21 13 -21 25q0 9 26 31q12 14 24 14z" />
    <glyph glyph-name="Eacute" unicode="&#xc9;" horiz-adv-x="587" 
d="M250 633h150q46 0 88 6q3 1 7 -3.5t5 -9.5q1 -18 1 -107q0 -11 -4.5 -19.5t-11.5 -8.5q-6 0 -11.5 8t-7.5 17q-15 67 -64 75q-46 7 -139 6q-12 0 -13 -28q-7 -81 -4 -219q0 -3 3 -6.5t7 -3.5h80q51 0 62 6.5t26 41.5q10 26 22 26q6 0 8.5 -9t1.5 -19q-4 -56 -4 -69
q0 -18 4 -68q2 -30 -13 -30q-12 0 -19 22q-9 32 -22 42t-43 12q-32 3 -100 3q-3 0 -8 -5t-5 -7q-5 -36 -2 -139q3 -78 4 -82q7 -21 22 -24q32 -6 81 -6q67 0 92 9q47 17 79 74q19 35 31 35t8 -29q0 -6 -16 -55.5t-22 -60.5q-2 -5 -10.5 -9t-13.5 -4q-3 0 -71 1t-148.5 2.5
t-113.5 1.5q-37 0 -68.5 -2.5t-45.5 -2.5q-34 0 -34 13t30 20q39 9 52 23t16 53q8 112 8 242q0 178 -1 193q-2 29 -12.5 43.5t-40.5 20.5q-32 6 -32 18q0 6 10 10.5t21 4.5q23 0 88.5 -1.5t92.5 -1.5zM378 810q15 12 32 6q14 -7 27.5 -19t13.5 -20q0 -6 -7.5 -14t-15.5 -12
q-100 -48 -161 -69q-25 -8 -34 1q-2 2 -1 6t4.5 10t8.5 10q33 30 133 101z" />
    <glyph glyph-name="Ecircumflex" unicode="&#xca;" horiz-adv-x="587" 
d="M250 633h150q46 0 88 6q3 1 7 -3.5t5 -9.5q1 -18 1 -107q0 -11 -4.5 -19.5t-11.5 -8.5q-6 0 -11.5 8t-7.5 17q-15 67 -64 75q-46 7 -139 6q-12 0 -13 -28q-7 -81 -4 -219q0 -3 3 -6.5t7 -3.5h80q51 0 62 6.5t26 41.5q10 26 22 26q6 0 8.5 -9t1.5 -19q-4 -56 -4 -69
q0 -18 4 -68q2 -30 -13 -30q-12 0 -19 22q-9 32 -22 42t-43 12q-32 3 -100 3q-3 0 -8 -5t-5 -7q-5 -36 -2 -139q3 -78 4 -82q7 -21 22 -24q32 -6 81 -6q67 0 92 9q47 17 79 74q19 35 31 35t8 -29q0 -6 -16 -55.5t-22 -60.5q-2 -5 -10.5 -9t-13.5 -4q-3 0 -71 1t-148.5 2.5
t-113.5 1.5q-37 0 -68.5 -2.5t-45.5 -2.5q-34 0 -34 13t30 20q39 9 52 23t16 53q8 112 8 242q0 178 -1 193q-2 29 -12.5 43.5t-40.5 20.5q-32 6 -32 18q0 6 10 10.5t21 4.5q23 0 88.5 -1.5t92.5 -1.5zM299 823q11 0 41 -25q38 -38 86 -80q3 -2 6 -6.5t5 -9.5t-0.5 -9
t-10.5 -4q-11 0 -32 9q-35 16 -90 47q-10 4 -18 -1q-11 -6 -43.5 -21t-47.5 -23q-17 -10 -30 -10t-7 14q4 9 15 19q8 7 86 76q28 24 40 24z" />
    <glyph glyph-name="Edieresis" unicode="&#xcb;" horiz-adv-x="587" 
d="M250 633h150q46 0 88 6q3 1 7 -3.5t5 -9.5q1 -18 1 -107q0 -11 -4.5 -19.5t-11.5 -8.5q-6 0 -11.5 8t-7.5 17q-15 67 -64 75q-46 7 -139 6q-12 0 -13 -28q-7 -81 -4 -219q0 -3 3 -6.5t7 -3.5h80q51 0 62 6.5t26 41.5q10 26 22 26q6 0 8.5 -9t1.5 -19q-4 -56 -4 -69
q0 -18 4 -68q2 -30 -13 -30q-12 0 -19 22q-9 32 -22 42t-43 12q-32 3 -100 3q-3 0 -8 -5t-5 -7q-5 -36 -2 -139q3 -78 4 -82q7 -21 22 -24q32 -6 81 -6q67 0 92 9q47 17 79 74q19 35 31 35t8 -29q0 -6 -16 -55.5t-22 -60.5q-2 -5 -10.5 -9t-13.5 -4q-3 0 -71 1t-148.5 2.5
t-113.5 1.5q-37 0 -68.5 -2.5t-45.5 -2.5q-34 0 -34 13t30 20q39 9 52 23t16 53q8 112 8 242q0 178 -1 193q-2 29 -12.5 43.5t-40.5 20.5q-32 6 -32 18q0 6 10 10.5t21 4.5q23 0 88.5 -1.5t92.5 -1.5zM197 806q22 0 35.5 -18.5t13.5 -40.5q0 -23 -18 -38t-38 -15
q-18 0 -34 14.5t-16 41.5q0 21 17 38.5t40 17.5zM403 806q22 0 35.5 -18.5t13.5 -40.5t-18 -37.5t-37 -15.5t-35 14.5t-16 40.5q0 22 17 39.5t40 17.5z" />
    <glyph glyph-name="Igrave" unicode="&#xcc;" horiz-adv-x="369" 
d="M124 334q0 155 -3 193q-2 29 -4 39.5t-13 20t-35 15.5q-30 8 -30 20q0 14 32 14q14 0 55.5 -1.5t58.5 -1.5q26 0 64.5 1.5t54.5 1.5q31 0 31 -14q0 -15 -31 -20q-18 -3 -29.5 -9t-16.5 -15.5t-6.5 -16.5t-2.5 -20q-4 -33 -4 -232q0 -149 3 -194t14 -60t52 -26
q28 -6 28 -21q0 -13 -31 -13q-17 0 -72 3t-78 2q-13 0 -45 -1.5t-51 -1.5q-31 0 -31 17q0 12 30 19q33 8 43 24t12 51q5 63 5 226zM77 832q10 0 42 -25q78 -63 113 -95q5 -4 10 -12t2 -11q-10 -14 -39 -1q-122 53 -157 74q-21 13 -21 25q0 9 26 31q12 14 24 14z" />
    <glyph glyph-name="Iacute" unicode="&#xcd;" horiz-adv-x="369" 
d="M124 334q0 155 -3 193q-2 29 -4 39.5t-13 20t-35 15.5q-30 8 -30 20q0 14 32 14q14 0 55.5 -1.5t58.5 -1.5q26 0 64.5 1.5t54.5 1.5q31 0 31 -14q0 -15 -31 -20q-18 -3 -29.5 -9t-16.5 -15.5t-6.5 -16.5t-2.5 -20q-4 -33 -4 -232q0 -149 3 -194t14 -60t52 -26
q28 -6 28 -21q0 -13 -31 -13q-17 0 -72 3t-78 2q-13 0 -45 -1.5t-51 -1.5q-31 0 -31 17q0 12 30 19q33 8 43 24t12 51q5 63 5 226zM280 818q15 12 32 6q14 -7 27.5 -19t13.5 -20q0 -6 -7.5 -14t-15.5 -12q-100 -48 -161 -69q-25 -8 -34 1q-2 2 -1 6t4.5 10t8.5 10
q33 30 133 101z" />
    <glyph glyph-name="Icircumflex" unicode="&#xce;" horiz-adv-x="369" 
d="M124 334q0 155 -3 193q-2 29 -4 39.5t-13 20t-35 15.5q-30 8 -30 20q0 14 32 14q14 0 55.5 -1.5t58.5 -1.5q26 0 64.5 1.5t54.5 1.5q31 0 31 -14q0 -15 -31 -20q-18 -3 -29.5 -9t-16.5 -15.5t-6.5 -16.5t-2.5 -20q-4 -33 -4 -232q0 -149 3 -194t14 -60t52 -26
q28 -6 28 -21q0 -13 -31 -13q-17 0 -72 3t-78 2q-13 0 -45 -1.5t-51 -1.5q-31 0 -31 17q0 12 30 19q33 8 43 24t12 51q5 63 5 226zM186 820q11 0 41 -25q38 -38 86 -80q3 -2 6 -6.5t5 -9.5t-0.5 -9t-10.5 -4q-11 0 -32 9q-35 16 -90 47q-10 4 -18 -1q-11 -6 -43.5 -21
t-47.5 -23q-17 -10 -30 -10t-7 14q4 9 15 19q8 7 86 76q28 24 40 24z" />
    <glyph glyph-name="Idieresis" unicode="&#xcf;" horiz-adv-x="369" 
d="M124 334q0 155 -3 193q-2 29 -4 39.5t-13 20t-35 15.5q-30 8 -30 20q0 14 32 14q14 0 55.5 -1.5t58.5 -1.5q26 0 64.5 1.5t54.5 1.5q31 0 31 -14q0 -15 -31 -20q-18 -3 -29.5 -9t-16.5 -15.5t-6.5 -16.5t-2.5 -20q-4 -33 -4 -232q0 -149 3 -194t14 -60t52 -26
q28 -6 28 -21q0 -13 -31 -13q-17 0 -72 3t-78 2q-13 0 -45 -1.5t-51 -1.5q-31 0 -31 17q0 12 30 19q33 8 43 24t12 51q5 63 5 226zM88 804q22 0 35.5 -18.5t13.5 -40.5q0 -23 -18 -38t-38 -15q-18 0 -34 14.5t-16 41.5q0 21 17 38.5t40 17.5zM294 804q22 0 35.5 -18.5
t13.5 -40.5t-18 -37.5t-37 -15.5t-35 14.5t-16 40.5q0 22 17 39.5t40 17.5z" />
    <glyph glyph-name="Eth" unicode="&#xd0;" horiz-adv-x="760" 
d="M47 349h68q9 0 9 10t-1 66t-2 89q-2 49 -11.5 63.5t-49.5 23.5q-23 6 -23 17q0 15 26 15h54q21 0 109 4t128 4q92 0 160.5 -30t108.5 -67q41 -39 66.5 -99.5t25.5 -118.5q0 -98 -48 -171.5t-110 -108.5q-94 -54 -227 -54q-84 0 -202 6q-30 1 -69 1q-31 0 -31 16
q0 13 21 17q47 6 59.5 25.5t14.5 87.5q2 110 2 154q0 9 -5 9h-73q-10 0 -10 23q0 4 3 11t7 7zM397 309l-145 -1q-7 0 -7 -8q0 -151 4 -197q3 -35 19 -51q26 -26 72 -26q74 0 144 57q95 81 95 244q0 56 -21.5 113.5t-59.5 96.5q-32 32 -83.5 50.5t-105.5 18.5q-35 0 -48 -8
q-6 -4 -12 -20q-4 -14 -4 -217q0 -12 8 -12h144q14 0 14 -11q0 -8 -4.5 -18.5t-9.5 -10.5z" />
    <glyph glyph-name="Ntilde" unicode="&#xd1;" horiz-adv-x="772" 
d="M22 622q0 15 30 15q7 0 65 -2t87 -2q9 0 22 -13q7 -8 34.5 -39.5t49.5 -57.5q17 -21 61.5 -69t84.5 -90.5t91.5 -96.5t60.5 -63q3 -3 6 0t3 6q2 12 2 226q0 55 -6 107q-4 41 -62 56q-33 8 -33 23q0 12 29 12q13 0 36 -0.5t32 -0.5q27 0 66 2.5t49 2.5q24 0 24 -13
t-25 -20q-36 -12 -47 -27t-15 -48q-2 -28 -6 -170t-4 -204q0 -23 3 -84t3 -72q0 -6 -6 -12.5t-10 -6.5q-25 0 -54 38q-17 22 -65 81q-52 63 -180.5 206t-165.5 186q-4 4 -7.5 1t-3.5 -6q-4 -55 -5 -129q-2 -228 2 -264q3 -25 16 -39t47 -25q28 -8 28 -19q0 -15 -33 -15
q-14 0 -41.5 2t-45.5 2q-12 0 -49.5 -1.5t-45.5 -1.5q-26 0 -26 13q0 11 22 18q40 12 55.5 28.5t17.5 68.5q2 40 6.5 125.5l8 152t3.5 98.5q0 48 -6 56q-1 1 -6.5 7.5t-6 7.5t-5.5 6.5t-7.5 6.5t-8.5 5t-11.5 6t-13.5 4.5t-18 4.5q-9 2 -17.5 7t-8.5 10zM272 718
q22 35 44 55q10 10 26 10q20 0 77.5 -2.5t69.5 -1.5q20 2 40 32q5 7 10 7q7 0 16 -15q3 -8 -6 -17q-5 -5 -28 -33t-30 -34q-10 -8 -19 -8q-11 0 -49.5 2.5t-63.5 4t-40 -0.5q-14 -3 -34 -31q-6 -8 -9 -8q-7 0 -12 4.5t-5 7.5q0 6 13 28z" />
    <glyph glyph-name="Ograve" unicode="&#xd2;" horiz-adv-x="783" 
d="M388 650q80 0 147.5 -28t110.5 -74t67 -103.5t24 -118.5q0 -171 -126 -272q-43 -33 -102 -52.5t-117 -19.5q-159 0 -260 107q-86 92 -86 229q0 157 129 260q38 29 96 50.5t117 21.5zM364 615q-31 0 -62 -15.5t-51 -35.5q-70 -68 -70 -224q0 -123 68 -222t172 -99
q61 0 102 41q33 33 55 95.5t22 139.5q0 67 -26.5 143t-77.5 123q-26 23 -63 38.5t-69 15.5zM281 845q10 0 42 -25q78 -63 113 -95q5 -4 10 -12t2 -11q-10 -14 -39 -1q-122 53 -157 74q-21 13 -21 25q0 9 26 31q12 14 24 14z" />
    <glyph glyph-name="Oacute" unicode="&#xd3;" horiz-adv-x="783" 
d="M388 650q80 0 147.5 -28t110.5 -74t67 -103.5t24 -118.5q0 -171 -126 -272q-43 -33 -102 -52.5t-117 -19.5q-159 0 -260 107q-86 92 -86 229q0 157 129 260q38 29 96 50.5t117 21.5zM364 615q-31 0 -62 -15.5t-51 -35.5q-70 -68 -70 -224q0 -123 68 -222t172 -99
q61 0 102 41q33 33 55 95.5t22 139.5q0 67 -26.5 143t-77.5 123q-26 23 -63 38.5t-69 15.5zM457 832q15 12 32 6q14 -7 27.5 -19t13.5 -20q0 -6 -7.5 -14t-15.5 -12q-100 -48 -161 -69q-25 -8 -34 1q-2 2 -1 6t4.5 10t8.5 10q33 30 133 101z" />
    <glyph glyph-name="Ocircumflex" unicode="&#xd4;" horiz-adv-x="783" 
d="M388 650q80 0 147.5 -28t110.5 -74t67 -103.5t24 -118.5q0 -171 -126 -272q-43 -33 -102 -52.5t-117 -19.5q-159 0 -260 107q-86 92 -86 229q0 157 129 260q38 29 96 50.5t117 21.5zM364 615q-31 0 -62 -15.5t-51 -35.5q-70 -68 -70 -224q0 -123 68 -222t172 -99
q61 0 102 41q33 33 55 95.5t22 139.5q0 67 -26.5 143t-77.5 123q-26 23 -63 38.5t-69 15.5zM388 831q11 0 41 -25q38 -38 86 -80q3 -2 6 -6.5t5 -9.5t-0.5 -9t-10.5 -4q-11 0 -32 9q-35 16 -90 47q-10 4 -18 -1q-11 -6 -43.5 -21t-47.5 -23q-18 -10 -30 -10q-13 0 -7 14
q4 9 15 19q8 7 86 76q28 24 40 24z" />
    <glyph glyph-name="Otilde" unicode="&#xd5;" horiz-adv-x="783" 
d="M388 650q80 0 147.5 -28t110.5 -74t67 -103.5t24 -118.5q0 -171 -126 -272q-43 -33 -102 -52.5t-117 -19.5q-159 0 -260 107q-86 92 -86 229q0 157 129 260q38 29 96 50.5t117 21.5zM364 615q-31 0 -62 -15.5t-51 -35.5q-70 -68 -70 -224q0 -123 68 -222t172 -99
q61 0 102 41q33 33 55 95.5t22 139.5q0 67 -26.5 143t-77.5 123q-26 23 -63 38.5t-69 15.5zM256 731q22 35 44 55q10 10 26 10q20 0 77.5 -2.5t69.5 -1.5q20 2 40 32q5 7 10 7q7 0 16 -15q3 -8 -6 -17q-5 -5 -28 -33t-30 -34q-10 -8 -19 -8q-11 0 -49.5 2.5t-63.5 4
t-40 -0.5q-14 -3 -34 -31q-6 -8 -9 -8q-7 0 -12 4.5t-5 7.5q0 6 13 28z" />
    <glyph glyph-name="Odieresis" unicode="&#xd6;" horiz-adv-x="783" 
d="M388 650q80 0 147.5 -28t110.5 -74t67 -103.5t24 -118.5q0 -171 -126 -272q-43 -33 -102 -52.5t-117 -19.5q-159 0 -260 107q-86 92 -86 229q0 157 129 260q38 29 96 50.5t117 21.5zM364 615q-31 0 -62 -15.5t-51 -35.5q-70 -68 -70 -224q0 -123 68 -222t172 -99
q61 0 102 41q33 33 55 95.5t22 139.5q0 67 -26.5 143t-77.5 123q-26 23 -63 38.5t-69 15.5zM287 814q22 0 35.5 -18.5t13.5 -40.5q0 -23 -18 -38t-38 -15q-18 0 -34 14.5t-16 41.5q0 21 17 38.5t40 17.5zM493 814q22 0 35.5 -18.5t13.5 -40.5t-18 -37.5t-37 -15.5t-35 14.5
t-16 40.5q0 22 17 39.5t40 17.5z" />
    <glyph glyph-name="multiply" unicode="&#xd7;" horiz-adv-x="624" 
d="M88 430q-4 3 5 17.5t19 24.5q12 12 21 3l175 -175q6 -6 15 1l168 174q9 9 17 1q30 -30 21 -39l-174 -179q-6 -4 3 -13l174 -173q14 -16 -19 -49q-9 -9 -20 2l-179 179q-9 9 -15 1l-165 -166q-14 -15 -23 -6q-9 8 -17 22t-4 18l170 171q4 9 0 12z" />
    <glyph glyph-name="Oslash" unicode="&#xd8;" horiz-adv-x="783" 
d="M390 650q99 0 181 -45q6 -4 11 3q22 28 32 40q12 16 18 16q9 0 18 -13q5 -5 -1 -13q-11 -15 -37 -51q-3 -5 0 -8q60 -47 92.5 -114.5t32.5 -140.5q0 -169 -128 -271q-93 -72 -217 -72q-99 0 -188 51q-6 5 -11 -2q-20 -25 -54 -66q-1 -2 -11 -1.5t-13 3.5q-13 12 -5 20
q4 6 11.5 16t19.5 25t20 26q5 6 -3 10q-112 97 -112 254q0 156 128 260q37 30 96.5 51.5t119.5 21.5zM366 614q-30 0 -61.5 -14.5t-50.5 -33.5q-73 -69 -73 -236q0 -97 48 -180q3 -5 7 -1q46 60 144.5 192t141.5 188q2 2 2 6.5t-2 5.5q-66 73 -156 73zM424 18q54 0 96 38
q34 33 58 98t24 142q0 101 -50 198q-5 8 -8 3q-38 -50 -136.5 -182.5t-147.5 -196.5q-7 -7 -2 -13q32 -39 76 -63t90 -24z" />
    <glyph glyph-name="Ugrave" unicode="&#xd9;" horiz-adv-x="763" 
d="M33 623q0 14 30 14q22 0 61 -2t56 -2q20 0 63 2t52 2q29 0 29 -15q0 -14 -30 -20q-27 -5 -38.5 -17t-15.5 -41q-4 -26 -4 -270q0 -79 13.5 -117t42.5 -68q19 -19 57.5 -31.5t64.5 -12.5q145 0 175 131q19 84 19 275q0 69 -5 97q-2 23 -17 36t-49 21q-27 8 -27 20t27 12
q11 0 43 -2t49 -2q21 0 51 2t42 2q25 0 25 -15q0 -11 -26 -17q-37 -9 -50.5 -28t-14.5 -66q0 -10 -8 -218q-5 -119 -37.5 -182t-91.5 -97q-55 -31 -137 -31q-121 0 -188 61q-44 41 -62 98.5t-18 173.5q0 195 -4 243q-4 35 -50 45q-27 7 -27 19zM293 832q10 0 42 -25
q78 -63 113 -95q5 -4 10 -12t2 -11q-10 -14 -39 -1q-122 53 -157 74q-21 13 -21 25q0 9 26 31q12 14 24 14z" />
    <glyph glyph-name="Uacute" unicode="&#xda;" horiz-adv-x="763" 
d="M33 623q0 14 30 14q22 0 61 -2t56 -2q20 0 63 2t52 2q29 0 29 -15q0 -14 -30 -20q-27 -5 -38.5 -17t-15.5 -41q-4 -26 -4 -270q0 -79 13.5 -117t42.5 -68q19 -19 57.5 -31.5t64.5 -12.5q145 0 175 131q19 84 19 275q0 69 -5 97q-2 23 -17 36t-49 21q-27 8 -27 20t27 12
q11 0 43 -2t49 -2q21 0 51 2t42 2q25 0 25 -15q0 -11 -26 -17q-37 -9 -50.5 -28t-14.5 -66q0 -10 -8 -218q-5 -119 -37.5 -182t-91.5 -97q-55 -31 -137 -31q-121 0 -188 61q-44 41 -62 98.5t-18 173.5q0 195 -4 243q-4 35 -50 45q-27 7 -27 19zM489 811q15 12 32 6
q14 -7 27.5 -19t13.5 -20q0 -6 -7.5 -14t-15.5 -12q-100 -48 -161 -69q-25 -8 -34 1q-2 2 -1 6t4.5 10t8.5 10q33 30 133 101z" />
    <glyph glyph-name="Ucircumflex" unicode="&#xdb;" horiz-adv-x="763" 
d="M33 623q0 14 30 14q22 0 61 -2t56 -2q20 0 63 2t52 2q29 0 29 -15q0 -14 -30 -20q-27 -5 -38.5 -17t-15.5 -41q-4 -26 -4 -270q0 -79 13.5 -117t42.5 -68q19 -19 57.5 -31.5t64.5 -12.5q145 0 175 131q19 84 19 275q0 69 -5 97q-2 23 -17 36t-49 21q-27 8 -27 20t27 12
q11 0 43 -2t49 -2q21 0 51 2t42 2q25 0 25 -15q0 -11 -26 -17q-37 -9 -50.5 -28t-14.5 -66q0 -10 -8 -218q-5 -119 -37.5 -182t-91.5 -97q-55 -31 -137 -31q-121 0 -188 61q-44 41 -62 98.5t-18 173.5q0 195 -4 243q-4 35 -50 45q-27 7 -27 19zM409 824q11 0 41 -25
q38 -38 86 -80q3 -2 6 -6.5t5 -9.5t-0.5 -9t-10.5 -4q-11 0 -32 9q-35 16 -90 47q-10 4 -18 -1q-11 -6 -43.5 -21t-47.5 -23q-18 -10 -30 -10q-13 0 -7 14q4 9 15 19q8 7 86 76q28 24 40 24z" />
    <glyph glyph-name="Udieresis" unicode="&#xdc;" horiz-adv-x="763" 
d="M33 623q0 14 30 14q22 0 61 -2t56 -2q20 0 63 2t52 2q29 0 29 -15q0 -14 -30 -20q-27 -5 -38.5 -17t-15.5 -41q-4 -26 -4 -270q0 -79 13.5 -117t42.5 -68q19 -19 57.5 -31.5t64.5 -12.5q145 0 175 131q19 84 19 275q0 69 -5 97q-2 23 -17 36t-49 21q-27 8 -27 20t27 12
q11 0 43 -2t49 -2q21 0 51 2t42 2q25 0 25 -15q0 -11 -26 -17q-37 -9 -50.5 -28t-14.5 -66q0 -10 -8 -218q-5 -119 -37.5 -182t-91.5 -97q-55 -31 -137 -31q-121 0 -188 61q-44 41 -62 98.5t-18 173.5q0 195 -4 243q-4 35 -50 45q-27 7 -27 19zM314 807q22 0 35.5 -18.5
t13.5 -40.5q0 -23 -18 -38t-38 -15q-18 0 -34 14.5t-16 41.5q0 21 17 38.5t40 17.5zM520 807q22 0 35.5 -18.5t13.5 -40.5t-18 -37.5t-37 -15.5t-35 14.5t-16 40.5q0 22 17 39.5t40 17.5z" />
    <glyph glyph-name="Yacute" unicode="&#xdd;" horiz-adv-x="641" 
d="M5 626q0 12 30 12q9 0 56.5 -3t73.5 -3q13 0 44.5 1t52.5 1q25 0 25 -11q0 -6 -6.5 -12.5t-16.5 -8.5q-24 -5 -29 -17.5t6 -31.5q28 -51 115 -199q2 -2 6.5 -1t6.5 4q82 128 111 185q15 23 8.5 38.5t-39.5 22.5q-27 6 -27 22q0 10 22 10q13 0 35 -1t33 -1q16 0 64 2.5
t55 2.5q23 0 23 -11q0 -13 -28 -21q-32 -8 -51.5 -24.5t-49.5 -52.5q-35 -44 -133 -195q-14 -24 -14 -54q0 -140 7 -198q2 -21 14 -32t50 -21q26 -7 26 -19q0 -14 -31 -14q-6 0 -51.5 2.5t-58.5 2.5q-29 0 -62 -1.5t-56 -3.5t-27 -2q-26 0 -26 12q0 14 29 21q63 18 65 46
q1 15 1 193q0 31 -9 49q-14 28 -119 199q-32 50 -51 68t-45 24q-29 6 -29 20zM443 810q15 12 32 6q14 -7 27.5 -19t13.5 -20q0 -6 -7.5 -14t-15.5 -12q-100 -48 -161 -69q-25 -8 -34 1q-2 2 -1 6t4.5 10t8.5 10q33 30 133 101z" />
    <glyph glyph-name="Thorn" unicode="&#xde;" horiz-adv-x="576" 
d="M115 131q2 60 2 393q0 44 -8.5 55.5t-44.5 22.5q-26 8 -26 19q0 6 8.5 10t18.5 4q11 0 49 -1t61 -1q18 0 57.5 1t55.5 1q27 0 27 -14q0 -13 -26 -19q-18 -4 -25 -6.5t-14.5 -7t-9.5 -15.5t-3 -24.5t-1 -41.5q0 -3 2.5 -6t4.5 -3t32.5 2t51.5 2q84 0 146 -46t62 -132
t-58.5 -138.5t-152.5 -52.5q-46 0 -81 13q-7 2 -7 -5q0 -54 6 -71.5t20 -23.5q11 -6 46 -16q23 -8 23 -17q0 -17 -32 -17q-8 0 -65 2t-82 2q-18 0 -50.5 -1.5t-46.5 -1.5q-10 0 -18.5 5t-8.5 12q0 12 26 19q37 10 48 29t13 69zM412 317q0 76 -40 112t-100 36q-26 0 -31 -12
q-5 -17 -5 -38v-216q0 -4 4 -11t8 -8q22 -6 41 -6q50 0 86.5 40.5t36.5 102.5z" />
    <glyph glyph-name="germandbls" unicode="&#xdf;" horiz-adv-x="520" 
d="M327 705q52 0 87 -26t47 -56.5t12 -59.5q0 -15 -2 -27t-3.5 -19t-7 -15.5t-8 -11.5t-10.5 -11t-10 -11l-53 -53q-30 -30 -30 -51q0 -27 20 -43q3 -2 31 -26t37 -33q55 -51 55 -113q0 -43 -32.5 -83t-76.5 -61q-34 -16 -62 -16q-58 0 -58 38q0 7 7 19.5t12 17.5
q10 10 21 4q43 -28 67 -28q46 0 46 44q0 23 -20 45.5t-71 62.5q-66 52 -66 119q0 32 25 52q7 7 26.5 26t32.5 32q58 57 58 134q0 40 -26 78t-76 38q-37 0 -58 -28t-33 -83q-14 -60 -14 -303q0 -155 4 -197q2 -20 28 -30q21 -9 21 -17q0 -15 -25 -15q-5 0 -32.5 1.5
t-45.5 1.5q-11 0 -50.5 -3t-46.5 -3q-25 0 -25 14q0 11 27 18q28 9 34 33q2 10 2 160q0 98 -1 104q-1 15 -10 17q-3 0 -14.5 2t-17.5 3q-7 1 -9.5 9t1.5 11q12 11 38 28q14 12 14 22q0 56 20.5 116.5t59.5 102.5q66 70 161 70z" />
    <glyph glyph-name="agrave" unicode="&#xe0;" horiz-adv-x="418" 
d="M155 655q16 0 29 -35q27 -65 52 -145q10 -33 -5 -33q-14 0 -25 16q-41 52 -94 147q-8 16 -6 28q3 10 21 17q12 5 28 5zM218 407q67 0 104 -54q22 -29 22 -86q0 -23 -2 -95t-2 -74q0 -19 11.5 -29.5t25.5 -10.5q5 0 35 12q3 2 6 -1q3 -6 3 -14q0 -17 -32.5 -42.5
t-70.5 -25.5q-57 0 -75 48q-1 3 -4.5 4.5t-4.5 -0.5q-21 -15 -79 -42q-22 -8 -44 -8q-29 0 -53 30t-24 71q0 26 18 51q8 12 36 24q10 4 37.5 12.5t60 17.5t38.5 11q18 6 18 15q1 8 2 38t0 39q-1 22 -18.5 43t-48.5 21q-22 0 -32 -7q-6 -3 -6 -46q0 -5 -4 -9q-5 -5 -44 -22.5
t-44 -17.5q-4 0 -8.5 4.5t-4.5 9.5q0 42 84 96q25 16 56 26.5t44 10.5zM190 49q20 0 38 12q9 5 9 19q4 28 4 89q0 10 -7 10q-13 0 -40 -9t-41 -17q-18 -13 -18 -40q0 -30 18.5 -47t36.5 -17z" />
    <glyph glyph-name="aacute" unicode="&#xe1;" horiz-adv-x="418" 
d="M244 634q2 6 11 12t18 6q41 0 43 -15q2 -13 -7 -28q-14 -27 -49.5 -79t-51.5 -70q-16 -16 -27 -16q-14 0 -4 31q23 71 67 159zM218 407q67 0 104 -54q22 -29 22 -86q0 -23 -2 -95t-2 -74q0 -19 11.5 -29.5t25.5 -10.5q5 0 35 12q3 2 6 -1q3 -6 3 -14q0 -17 -32.5 -42.5
t-70.5 -25.5q-57 0 -75 48q-1 3 -4.5 4.5t-4.5 -0.5q-21 -15 -79 -42q-22 -8 -44 -8q-29 0 -53 30t-24 71q0 26 18 51q8 12 36 24q10 4 37.5 12.5t60 17.5t38.5 11q18 6 18 15q1 8 2 38t0 39q-1 22 -18.5 43t-48.5 21q-22 0 -32 -7q-6 -3 -6 -46q0 -5 -4 -9q-5 -5 -44 -22.5
t-44 -17.5q-4 0 -8.5 4.5t-4.5 9.5q0 42 84 96q25 16 56 26.5t44 10.5zM190 49q20 0 38 12q9 5 9 19q4 28 4 89q0 10 -7 10q-13 0 -40 -9t-41 -17q-18 -13 -18 -40q0 -30 18.5 -47t36.5 -17z" />
    <glyph glyph-name="acircumflex" unicode="&#xe2;" horiz-adv-x="418" 
d="M199 650q11 0 32 -39q3 -6 15 -28t26 -49t27 -52q16 -37 -3 -37q-6 0 -16 7.5t-14 13.5q-12 17 -34.5 47l-28.5 38q-2 3 -6.5 3t-5.5 -3l-27 -36t-37 -50q-12 -18 -27 -18q-5 0 -7.5 9t1.5 18q0 1 74 142q19 34 31 34zM218 407q67 0 104 -54q22 -29 22 -86q0 -23 -2 -95
t-2 -74q0 -19 11.5 -29.5t25.5 -10.5q5 0 35 12q3 2 6 -1q3 -6 3 -14q0 -17 -32.5 -42.5t-70.5 -25.5q-57 0 -75 48q-1 3 -4.5 4.5t-4.5 -0.5q-21 -15 -79 -42q-22 -8 -44 -8q-29 0 -53 30t-24 71q0 26 18 51q8 12 36 24q10 4 37.5 12.5t60 17.5t38.5 11q18 6 18 15
q1 8 2 38t0 39q-1 22 -18.5 43t-48.5 21q-22 0 -32 -7q-6 -3 -6 -46q0 -5 -4 -9q-5 -5 -44 -22.5t-44 -17.5q-4 0 -8.5 4.5t-4.5 9.5q0 42 84 96q25 16 56 26.5t44 10.5zM190 49q20 0 38 12q9 5 9 19q4 28 4 89q0 10 -7 10q-13 0 -40 -9t-41 -17q-18 -13 -18 -40
q0 -30 18.5 -47t36.5 -17z" />
    <glyph glyph-name="atilde" unicode="&#xe3;" horiz-adv-x="418" 
d="M126 509q-4 0 -9 -5t-12 -14t-10 -12q-4 -4 -9 -4q-3 0 -10.5 8t-7.5 10t9.5 16t27.5 34t36 31q10 8 17 5q42 -10 96 -10q24 0 34 6q7 5 18 18l12 13q2 3 12 -5t10 -12q0 -5 -4 -8q-8 -8 -38 -40t-32 -34q-8 -8 -13 -8t-53.5 5.5t-73.5 5.5zM218 407q67 0 104 -54
q22 -29 22 -86q0 -23 -2 -95t-2 -74q0 -19 11.5 -29.5t25.5 -10.5q5 0 35 12q3 2 6 -1q3 -6 3 -14q0 -17 -32.5 -42.5t-70.5 -25.5q-57 0 -75 48q-1 3 -4.5 4.5t-4.5 -0.5q-21 -15 -79 -42q-22 -8 -44 -8q-29 0 -53 30t-24 71q0 26 18 51q8 12 36 24q10 4 37.5 12.5t60 17.5
t38.5 11q18 6 18 15q1 8 2 38t0 39q-1 22 -18.5 43t-48.5 21q-22 0 -32 -7q-6 -3 -6 -46q0 -5 -4 -9q-5 -5 -44 -22.5t-44 -17.5q-4 0 -8.5 4.5t-4.5 9.5q0 42 84 96q25 16 56 26.5t44 10.5zM190 49q20 0 38 12q9 5 9 19q4 28 4 89q0 10 -7 10q-13 0 -40 -9t-41 -17
q-18 -13 -18 -40q0 -30 18.5 -47t36.5 -17z" />
    <glyph glyph-name="adieresis" unicode="&#xe4;" horiz-adv-x="418" 
d="M109 605q22 0 36.5 -18.5t14.5 -39.5q0 -25 -18 -40t-39 -15q-20 0 -36 14.5t-16 41.5q0 22 16.5 39.5t41.5 17.5zM298 605q22 0 36.5 -18.5t14.5 -39.5q0 -23 -18.5 -39t-38.5 -16t-36.5 15t-16.5 41q0 22 17.5 39.5t41.5 17.5zM218 407q67 0 104 -54q22 -29 22 -86
q0 -23 -2 -95t-2 -74q0 -19 11.5 -29.5t25.5 -10.5q5 0 35 12q3 2 6 -1q3 -6 3 -14q0 -17 -32.5 -42.5t-70.5 -25.5q-57 0 -75 48q-1 3 -4.5 4.5t-4.5 -0.5q-21 -15 -79 -42q-22 -8 -44 -8q-29 0 -53 30t-24 71q0 26 18 51q8 12 36 24q10 4 37.5 12.5t60 17.5t38.5 11
q18 6 18 15q1 8 2 38t0 39q-1 22 -18.5 43t-48.5 21q-22 0 -32 -7q-6 -3 -6 -46q0 -5 -4 -9q-5 -5 -44 -22.5t-44 -17.5q-4 0 -8.5 4.5t-4.5 9.5q0 42 84 96q25 16 56 26.5t44 10.5zM190 49q20 0 38 12q9 5 9 19q4 28 4 89q0 10 -7 10q-13 0 -40 -9t-41 -17q-18 -13 -18 -40
q0 -30 18.5 -47t36.5 -17z" />
    <glyph glyph-name="aring" unicode="&#xe5;" horiz-adv-x="418" 
d="M203 628q36 0 59.5 -24.5t23.5 -58.5t-23.5 -59t-59.5 -25t-59.5 25t-23.5 59t23.5 58.5t59.5 24.5zM203 594q-19 0 -31 -14t-12 -35q0 -23 12 -36.5t31 -13.5t31 13t12 38q0 20 -12.5 34t-30.5 14zM218 407q67 0 104 -54q22 -29 22 -86q0 -23 -2 -95t-2 -74
q0 -19 11.5 -29.5t25.5 -10.5q5 0 35 12q3 2 6 -1q3 -6 3 -14q0 -17 -32.5 -42.5t-70.5 -25.5q-57 0 -75 48q-1 3 -4.5 4.5t-4.5 -0.5q-21 -15 -79 -42q-22 -8 -44 -8q-29 0 -53 30t-24 71q0 26 18 51q8 12 36 24q10 4 37.5 12.5t60 17.5t38.5 11q18 6 18 15q1 8 2 38t0 39
q-1 22 -18.5 43t-48.5 21q-22 0 -32 -7q-6 -3 -6 -46q0 -5 -4 -9q-5 -5 -44 -22.5t-44 -17.5q-4 0 -8.5 4.5t-4.5 9.5q0 42 84 96q25 16 56 26.5t44 10.5zM190 49q20 0 38 12q9 5 9 19q4 28 4 89q0 10 -7 10q-13 0 -40 -9t-41 -17q-18 -13 -18 -40q0 -30 18.5 -47t36.5 -17z
" />
    <glyph glyph-name="ae" unicode="&#xe6;" horiz-adv-x="589" 
d="M32 274q0 22 36 56q38 32 103 64q28 14 47 14q62 0 103 -52q4 -4 10 0q39 28 64.5 40t55.5 12q58 0 86.5 -38t28.5 -80q0 -6 -6 -14t-12 -9l-82 -23q-83 -22 -106 -29q-17 -6 -17 -15q0 -58 3 -75t17 -33q10 -12 34 -21t44 -9q66 0 113 44q4 4 8.5 0t4.5 -11
q0 -11 -11 -28q-22 -33 -63 -56t-87 -23q-99 0 -146 57q-8 8 -14 5q-5 -3 -19.5 -13.5t-21.5 -15t-20 -12.5t-22 -12t-20.5 -7t-21.5 -3q-31 0 -60 27.5t-29 70.5q0 56 61 77q12 5 68 25.5t64 23.5q15 5 17 14q4 93 -12 113q-19 24 -51 24q-16 0 -33 -13q-8 -5 -5 -30
q1 -15 -4 -20q-2 -2 -44 -21t-48 -19q-3 0 -8 5.5t-5 9.5zM407 361q-20 0 -37 -11t-24 -23q-6 -9 -6 -23q3 -27 3 -58q0 -2 3 -4t5 -1q63 16 98 32q24 11 24 33q0 16 -16 35.5t-50 19.5zM182 49q29 0 52 24q3 4 6 23q1 10 1 26t-0.5 33.5t-0.5 21.5q0 3 -3 4.5t-7 0.5
q-31 -11 -48.5 -19.5t-32.5 -24t-15 -35.5q0 -25 14 -39.5t34 -14.5z" />
    <glyph glyph-name="ccedilla" unicode="&#xe7;" horiz-adv-x="414" 
d="M273 407q70 0 105 -25q16 -12 16 -33q0 -12 -15 -28t-26 -16q-16 0 -50 27q-18 14 -25.5 19.5t-20.5 11t-25 5.5q-29 0 -53 -27q-37 -46 -37 -119q0 -74 41 -118.5t104 -44.5q50 0 90 30q4 4 8.5 2.5t4.5 -6.5q0 -21 -14 -35q-39 -41 -92 -55q-6 -8 -14 -18l-12 -15
t-4 -6q-5 -8 5 -14q62 -30 62 -82q0 -23 -19.5 -47t-41.5 -39q-43 -30 -68 -30q-14 0 -22 13q-11 18 4 34q7 10 17 8q25 -5 35 -5q16 0 25 11t9 26q0 20 -17.5 32.5t-40.5 12.5q-9 0 -16 -1q-4 0 -11.5 8t-7.5 12t8 13q26 28 69 81q-4 -1 -14 -1q-54 0 -97.5 22.5
t-69.5 59.5q-31 52 -31 115q0 111 104 180q26 18 66 30t71 12z" />
    <glyph glyph-name="egrave" unicode="&#xe8;" horiz-adv-x="414" 
d="M179 655q16 0 29 -35q27 -65 52 -145q10 -33 -5 -33q-14 0 -25 16q-41 52 -94 147q-8 16 -6 28q3 10 21 17q12 5 28 5zM241 407q65 0 107 -42q38 -36 38 -88q0 -6 -7 -15t-15 -9h-218q-9 0 -11 -7q-4 -11 -4 -36q0 -18 9 -46.5t22 -46.5q39 -50 111 -50q63 0 90 35
q8 12 13 12q3 0 6 -4.5t3 -8.5q0 -12 -8 -25q-56 -87 -160 -87q-84 0 -134.5 57t-50.5 144q0 62 33.5 116t93.5 82q40 19 82 19zM234 379q-31 0 -57.5 -25t-35.5 -60q-2 -10 7 -10h26.5h38.5h42q14 0 24.5 8.5t10.5 25.5q0 21 -17.5 41t-38.5 20z" />
    <glyph glyph-name="eacute" unicode="&#xe9;" horiz-adv-x="414" 
d="M265 634q2 6 11 12t18 6q41 0 43 -15q2 -13 -7 -28q-14 -27 -49.5 -79t-51.5 -70q-16 -16 -27 -16q-14 0 -4 31q23 71 67 159zM241 407q65 0 107 -42q38 -36 38 -88q0 -6 -7 -15t-15 -9h-218q-9 0 -11 -7q-4 -11 -4 -36q0 -18 9 -46.5t22 -46.5q39 -50 111 -50
q63 0 90 35q8 12 13 12q3 0 6 -4.5t3 -8.5q0 -12 -8 -25q-56 -87 -160 -87q-84 0 -134.5 57t-50.5 144q0 62 33.5 116t93.5 82q40 19 82 19zM234 379q-31 0 -57.5 -25t-35.5 -60q-2 -10 7 -10h26.5h38.5h42q14 0 24.5 8.5t10.5 25.5q0 21 -17.5 41t-38.5 20z" />
    <glyph glyph-name="ecircumflex" unicode="&#xea;" horiz-adv-x="414" 
d="M222 651q11 0 32 -39q3 -6 15 -28t26 -49t27 -52q16 -37 -3 -37q-6 0 -16 7.5t-14 13.5q-12 17 -34.5 47l-28.5 38q-2 3 -6 3t-6 -3l-27 -36t-37 -50q-12 -18 -27 -18q-5 0 -7.5 9t1.5 18q0 1 74 142q19 34 31 34zM241 407q65 0 107 -42q38 -36 38 -88q0 -6 -7 -15
t-15 -9h-218q-9 0 -11 -7q-4 -11 -4 -36q0 -18 9 -46.5t22 -46.5q39 -50 111 -50q63 0 90 35q8 12 13 12q3 0 6 -4.5t3 -8.5q0 -12 -8 -25q-56 -87 -160 -87q-84 0 -134.5 57t-50.5 144q0 62 33.5 116t93.5 82q40 19 82 19zM234 379q-31 0 -57.5 -25t-35.5 -60q-2 -10 7 -10
h26.5h38.5h42q14 0 24.5 8.5t10.5 25.5q0 21 -17.5 41t-38.5 20z" />
    <glyph glyph-name="edieresis" unicode="&#xeb;" horiz-adv-x="414" 
d="M130 605q22 0 36.5 -18.5t14.5 -39.5q0 -25 -18 -40t-39 -15q-20 0 -36 14.5t-16 41.5q0 22 16.5 39.5t41.5 17.5zM319 605q22 0 36.5 -18.5t14.5 -39.5q0 -23 -18.5 -39t-38.5 -16t-36.5 15t-16.5 41q0 22 17.5 39.5t41.5 17.5zM241 407q65 0 107 -42q38 -36 38 -88
q0 -6 -7 -15t-15 -9h-218q-9 0 -11 -7q-4 -11 -4 -36q0 -18 9 -46.5t22 -46.5q39 -50 111 -50q63 0 90 35q8 12 13 12q3 0 6 -4.5t3 -8.5q0 -12 -8 -25q-56 -87 -160 -87q-84 0 -134.5 57t-50.5 144q0 62 33.5 116t93.5 82q40 19 82 19zM234 379q-31 0 -57.5 -25t-35.5 -60
q-2 -10 7 -10h26.5h38.5h42q14 0 24.5 8.5t10.5 25.5q0 21 -17.5 41t-38.5 20z" />
    <glyph glyph-name="igrave" unicode="&#xec;" horiz-adv-x="272" 
d="M84 655q16 0 29 -35q27 -65 52 -145q10 -33 -5 -33q-14 0 -25 16q-41 52 -94 147q-8 16 -6 28q3 10 21 17q12 5 28 5zM42 355q0 13 27 18q24 5 71.5 20.5t48.5 15.5q3 0 6.5 -4t3.5 -7q-5 -85 -5 -226q0 -31 2 -101q1 -21 9 -28t30 -14t22 -19q0 -13 -28 -13
q-2 0 -36 1.5t-47 1.5q-18 0 -54 -2t-43 -2q-28 0 -28 13q0 10 26 18q33 10 37 29q6 21 6 156q0 78 -2 90q-1 9 -34 36q-12 12 -12 17z" />
    <glyph glyph-name="iacute" unicode="&#xed;" horiz-adv-x="272" 
d="M174 634q2 6 11 12t18 6q41 0 43 -15q2 -13 -7 -28q-14 -27 -49.5 -79t-51.5 -70q-16 -16 -27 -16q-14 0 -4 31q23 71 67 159zM42 355q0 13 27 18q24 5 71.5 20.5t48.5 15.5q3 0 6.5 -4t3.5 -7q-5 -85 -5 -226q0 -31 2 -101q1 -21 9 -28t30 -14t22 -19q0 -13 -28 -13
q-2 0 -36 1.5t-47 1.5q-18 0 -54 -2t-43 -2q-28 0 -28 13q0 10 26 18q33 10 37 29q6 21 6 156q0 78 -2 90q-1 9 -34 36q-12 12 -12 17z" />
    <glyph glyph-name="icircumflex" unicode="&#xee;" horiz-adv-x="272" 
d="M138 651q11 0 32 -39q3 -6 15 -28t26 -49t27 -52q16 -37 -3 -37q-6 0 -16 7.5t-14 13.5q-12 17 -34.5 47l-28.5 38q-2 3 -6 3t-6 -3l-27 -36t-37 -50q-12 -18 -27 -18q-5 0 -7.5 9t1.5 18q0 1 74 142q19 34 31 34zM42 355q0 13 27 18q24 5 71.5 20.5t48.5 15.5
q3 0 6.5 -4t3.5 -7q-5 -85 -5 -226q0 -31 2 -101q1 -21 9 -28t30 -14t22 -19q0 -13 -28 -13q-2 0 -36 1.5t-47 1.5q-18 0 -54 -2t-43 -2q-28 0 -28 13q0 10 26 18q33 10 37 29q6 21 6 156q0 78 -2 90q-1 9 -34 36q-12 12 -12 17z" />
    <glyph glyph-name="idieresis" unicode="&#xef;" horiz-adv-x="272" 
d="M50 605q22 0 36.5 -18.5t14.5 -39.5q0 -25 -18 -40t-39 -15q-20 0 -36 14.5t-16 41.5q0 22 16.5 39.5t41.5 17.5zM239 605q22 0 36.5 -18.5t14.5 -39.5q0 -23 -18.5 -39t-38.5 -16t-36.5 15t-16.5 41q0 22 17.5 39.5t41.5 17.5zM42 355q0 13 27 18q24 5 71.5 20.5
t48.5 15.5q3 0 6.5 -4t3.5 -7q-5 -85 -5 -226q0 -31 2 -101q1 -21 9 -28t30 -14t22 -19q0 -13 -28 -13q-2 0 -36 1.5t-47 1.5q-18 0 -54 -2t-43 -2q-28 0 -28 13q0 10 26 18q33 10 37 29q6 21 6 156q0 78 -2 90q-1 9 -34 36q-12 12 -12 17z" />
    <glyph glyph-name="eth" unicode="&#xf0;" horiz-adv-x="499" 
d="M63 689q0 7 8 12.5t16 5.5q44 -1 102 -26t110 -62q2 -1 8.5 -1.5t7.5 0.5q34 18 100 52q10 3 10 -4q7 -13 5 -19q0 -11 -16 -19l-69 -36q-2 -1 -2.5 -5.5t0.5 -5.5q58 -64 90 -149t32 -169q0 -91 -29.5 -151t-70.5 -86q-56 -38 -116 -38q-99 0 -158.5 59t-59.5 147
q0 66 37 122q30 43 81 68.5t116 25.5q22 0 54 -8q9 0 7 8q-13 75 -58 133q-3 5 -10 3q-16 -8 -54.5 -26t-54.5 -26q-11 -8 -17 0q-9 14 -9 17q1 6 7 10q51 27 101 52q8 3 2 9q-85 79 -152 94q-18 4 -18 13zM253 374q-37 0 -66 -40q-33 -52 -33 -137q0 -66 32 -120.5
t76 -54.5q23 0 35.5 12t28.5 41q10 18 17 60t7 76q0 91 -23 123q-34 40 -74 40z" />
    <glyph glyph-name="ntilde" unicode="&#xf1;" horiz-adv-x="534" 
d="M196 510q-4 0 -9 -5t-12 -14t-10 -12q-4 -4 -9 -4q-3 0 -10.5 8t-7.5 10t9.5 16t27.5 34t36 31q10 8 17 5q42 -10 96 -10q24 0 34 6q7 5 18 18l12 13q2 3 12 -5t10 -12q0 -5 -4 -8q-8 -8 -38 -40t-32 -34q-8 -8 -13 -8t-53.5 5.5t-73.5 5.5zM49 350q0 4 6.5 12t11.5 10
q52 16 81 30q30 15 34 15q3 0 7 -6t4 -9q0 -6 -0.5 -23t-0.5 -21q0 -3 2 -4t4 -1h1q72 54 127 54q57 0 92 -40q36 -41 36 -121q0 -140 3 -182q3 -25 35 -34q26 -7 26 -18q0 -14 -29 -14q-11 0 -44 1t-47 1t-43.5 -1.5t-35.5 -1.5q-27 0 -27 14q0 10 24 17q17 7 22.5 16.5
t7.5 34.5q2 33 2 186q0 40 -22 60q-23 21 -57 21q-38 0 -66 -20q-7 -5 -10 -22q-1 -12 0 -123.5t2 -120.5q1 -12 7 -18t28 -13q17 -8 17 -17q0 -14 -28 -14q-9 0 -37.5 1t-39.5 1q-21 0 -54 -1.5t-39 -1.5q-27 0 -27 15q0 10 21 16q25 8 32 18t9 38q5 50 5 211q0 15 -29 41
q-11 11 -11 14z" />
    <glyph glyph-name="ograve" unicode="&#xf2;" horiz-adv-x="504" 
d="M201 656q16 0 29 -35q27 -65 52 -145q10 -33 -5 -33q-14 0 -25 16q-41 52 -94 147q-8 16 -6 28q3 10 21 17q12 5 28 5zM261 407q81 0 146 -58t65 -150q0 -58 -27.5 -103t-61.5 -67q-58 -41 -138 -41q-34 0 -72 14.5t-66 37.5q-33 27 -54 69.5t-21 84.5q0 97 69 155
q67 58 160 58zM242 374q-26 0 -49 -22q-41 -37 -41 -131q0 -59 12 -96q15 -50 45.5 -77t63.5 -27q22 0 44 25q37 48 37 137q0 94 -40 151q-31 40 -72 40z" />
    <glyph glyph-name="oacute" unicode="&#xf3;" horiz-adv-x="504" 
d="M290 634q2 6 11 12t18 6q41 0 43 -15q2 -13 -7 -28q-14 -27 -49.5 -79t-51.5 -70q-16 -16 -27 -16q-14 0 -4 31q23 71 67 159zM261 407q81 0 146 -58t65 -150q0 -58 -27.5 -103t-61.5 -67q-58 -41 -138 -41q-34 0 -72 14.5t-66 37.5q-33 27 -54 69.5t-21 84.5
q0 97 69 155q67 58 160 58zM242 374q-26 0 -49 -22q-41 -37 -41 -131q0 -59 12 -96q15 -50 45.5 -77t63.5 -27q22 0 44 25q37 48 37 137q0 94 -40 151q-31 40 -72 40z" />
    <glyph glyph-name="ocircumflex" unicode="&#xf4;" horiz-adv-x="504" 
d="M251 651q11 0 32 -39q3 -6 15 -28t26 -49t27 -52q16 -37 -3 -37q-6 0 -16 7.5t-14 13.5q-12 17 -34.5 47l-28.5 38q-2 3 -6.5 3t-5.5 -3l-27 -36t-37 -50q-12 -18 -27 -18q-5 0 -7.5 9t1.5 18q0 1 74 142q19 34 31 34zM261 407q81 0 146 -58t65 -150q0 -58 -27.5 -103
t-61.5 -67q-58 -41 -138 -41q-34 0 -72 14.5t-66 37.5q-33 27 -54 69.5t-21 84.5q0 97 69 155q67 58 160 58zM242 374q-26 0 -49 -22q-41 -37 -41 -131q0 -59 12 -96q15 -50 45.5 -77t63.5 -27q22 0 44 25q37 48 37 137q0 94 -40 151q-31 40 -72 40z" />
    <glyph glyph-name="otilde" unicode="&#xf5;" horiz-adv-x="504" 
d="M177 508q-4 0 -9 -5t-12 -14t-10 -12q-4 -4 -9 -4q-3 0 -10.5 8t-7.5 10t9.5 16t27.5 34t36 31q10 8 17 5q42 -10 96 -10q24 0 34 6q7 5 19 18l11 13q2 3 12 -5t10 -12q0 -5 -4 -8q-8 -8 -38 -40t-32 -34q-8 -8 -13 -8t-53.5 5.5t-73.5 5.5zM261 407q81 0 146 -58
t65 -150q0 -58 -27.5 -103t-61.5 -67q-58 -41 -138 -41q-34 0 -72 14.5t-66 37.5q-33 27 -54 69.5t-21 84.5q0 97 69 155q67 58 160 58zM242 374q-26 0 -49 -22q-41 -37 -41 -131q0 -59 12 -96q15 -50 45.5 -77t63.5 -27q22 0 44 25q37 48 37 137q0 94 -40 151
q-31 40 -72 40z" />
    <glyph glyph-name="odieresis" unicode="&#xf6;" horiz-adv-x="504" 
d="M155 605q22 0 36.5 -18.5t14.5 -39.5q0 -25 -18 -40t-39 -15q-20 0 -36 14.5t-16 41.5q0 22 16.5 39.5t41.5 17.5zM344 605q22 0 36.5 -18.5t14.5 -39.5q0 -23 -18.5 -39t-38.5 -16t-36.5 15t-16.5 41q0 22 17.5 39.5t41.5 17.5zM261 407q81 0 146 -58t65 -150
q0 -58 -27.5 -103t-61.5 -67q-58 -41 -138 -41q-34 0 -72 14.5t-66 37.5q-33 27 -54 69.5t-21 84.5q0 97 69 155q67 58 160 58zM242 374q-26 0 -49 -22q-41 -37 -41 -131q0 -59 12 -96q15 -50 45.5 -77t63.5 -27q22 0 44 25q37 48 37 137q0 94 -40 151q-31 40 -72 40z" />
    <glyph glyph-name="divide" unicode="&#xf7;" horiz-adv-x="624" 
d="M311 146q23 0 39.5 -16.5t16.5 -38.5q0 -25 -16 -42.5t-40 -17.5q-25 0 -41.5 17.5t-16.5 42.5q0 22 16.5 38.5t41.5 16.5zM311 359q-22 0 -39 16.5t-17 39.5t17 41t39 18q25 0 41.5 -17.5t16.5 -41.5t-16.5 -40t-41.5 -16zM552 284q11 0 11 -12q0 -18 -4.5 -33t-9.5 -15
h-470q-19 0 -19 15q0 12 4 28.5t9 16.5h479z" />
    <glyph glyph-name="oslash" unicode="&#xf8;" horiz-adv-x="508" 
d="M263 407q57 0 102 -25q7 0 8 1l20 24q10 13 17 13q6 0 11.5 -5t6.5 -9.5t0 -6.5l-12.5 -17.5t-13.5 -17.5q-2 -5 2 -8q72 -65 72 -159q0 -55 -27.5 -100t-61.5 -67q-58 -42 -139 -42q-47 0 -103 27q-2 1 -6 0.5t-5 -2.5l-33 -39q-3 -3 -11 1q-8 6 -10.5 12.5t0.5 8.5
q12 16 28 36q2 4 -2 8q-74 63 -74 152q0 99 69 157q70 58 162 58zM188 71q34 -50 79 -50q29 0 58 31q35 46 35 133q0 48 -14 93q-2 5 -6 4q-10 -12 -66 -85.5t-86 -111.5q-6 -8 0 -14zM242 375q-25 0 -51 -24q-15 -15 -28 -51.5t-13 -82.5q0 -56 15 -96q0 -2 3.5 -3t4.5 0
q15 20 69 90.5t82 107.5q4 6 -1 11q-35 48 -81 48z" />
    <glyph glyph-name="ugrave" unicode="&#xf9;" horiz-adv-x="513" 
d="M190 655q16 0 29 -35q27 -65 52 -145q10 -33 -5 -33q-14 0 -25 16q-41 52 -94 147q-8 16 -6 28q3 10 21 17q12 5 28 5zM256 51q32 0 61 24q3 2 6.5 11t3.5 12l1 224q0 15 -17 23q-5 2 -40 15q-16 5 -16 18q0 3 5.5 6.5t11.5 3.5q69 0 132 13q20 4 24 4q10 0 10 -16
q-5 -90 -5 -322q0 -18 13 -18q3 0 20 3.5t25 3.5q3 0 12 -26q1 -2 -4 -6.5t-8 -4.5q-30 -2 -102 -21q-44 -13 -52 -13q-3 0 -7 4.5t-4 9.5q0 7 2 41q0 2 -1 4.5t-2.5 3t-2.5 -0.5q-51 -37 -70 -44q-32 -15 -64 -15q-67 0 -102 53q-11 16 -11 53q0 141 -3 221q0 14 -6 22.5
t-11 11.5t-17 8q-18 8 -18 21q0 11 16 11q12 0 45.5 2.5t62.5 5.5t30 3q3 0 5.5 -5.5t2.5 -9.5q1 -51 0.5 -94t-1 -103.5t-0.5 -74.5q0 -26 19 -43q25 -19 56 -19z" />
    <glyph glyph-name="uacute" unicode="&#xfa;" horiz-adv-x="513" 
d="M291 628q2 6 11 12t18 6q41 0 43 -15q2 -13 -7 -28q-14 -27 -49.5 -79t-51.5 -70q-16 -16 -27 -16q-14 0 -4 31q23 71 67 159zM256 51q32 0 61 24q3 2 6.5 11t3.5 12l1 224q0 15 -17 23q-5 2 -40 15q-16 5 -16 18q0 3 5.5 6.5t11.5 3.5q69 0 132 13q20 4 24 4
q10 0 10 -16q-5 -90 -5 -322q0 -18 13 -18q3 0 20 3.5t25 3.5q3 0 12 -26q1 -2 -4 -6.5t-8 -4.5q-30 -2 -102 -21q-44 -13 -52 -13q-3 0 -7 4.5t-4 9.5q0 7 2 41q0 2 -1 4.5t-2.5 3t-2.5 -0.5q-51 -37 -70 -44q-32 -15 -64 -15q-67 0 -102 53q-11 16 -11 53q0 141 -3 221
q0 14 -6 22.5t-11 11.5t-17 8q-18 8 -18 21q0 11 16 11q12 0 45.5 2.5t62.5 5.5t30 3q3 0 5.5 -5.5t2.5 -9.5q1 -51 0.5 -94t-1 -103.5t-0.5 -74.5q0 -26 19 -43q25 -19 56 -19z" />
    <glyph glyph-name="ucircumflex" unicode="&#xfb;" horiz-adv-x="513" 
d="M251 651q11 0 32 -39q3 -6 15 -28t26 -49t27 -52q16 -37 -3 -37q-6 0 -16 7.5t-14 13.5q-12 17 -34.5 47l-28.5 38q-2 3 -6.5 3t-5.5 -3l-27 -36t-37 -50q-12 -18 -27 -18q-5 0 -7.5 9t1.5 18q0 1 74 142q19 34 31 34zM256 51q32 0 61 24q3 2 6.5 11t3.5 12l1 224
q0 15 -17 23q-5 2 -40 15q-16 5 -16 18q0 3 5.5 6.5t11.5 3.5q69 0 132 13q20 4 24 4q10 0 10 -16q-5 -90 -5 -322q0 -18 13 -18q3 0 20 3.5t25 3.5q3 0 12 -26q1 -2 -4 -6.5t-8 -4.5q-30 -2 -102 -21q-44 -13 -52 -13q-3 0 -7 4.5t-4 9.5q0 7 2 41q0 2 -1 4.5t-2.5 3
t-2.5 -0.5q-51 -37 -70 -44q-32 -15 -64 -15q-67 0 -102 53q-11 16 -11 53q0 141 -3 221q0 14 -6 22.5t-11 11.5t-17 8q-18 8 -18 21q0 11 16 11q12 0 45.5 2.5t62.5 5.5t30 3q3 0 5.5 -5.5t2.5 -9.5q1 -51 0.5 -94t-1 -103.5t-0.5 -74.5q0 -26 19 -43q25 -19 56 -19z" />
    <glyph glyph-name="udieresis" unicode="&#xfc;" horiz-adv-x="513" 
d="M153 605q22 0 36.5 -18.5t14.5 -39.5q0 -25 -18 -40t-39 -15q-20 0 -36 14.5t-16 41.5q0 22 16.5 39.5t41.5 17.5zM342 605q22 0 36.5 -18.5t14.5 -39.5q0 -23 -18.5 -39t-38.5 -16t-36.5 15t-16.5 41q0 22 17.5 39.5t41.5 17.5zM256 51q32 0 61 24q3 2 6.5 11t3.5 12
l1 224q0 15 -17 23q-5 2 -40 15q-16 5 -16 18q0 3 5.5 6.5t11.5 3.5q69 0 132 13q20 4 24 4q10 0 10 -16q-5 -90 -5 -322q0 -18 13 -18q3 0 20 3.5t25 3.5q3 0 12 -26q1 -2 -4 -6.5t-8 -4.5q-30 -2 -102 -21q-44 -13 -52 -13q-3 0 -7 4.5t-4 9.5q0 7 2 41q0 2 -1 4.5t-2.5 3
t-2.5 -0.5q-51 -37 -70 -44q-32 -15 -64 -15q-67 0 -102 53q-11 16 -11 53q0 141 -3 221q0 14 -6 22.5t-11 11.5t-17 8q-18 8 -18 21q0 11 16 11q12 0 45.5 2.5t62.5 5.5t30 3q3 0 5.5 -5.5t2.5 -9.5q1 -51 0.5 -94t-1 -103.5t-0.5 -74.5q0 -26 19 -43q25 -19 56 -19z" />
    <glyph glyph-name="yacute" unicode="&#xfd;" horiz-adv-x="426" 
d="M276 634q2 6 11 12t18 6q41 0 43 -15q2 -13 -7 -28q-14 -27 -49.5 -79t-51.5 -70q-16 -16 -27 -16q-14 0 -4 31q23 71 67 159zM-13 385q0 4 6.5 8t17.5 4q18 0 51.5 -2t47.5 -2q17 0 46.5 1t34.5 1q24 0 24 -12q0 -11 -24 -19q-20 -6 -23 -13.5t4 -26.5
q10 -34 37.5 -99.5t39.5 -89.5q5 -7 10 3q60 145 72 181q5 18 -3 29t-35 18q-21 6 -21 16q0 13 25 13q10 0 31.5 -1t27.5 -1t31 2t39 2q21 0 21 -12q0 -11 -24 -18q-28 -8 -52 -49q-35 -74 -113 -268q-85 -215 -108 -272q-6 -15 -23.5 -24.5t-33.5 -9.5q-26 0 -39.5 17
t-13.5 38q0 15 12 32t33 17q2 0 21 -0.5t25 -0.5q11 0 18 17q12 21 44 113q4 15 1 21q-6 11 -17 43q-72 180 -123 287q-9 17 -16.5 24t-27.5 13q-23 8 -23 20z" />
    <glyph glyph-name="thorn" unicode="&#xfe;" horiz-adv-x="505" 
d="M74 75q0 37 -0.5 119t-0.5 97q0 212 -5 297q-2 16 -15 26q-6 4 -12 8.5t-10 7t-7 5t-4.5 4.5t-1.5 3q0 5 6.5 11t11.5 8q89 23 107 32q24 12 30 12q2 0 6.5 -5.5t4.5 -9.5q-2 -43 -5 -318q0 -2 3 -4.5t5 -1.5q15 8 57 27q27 11 70 11q30 0 61.5 -15.5t51.5 -39.5
q50 -55 50 -131q0 -106 -86 -174q-64 -51 -153 -51q-30 0 -48 3q-3 1 -6 -4.5t-3 -9.5q-2 -104 4 -150q3 -23 11.5 -34.5t36.5 -19.5q27 -9 27 -19q0 -6 -9 -10t-19 -4q-13 0 -63.5 2.5t-69.5 2.5q-11 0 -34.5 -1t-47.5 -1q-28 0 -28 15q0 11 26 17q35 7 44 20.5t11 59.5
q4 140 4 215zM247 349q-38 0 -53 -9q-9 -7 -11 -25q-7 -55 -5 -184q2 -28 10 -45q15 -26 40 -42t42 -16q18 0 33 11q24 17 38.5 53t18 59.5t3.5 38.5q0 71 -41 118q-16 17 -39 29t-36 12z" />
    <glyph glyph-name="ydieresis" unicode="&#xff;" horiz-adv-x="426" 
d="M137 605q22 0 36.5 -18.5t14.5 -39.5q0 -25 -18 -40t-39 -15q-20 0 -36 14.5t-16 41.5q0 22 16.5 39.5t41.5 17.5zM326 605q22 0 36.5 -18.5t14.5 -39.5q0 -23 -18.5 -39t-38.5 -16t-36.5 15t-16.5 41q0 22 17.5 39.5t41.5 17.5zM-13 385q0 4 6.5 8t17.5 4q18 0 51.5 -2
t47.5 -2q17 0 46.5 1t34.5 1q24 0 24 -12q0 -11 -24 -19q-20 -6 -23 -13.5t4 -26.5q10 -34 37.5 -99.5t39.5 -89.5q5 -7 10 3q60 145 72 181q5 18 -3 29t-35 18q-21 6 -21 16q0 13 25 13q10 0 31.5 -1t27.5 -1t31 2t39 2q21 0 21 -12q0 -11 -24 -18q-28 -8 -52 -49
q-35 -74 -113 -268q-85 -215 -108 -272q-6 -15 -23.5 -24.5t-33.5 -9.5q-26 0 -39.5 17t-13.5 38q0 15 12 32t33 17q2 0 21 -0.5t25 -0.5q11 0 18 17q12 21 44 113q4 15 1 21q-6 11 -17 43q-72 180 -123 287q-9 17 -16.5 24t-27.5 13q-23 8 -23 20z" />
    <glyph glyph-name="Amacron" unicode="&#x100;" horiz-adv-x="677" 
d="M356 650q8 0 17 -22q10 -27 40 -112q90 -252 143 -386q23 -56 41 -74t48 -27q26 -8 26 -18q0 -15 -33 -15q-12 0 -63.5 2t-67.5 2q-17 0 -51.5 -1t-46.5 -1q-32 0 -32 15q0 12 26 17q28 7 35 17t5 25q-2 23 -46 146q-1 4 -8.5 9.5t-15.5 5.5q-111 1 -168 -3q-4 0 -11 -10
q-43 -108 -43 -145q0 -16 10.5 -26.5t36.5 -17.5q29 -7 29 -20t-30 -13q-7 0 -33 1t-47 1q-23 0 -59 -2t-40 -2q-29 0 -29 12q0 13 25 20q37 10 52.5 26t38.5 63q13 26 85 208.5t89 223.5q5 10 5 18q0 7 2 8q34 35 52 62q9 13 18 13zM371 281q1 0 3 2.5t1 5.5
q-37 117 -73 201q-2 5 -5.5 4t-5.5 -7q-68 -180 -72 -198q-2 -10 7 -10q78 2 145 2zM233 761l226 3q7 0 7 -26q0 -15 -6.5 -27.5t-12.5 -12.5h-221q-2 0 -5.5 5.5t-3.5 10.5q0 13 6 30t10 17z" />
    <glyph glyph-name="amacron" unicode="&#x101;" horiz-adv-x="418" 
d="M101 571l212 3q7 0 7 -25q0 -15 -6.5 -28t-11.5 -13l-207 -1q-2 0 -5 5.5t-3 11.5q0 10 3 21.5t6 18.5t5 7zM218 407q67 0 104 -54q22 -29 22 -86q0 -23 -2 -95t-2 -74q0 -19 11.5 -29.5t25.5 -10.5q5 0 35 12q3 2 6 -1q3 -6 3 -14q0 -17 -32.5 -42.5t-70.5 -25.5
q-57 0 -75 48q-1 3 -4.5 4.5t-4.5 -0.5q-21 -15 -79 -42q-22 -8 -44 -8q-29 0 -53 30t-24 71q0 26 18 51q8 12 36 24q10 4 37.5 12.5t60 17.5t38.5 11q18 6 18 15q1 8 2 38t0 39q-1 22 -18.5 43t-48.5 21q-22 0 -32 -7q-6 -3 -6 -46q0 -5 -4 -9q-5 -5 -44 -22.5t-44 -17.5
q-4 0 -8.5 4.5t-4.5 9.5q0 42 84 96q25 16 56 26.5t44 10.5zM190 49q20 0 38 12q9 5 9 19q4 28 4 89q0 10 -7 10q-13 0 -40 -9t-41 -17q-18 -13 -18 -40q0 -30 18.5 -47t36.5 -17z" />
    <glyph glyph-name="Abreve" unicode="&#x102;" horiz-adv-x="677" 
d="M356 650q8 0 17 -22q10 -27 40 -112q90 -252 143 -386q23 -56 41 -74t48 -27q26 -8 26 -18q0 -15 -33 -15q-12 0 -63.5 2t-67.5 2q-17 0 -51.5 -1t-46.5 -1q-32 0 -32 15q0 12 26 17q28 7 35 17t5 25q-2 23 -46 146q-1 4 -8.5 9.5t-15.5 5.5q-111 1 -168 -3q-4 0 -11 -10
q-43 -108 -43 -145q0 -16 10.5 -26.5t36.5 -17.5q29 -7 29 -20t-30 -13q-7 0 -33 1t-47 1q-23 0 -59 -2t-40 -2q-29 0 -29 12q0 13 25 20q37 10 52.5 26t38.5 63q13 26 85 208.5t89 223.5q5 10 5 18q0 7 2 8q34 35 52 62q9 13 18 13zM371 281q1 0 3 2.5t1 5.5
q-37 117 -73 201q-2 5 -5.5 4t-5.5 -7q-68 -180 -72 -198q-2 -10 7 -10q78 2 145 2zM338 681q-48 0 -83 28.5t-40 79.5q-2 20 11 20q12 0 21 -15q31 -49 95 -49q67 0 100 46q10 15 21 15q3 0 5.5 -5.5t1.5 -9.5q-4 -37 -36 -73.5t-96 -36.5z" />
    <glyph glyph-name="abreve" unicode="&#x103;" horiz-adv-x="418" 
d="M196 471q-42 0 -70.5 28.5t-29.5 87.5q-1 12 5.5 21t13.5 9q11 0 14 -18q16 -65 72 -65t77 67q1 6 9 11t14 5q4 0 6.5 -7.5t2.5 -11.5q-2 -44 -29 -85.5t-85 -41.5zM218 407q67 0 104 -54q22 -29 22 -86q0 -23 -2 -95t-2 -74q0 -19 11.5 -29.5t25.5 -10.5q5 0 35 12
q3 2 6 -1q3 -6 3 -14q0 -17 -32.5 -42.5t-70.5 -25.5q-57 0 -75 48q-1 3 -4.5 4.5t-4.5 -0.5q-21 -15 -79 -42q-22 -8 -44 -8q-29 0 -53 30t-24 71q0 26 18 51q8 12 36 24q10 4 37.5 12.5t60 17.5t38.5 11q18 6 18 15q1 8 2 38t0 39q-1 22 -18.5 43t-48.5 21q-22 0 -32 -7
q-6 -3 -6 -46q0 -5 -4 -9q-5 -5 -44 -22.5t-44 -17.5q-4 0 -8.5 4.5t-4.5 9.5q0 42 84 96q25 16 56 26.5t44 10.5zM190 49q20 0 38 12q9 5 9 19q4 28 4 89q0 10 -7 10q-13 0 -40 -9t-41 -17q-18 -13 -18 -40q0 -30 18.5 -47t36.5 -17z" />
    <glyph glyph-name="Aogonek" unicode="&#x104;" horiz-adv-x="677" 
d="M356 650q8 0 17 -22q10 -27 40 -112q90 -252 143 -386q23 -56 41.5 -74.5t47.5 -27.5q26 -6 26 -18q0 -15 -33 -15q-9 0 -53 2q-81 -79 -81 -144q0 -21 13 -35t36 -14q33 0 58 17q11 4 11 -10q0 -17 -8 -25q-40 -56 -107 -56q-46 0 -69 27.5t-23 61.5q0 42 36 90t98 90
q-17 1 -42 1q-17 0 -51.5 -1t-46.5 -1q-32 0 -32 15q0 12 26 17q28 7 35 17t5 25q-2 23 -46 146q-1 4 -9.5 9.5t-16.5 5.5q-111 0 -167 -4q-3 0 -10 -10q-43 -106 -43 -144q0 -16 10 -26.5t37 -18.5q29 -7 29 -20t-30 -13q-7 0 -33 1.5t-47 1.5q-23 0 -59 -2.5t-40 -2.5
q-29 0 -29 12q0 14 25 20q37 11 52.5 27t38.5 63q13 26 85 208.5t89 223.5q5 10 5 18q0 7 2 8q34 35 52 62q9 13 18 13zM370 281q1 0 3.5 2.5t1.5 5.5q-37 117 -73 201q-2 5 -5.5 4t-5.5 -7q-67 -179 -71 -197q-1 -5 2 -8.5t6 -3.5q114 3 142 3z" />
    <glyph glyph-name="aogonek" unicode="&#x105;" horiz-adv-x="418" 
d="M221 407q69 0 102 -49q25 -38 25 -82q0 -23 -2 -96.5t-2 -75.5q0 -46 36 -46q18 0 32 11q5 4 9 0q3 -6 3 -14q0 -17 -39 -45q-94 -78 -94 -144q0 -18 13 -32.5t32 -14.5q33 0 54 14q11 4 11 -8q0 -17 -8 -25q-38 -54 -102 -54q-43 0 -65.5 27t-22.5 59q0 68 118 155
q-60 4 -74 48q-4 9 -9 5q-43 -25 -70 -37q-31 -13 -52 -13q-28 0 -54.5 29.5t-26.5 69.5q0 33 16 53q11 14 39 24q9 4 63 18.5t64 18.5q28 10 28 19q1 7 1.5 38.5t-0.5 41.5q0 21 -18.5 40.5t-47.5 19.5q-24 0 -35 -8q-4 -2 -4 -40q0 -10 -4 -14t-42.5 -21t-43.5 -17
t-11.5 7t-6.5 11q0 40 97 97q50 30 91 30zM193 51q17 0 37 15q10 8 11 22q2 26 2 85q0 7 -7 6q-39 -7 -69 -21q-30 -12 -30 -48q0 -27 18.5 -43t37.5 -16z" />
    <glyph glyph-name="Cacute" unicode="&#x106;" horiz-adv-x="710" 
d="M426 650q66 0 130 -16q47 -12 72 -15q5 0 10 -8t5 -19q1 -40 5 -92q1 -16 -4 -27t-13 -11q-10 0 -19 27q-17 52 -42 71q-69 58 -148 58q-114 0 -174 -78.5t-60 -199.5q0 -101 34 -169q39 -77 99 -113t125 -36q59 0 97 23q53 30 87 91q17 31 27 31q7 0 9 -14.5t-1 -22.5
q-9 -45 -30 -87q-2 -7 -13.5 -17t-22.5 -15q-81 -29 -175 -29q-100 0 -178 35t-116 78q-84 97 -84 225q0 81 34.5 144t75.5 96q109 90 270 90zM476 827q15 12 32 6q14 -7 27.5 -19t13.5 -20q0 -6 -7.5 -14t-15.5 -12q-100 -48 -161 -69q-25 -8 -34 1q-2 2 -1 6t4.5 10
t8.5 10q33 30 133 101z" />
    <glyph glyph-name="cacute" unicode="&#x107;" horiz-adv-x="414" 
d="M266 634q2 6 11 12t18 6q41 0 43 -15q2 -13 -7 -28q-14 -27 -49.5 -79t-51.5 -70q-16 -16 -27 -16q-14 0 -4 31q23 71 67 159zM273 402q25 0 55 -6t43 -16q17 -12 17 -36q0 -12 -16.5 -29.5t-22.5 -17.5q-17 0 -46 25q-3 2 -11 9t-11.5 9.5t-10 7.5t-11 7t-11 5t-12.5 4
t-12 1q-22 0 -43 -22q-39 -41 -39 -122q0 -67 32 -105q39 -54 109 -54q43 0 96 33q4 3 8.5 0.5t4.5 -8.5q0 -15 -16 -31q-27 -29 -68.5 -48t-85.5 -19q-52 0 -93 23t-64 57q-33 51 -33 116q0 109 100 174q26 18 68 30.5t73 12.5z" />
    <glyph glyph-name="Ccircumflex" unicode="&#x108;" horiz-adv-x="710" 
d="M426 650q66 0 130 -16q47 -12 72 -15q5 0 10 -8t5 -19q1 -40 5 -92q1 -16 -4 -27t-13 -11q-10 0 -19 27q-17 52 -42 71q-69 58 -148 58q-114 0 -174 -78.5t-60 -199.5q0 -101 34 -169q39 -77 99 -113t125 -36q59 0 97 23q53 30 87 91q17 31 27 31q7 0 9 -14.5t-1 -22.5
q-9 -45 -30 -87q-2 -7 -13.5 -17t-22.5 -15q-81 -29 -175 -29q-100 0 -178 35t-116 78q-84 97 -84 225q0 81 34.5 144t75.5 96q109 90 270 90zM405 829q11 0 41 -25q38 -38 86 -80q3 -2 6 -6.5t5 -9.5t-0.5 -9t-10.5 -4q-11 0 -32 9q-35 16 -90 47q-10 4 -18 -1
q-11 -6 -43.5 -21t-47.5 -23q-17 -10 -30 -10t-7 14q4 9 15 19q8 7 86 76q28 24 40 24z" />
    <glyph glyph-name="ccircumflex" unicode="&#x109;" horiz-adv-x="414" 
d="M230 651q11 0 32 -39q3 -6 15 -28t26 -49t27 -52q16 -37 -3 -37q-6 0 -16 7.5t-14 13.5q-12 17 -34.5 47l-28.5 38q-2 3 -6 3t-6 -3l-27 -36t-37 -50q-12 -18 -27 -18q-5 0 -7.5 9t1.5 18q0 1 74 142q19 34 31 34zM273 402q25 0 55 -6t43 -16q17 -12 17 -36
q0 -12 -16.5 -29.5t-22.5 -17.5q-17 0 -46 25q-3 2 -11 9t-11.5 9.5t-10 7.5t-11 7t-11 5t-12.5 4t-12 1q-22 0 -43 -22q-39 -41 -39 -122q0 -67 32 -105q39 -54 109 -54q43 0 96 33q4 3 8.5 0.5t4.5 -8.5q0 -15 -16 -31q-27 -29 -68.5 -48t-85.5 -19q-52 0 -93 23t-64 57
q-33 51 -33 116q0 109 100 174q26 18 68 30.5t73 12.5z" />
    <glyph glyph-name="Cdotaccent" unicode="&#x10a;" horiz-adv-x="710" 
d="M426 650q66 0 130 -16q47 -12 72 -15q5 0 10 -8t5 -19q1 -40 5 -92q1 -16 -4 -27t-13 -11q-10 0 -19 27q-17 52 -42 71q-69 58 -148 58q-114 0 -174 -78.5t-60 -199.5q0 -101 34 -169q39 -77 99 -113t125 -36q59 0 97 23q53 30 87 91q17 31 27 31q7 0 9 -14.5t-1 -22.5
q-9 -45 -30 -87q-2 -7 -13.5 -17t-22.5 -15q-81 -29 -175 -29q-100 0 -178 35t-116 78q-84 97 -84 225q0 81 34.5 144t75.5 96q109 90 270 90zM422 823q25 0 39.5 -21t14.5 -44q0 -26 -19.5 -43t-41.5 -17q-21 0 -39 16t-18 46q0 24 18.5 43.5t45.5 19.5z" />
    <glyph glyph-name="cdotaccent" unicode="&#x10b;" horiz-adv-x="414" 
d="M245 616q25 0 40.5 -20.5t15.5 -43.5q0 -25 -20 -42t-41 -17t-39 15.5t-18 45.5q0 24 18 43t44 19zM273 402q25 0 55 -6t43 -16q17 -12 17 -36q0 -12 -16.5 -29.5t-22.5 -17.5q-17 0 -46 25q-3 2 -11 9t-11.5 9.5t-10 7.5t-11 7t-11 5t-12.5 4t-12 1q-22 0 -43 -22
q-39 -41 -39 -122q0 -67 32 -105q39 -54 109 -54q43 0 96 33q4 3 8.5 0.5t4.5 -8.5q0 -15 -16 -31q-27 -29 -68.5 -48t-85.5 -19q-52 0 -93 23t-64 57q-33 51 -33 116q0 109 100 174q26 18 68 30.5t73 12.5z" />
    <glyph glyph-name="Ccaron" unicode="&#x10c;" horiz-adv-x="710" 
d="M426 650q66 0 130 -16q47 -12 72 -15q5 0 10 -8t5 -19q1 -40 5 -92q1 -16 -4 -27t-13 -11q-10 0 -19 27q-17 52 -42 71q-69 58 -148 58q-114 0 -174 -78.5t-60 -199.5q0 -101 34 -169q39 -77 99 -113t125 -36q59 0 97 23q53 30 87 91q17 31 27 31q7 0 9 -14.5t-1 -22.5
q-9 -45 -30 -87q-2 -7 -13.5 -17t-22.5 -15q-81 -29 -175 -29q-100 0 -178 35t-116 78q-84 97 -84 225q0 81 34.5 144t75.5 96q109 90 270 90zM407 695q-11 0 -41 25q-7 7 -37 34.5t-49 45.5q-8 5 -11 16.5t12 12.5q2 0 30 -8q51 -26 90 -48q9 -4 19 0q12 7 46 23.5t44 21.5
q17 10 31 10q13 0 7 -14q-4 -9 -15 -19q-14 -13 -46 -40.5t-41 -35.5q-28 -24 -39 -24z" />
    <glyph glyph-name="ccaron" unicode="&#x10d;" horiz-adv-x="414" 
d="M230 446q-10 0 -32 40q-5 10 -29 54.5t-39 74.5q-2 4 -3.5 9t-2.5 11.5t1 11t8 4.5t16 -7.5t14 -13.5q10 -13 21 -28t23 -31.5t18 -25.5q2 -3 7 -3t6 2q11 15 31.5 43t32.5 45q11 17 27 17q5 0 7.5 -8.5t-1.5 -17.5q-8 -19 -20 -43t-29 -54t-25 -45q-19 -35 -31 -35z
M273 402q25 0 55 -6t43 -16q17 -12 17 -36q0 -12 -16.5 -29.5t-22.5 -17.5q-17 0 -46 25q-3 2 -11 9t-11.5 9.5t-10 7.5t-11 7t-11 5t-12.5 4t-12 1q-22 0 -43 -22q-39 -41 -39 -122q0 -67 32 -105q39 -54 109 -54q43 0 96 33q4 3 8.5 0.5t4.5 -8.5q0 -15 -16 -31
q-27 -29 -68.5 -48t-85.5 -19q-52 0 -93 23t-64 57q-33 51 -33 116q0 109 100 174q26 18 68 30.5t73 12.5z" />
    <glyph glyph-name="Dcaron" unicode="&#x10e;" horiz-adv-x="760" 
d="M354 641q93 0 160.5 -29.5t106.5 -66.5q42 -40 68 -99t26 -119q0 -97 -48.5 -172t-109.5 -109q-95 -55 -229 -55q-82 0 -200 6q-30 1 -68 1q-33 0 -33 16q0 13 26 17q45 6 56.5 25t13.5 88q3 87 2 138q0 181 -3 231q-3 51 -12.5 66.5t-48.5 21.5q-9 2 -16.5 7t-7.5 10
q0 6 8 10.5t19 4.5h52q21 0 109.5 4t128.5 4zM309 606q-32 0 -52 -11q-8 -5 -8 -14q-4 -48 -4 -176v-145q0 -105 4 -164q2 -26 20 -44q11 -10 33.5 -18.5t33.5 -8.5q79 0 150 59q44 37 68.5 103t24.5 140q0 54 -21.5 112t-58.5 96q-32 33 -84 52t-106 19zM342 685
q-11 0 -41 25q-7 7 -37 34.5t-49 45.5q-8 5 -11 16.5t12 12.5q2 0 30 -8q51 -25 90 -48q9 -4 19 0q12 7 46 23.5t44 21.5q17 10 31 10q13 0 7 -14q-4 -9 -15 -19q-14 -13 -46 -40.5t-41 -35.5q-28 -24 -39 -24z" />
    <glyph glyph-name="dcaron" unicode="&#x10f;" horiz-adv-x="522" 
d="M274 405q39 0 55 -2q5 -1 8 9q3 26 2 96t-4 92q-3 25 -42 42q-14 6 -14 10t7 11t11 8q86 13 126 29q12 5 19 5q3 0 6.5 -6.5t2.5 -13.5q-9 -85 -9 -380q0 -136 3 -193q0 -70 17 -70q4 0 24 2t26 2t6 -8q0 -4 -8.5 -14.5t-12.5 -12.5q-86 -13 -106 -20q-33 -11 -44 -11
q-4 0 -8 5t-4 9q0 3 1 16.5t1 21.5q0 3 -2.5 5.5t-4.5 1.5q-57 -47 -123 -47q-69 0 -120 48q-55 51 -55 141q0 122 108 186q27 17 66.5 27.5t67.5 10.5zM238 369q-29 0 -59 -30q-37 -40 -37 -122q0 -66 39 -116.5t95 -50.5q30 0 48 15q3 2 8.5 19t5.5 28q3 118 -1 173
q-5 26 -18 40q-37 44 -81 44zM556 699q5 0 10 -6.5t5 -18.5q0 -30 -11 -77.5t-25 -81.5q-3 -10 -10 -21t-13 -11q-11 0 -13 24q-2 98 -13 138q-1 2 1 8t5 9q11 11 31 24t33 13z" />
    <glyph glyph-name="Dcroat" unicode="&#x110;" horiz-adv-x="760" 
d="M47 349h68q9 0 9 10t-1 66t-2 89q-2 49 -11.5 63.5t-49.5 23.5q-23 6 -23 17q0 15 26 15h54q21 0 109 4t128 4q92 0 160.5 -30t108.5 -67q41 -39 66.5 -99.5t25.5 -118.5q0 -98 -48 -171.5t-110 -108.5q-94 -54 -227 -54q-84 0 -202 6q-30 1 -69 1q-31 0 -31 16
q0 13 21 17q47 6 59.5 25.5t14.5 87.5q2 110 2 154q0 9 -5 9h-73q-10 0 -10 23q0 4 3 11t7 7zM397 309l-145 -1q-7 0 -7 -8q0 -151 4 -197q3 -35 19 -51q26 -26 72 -26q74 0 144 57q95 81 95 244q0 56 -21.5 113.5t-59.5 96.5q-32 32 -83.5 50.5t-105.5 18.5q-35 0 -48 -8
q-6 -4 -12 -20q-4 -14 -4 -217q0 -12 8 -12h144q14 0 14 -11q0 -8 -4.5 -18.5t-9.5 -10.5z" />
    <glyph glyph-name="dcroat" unicode="&#x111;" horiz-adv-x="522" 
d="M442 305q0 -112 3 -196q1 -40 5 -53t13 -13q5 0 22.5 2t22.5 2q9 1 9 -9q0 -4 -8 -14.5t-13 -12.5q-89 -13 -105 -19q-32 -12 -44 -12q-4 0 -8 4t-4 10q0 3 1.5 15.5t1.5 20.5q0 2 -2 4t-3.5 3t-2.5 0q-67 -46 -123 -46q-68 0 -118 48q-57 51 -57 141q0 122 108 186
q26 16 64.5 27.5t69.5 11.5q34 0 55 -4q5 0 8 10q2 17 2 104q0 7 -6 7q-12 0 -46.5 1t-47.5 1q-3 0 -7.5 3.5t-4.5 6.5q0 10 4.5 18.5t9.5 8.5q17 0 47 0.5t44 0.5q6 0 6 8q0 6 -0.5 18.5t-0.5 13.5q-2 26 -39 40q-17 6 -17 14q0 4 6.5 10t11.5 7q96 17 115 25q17 7 27 7
t8 -21q0 -2 -1 -17t-2 -41t-1 -54q0 -9 5 -9h59q8 0 5 -19q0 -21 -16 -21q-8 0 -23 -0.5t-24 -0.5q-7 0 -7 -8q-2 -46 -2 -209zM237 368q-31 0 -59 -31q-36 -41 -36 -120q0 -66 38.5 -116.5t94.5 -50.5q32 0 51 15q12 12 12 40q3 113 0 178q0 20 -17 42q-36 43 -84 43z" />
    <glyph glyph-name="Emacron" unicode="&#x112;" horiz-adv-x="587" 
d="M250 633h150q46 0 88 6q3 1 7 -3.5t5 -9.5q1 -18 1 -107q0 -11 -4.5 -19.5t-11.5 -8.5q-6 0 -11.5 8t-7.5 17q-15 67 -64 75q-46 7 -139 6q-12 0 -13 -28q-7 -81 -4 -219q0 -3 3 -6.5t7 -3.5h80q51 0 62 6.5t26 41.5q10 26 22 26q6 0 8.5 -9t1.5 -19q-4 -56 -4 -69
q0 -18 4 -68q2 -30 -13 -30q-12 0 -19 22q-9 32 -22 42t-43 12q-32 3 -100 3q-3 0 -8 -5t-5 -7q-5 -36 -2 -139q3 -78 4 -82q7 -21 22 -24q32 -6 81 -6q67 0 92 9q47 17 79 74q19 35 31 35t8 -29q0 -6 -16 -55.5t-22 -60.5q-2 -5 -10.5 -9t-13.5 -4q-3 0 -71 1t-148.5 2.5
t-113.5 1.5q-37 0 -68.5 -2.5t-45.5 -2.5q-34 0 -34 13t30 20q39 9 52 23t16 53q8 112 8 242q0 178 -1 193q-2 29 -12.5 43.5t-40.5 20.5q-32 6 -32 18q0 6 10 10.5t21 4.5q23 0 88.5 -1.5t92.5 -1.5zM194 772l226 3q7 0 7 -26q0 -15 -6.5 -27.5t-12.5 -12.5h-221
q-2 0 -5.5 5.5t-3.5 10.5q0 13 6 30t10 17z" />
    <glyph glyph-name="emacron" unicode="&#x113;" horiz-adv-x="414" 
d="M122 571l212 3q7 0 7 -25q0 -15 -6.5 -28t-11.5 -13l-207 -1q-2 0 -5 5.5t-3 11.5q0 10 3 21.5t6 18.5t5 7zM241 407q65 0 107 -42q38 -36 38 -88q0 -6 -7 -15t-15 -9h-218q-9 0 -11 -7q-4 -11 -4 -36q0 -18 9 -46.5t22 -46.5q39 -50 111 -50q63 0 90 35q8 12 13 12
q3 0 6 -4.5t3 -8.5q0 -12 -8 -25q-56 -87 -160 -87q-84 0 -134.5 57t-50.5 144q0 62 33.5 116t93.5 82q40 19 82 19zM234 379q-31 0 -57.5 -25t-35.5 -60q-2 -10 7 -10h26.5h38.5h42q14 0 24.5 8.5t10.5 25.5q0 21 -17.5 41t-38.5 20z" />
    <glyph glyph-name="Ebreve" unicode="&#x114;" horiz-adv-x="587" 
d="M250 633h150q46 0 88 6q3 1 7 -3.5t5 -9.5q1 -18 1 -107q0 -11 -4.5 -19.5t-11.5 -8.5q-6 0 -11.5 8t-7.5 17q-15 67 -64 75q-46 7 -139 6q-12 0 -13 -28q-7 -81 -4 -219q0 -3 3 -6.5t7 -3.5h80q51 0 62 6.5t26 41.5q10 26 22 26q6 0 8.5 -9t1.5 -19q-4 -56 -4 -69
q0 -18 4 -68q2 -30 -13 -30q-12 0 -19 22q-9 32 -22 42t-43 12q-32 3 -100 3q-3 0 -8 -5t-5 -7q-5 -36 -2 -139q3 -78 4 -82q7 -21 22 -24q32 -6 81 -6q67 0 92 9q47 17 79 74q19 35 31 35t8 -29q0 -6 -16 -55.5t-22 -60.5q-2 -5 -10.5 -9t-13.5 -4q-3 0 -71 1t-148.5 2.5
t-113.5 1.5q-37 0 -68.5 -2.5t-45.5 -2.5q-34 0 -34 13t30 20q39 9 52 23t16 53q8 112 8 242q0 178 -1 193q-2 29 -12.5 43.5t-40.5 20.5q-32 6 -32 18q0 6 10 10.5t21 4.5q23 0 88.5 -1.5t92.5 -1.5zM292 688q-48 0 -83 28.5t-40 79.5q-2 20 11 20q12 0 21 -15
q31 -49 95 -49q67 0 100 46q10 15 21 15q3 0 5.5 -5.5t1.5 -9.5q-4 -37 -36 -73.5t-96 -36.5z" />
    <glyph glyph-name="ebreve" unicode="&#x115;" horiz-adv-x="414" 
d="M224 471q-42 0 -70.5 28.5t-29.5 87.5q-1 12 5.5 21t13.5 9q11 0 14 -18q16 -65 72 -65t77 67q1 6 9 11t14 5q4 0 6.5 -7.5t2.5 -11.5q-2 -44 -29 -85.5t-85 -41.5zM241 407q65 0 107 -42q38 -36 38 -88q0 -6 -7 -15t-15 -9h-218q-9 0 -11 -7q-4 -11 -4 -36
q0 -18 9 -46.5t22 -46.5q39 -50 111 -50q63 0 90 35q8 12 13 12q3 0 6 -4.5t3 -8.5q0 -12 -8 -25q-56 -87 -160 -87q-84 0 -134.5 57t-50.5 144q0 62 33.5 116t93.5 82q40 19 82 19zM234 379q-31 0 -57.5 -25t-35.5 -60q-2 -10 7 -10h26.5h38.5h42q14 0 24.5 8.5t10.5 25.5
q0 21 -17.5 41t-38.5 20z" />
    <glyph glyph-name="Edotaccent" unicode="&#x116;" horiz-adv-x="587" 
d="M250 633h150q46 0 88 6q3 1 7 -3.5t5 -9.5q1 -18 1 -107q0 -11 -4.5 -19.5t-11.5 -8.5q-6 0 -11.5 8t-7.5 17q-15 67 -64 75q-46 7 -139 6q-12 0 -13 -28q-7 -81 -4 -219q0 -3 3 -6.5t7 -3.5h80q51 0 62 6.5t26 41.5q10 26 22 26q6 0 8.5 -9t1.5 -19q-4 -56 -4 -69
q0 -18 4 -68q2 -30 -13 -30q-12 0 -19 22q-9 32 -22 42t-43 12q-32 3 -100 3q-3 0 -8 -5t-5 -7q-5 -36 -2 -139q3 -78 4 -82q7 -21 22 -24q32 -6 81 -6q67 0 92 9q47 17 79 74q19 35 31 35t8 -29q0 -6 -16 -55.5t-22 -60.5q-2 -5 -10.5 -9t-13.5 -4q-3 0 -71 1t-148.5 2.5
t-113.5 1.5q-37 0 -68.5 -2.5t-45.5 -2.5q-34 0 -34 13t30 20q39 9 52 23t16 53q8 112 8 242q0 178 -1 193q-2 29 -12.5 43.5t-40.5 20.5q-32 6 -32 18q0 6 10 10.5t21 4.5q23 0 88.5 -1.5t92.5 -1.5zM301 806q25 0 39.5 -21t14.5 -44q0 -26 -19.5 -43t-41.5 -17
q-21 0 -39 16t-18 46q0 24 18.5 43.5t45.5 19.5z" />
    <glyph glyph-name="edotaccent" unicode="&#x117;" horiz-adv-x="414" 
d="M232 616q25 0 40.5 -20.5t15.5 -43.5q0 -25 -20 -42t-41 -17t-39 15.5t-18 45.5q0 24 18 43t44 19zM241 407q65 0 107 -42q38 -36 38 -88q0 -6 -7 -15t-15 -9h-218q-9 0 -11 -7q-4 -11 -4 -36q0 -18 9 -46.5t22 -46.5q39 -50 111 -50q63 0 90 35q8 12 13 12q3 0 6 -4.5
t3 -8.5q0 -12 -8 -25q-56 -87 -160 -87q-84 0 -134.5 57t-50.5 144q0 62 33.5 116t93.5 82q40 19 82 19zM234 379q-31 0 -57.5 -25t-35.5 -60q-2 -10 7 -10h26.5h38.5h42q14 0 24.5 8.5t10.5 25.5q0 21 -17.5 41t-38.5 20z" />
    <glyph glyph-name="Eogonek" unicode="&#x118;" horiz-adv-x="587" 
d="M250 633h150q45 0 87 6q3 1 7.5 -3.5t5.5 -9.5q1 -18 1 -107q0 -11 -4.5 -19.5t-11.5 -8.5q-6 0 -11.5 8t-7.5 17q-15 67 -64 75q-46 7 -139 6q-12 0 -13 -28q-7 -82 -4 -218q0 -3 3 -7t8 -4h79q16 0 25 0.5t17.5 0.5t13.5 3t8.5 3t7 6.5t4.5 7.5t5.5 12t6.5 15
q10 26 22 26q6 0 8.5 -9t1.5 -19q-4 -56 -4 -69q0 -18 4 -68q2 -30 -13 -30q-12 0 -19 22q-11 33 -22 42.5t-43 11.5q-32 3 -100 3q-3 0 -8 -5t-5 -7q-5 -36 -2 -139q2 -59 8 -82q2 -7 8.5 -15t13.5 -9q30 -6 77 -6q67 0 92 9q48 18 79 75q18 33 31 33q9 0 9 -28
q0 -6 -16.5 -55.5t-22.5 -60.5q-2 -5 -10.5 -9t-13.5 -4h-30q-82 -80 -82 -142q0 -21 14 -35t37 -14q33 0 56 17q12 4 12 -10q0 -9 -8 -25q-40 -56 -108 -56q-45 0 -68 27.5t-23 61.5q0 41 35.5 87.5t97.5 89.5q-164 4 -266 4q-37 0 -68.5 -2.5t-45.5 -2.5q-34 0 -34 13
t30 20q39 9 52 23t16 53q8 112 8 242q0 178 -1 193q-2 29 -12.5 43.5t-40.5 20.5q-32 6 -32 18q0 6 10 10.5t21 4.5q23 0 88.5 -1.5t92.5 -1.5z" />
    <glyph glyph-name="eogonek" unicode="&#x119;" horiz-adv-x="414" 
d="M241 407q61 0 104 -38.5t43 -92.5q0 -6 -10.5 -15.5t-19.5 -9.5h-209q-9 0 -13 -9q-3 -10 -3 -26q0 -69 37.5 -109.5t103.5 -40.5q57 0 94 30q8 6 12 6q6 0 6 -9q0 -13 -6 -23q-23 -26 -51 -48q-92 -83 -92 -156q0 -18 13.5 -32.5t34.5 -14.5q32 0 55 14q2 2 4.5 -1
t2.5 -7q0 -17 -8 -25q-38 -54 -102 -54q-43 0 -65 27t-22 59q0 75 110 160q-26 -4 -41 -4q-84 0 -135.5 58.5t-51.5 145.5q0 61 33.5 115t93.5 82q39 18 82 18zM236 379q-31 0 -58.5 -26t-35.5 -62q-2 -8 4 -10q36 -1 105 0q40 2 40 39q0 18 -15 38.5t-40 20.5z" />
    <glyph glyph-name="Ecaron" unicode="&#x11a;" horiz-adv-x="587" 
d="M250 633h150q46 0 88 6q3 1 7 -3.5t5 -9.5q1 -18 1 -107q0 -11 -4.5 -19.5t-11.5 -8.5q-6 0 -11.5 8t-7.5 17q-15 67 -64 75q-46 7 -139 6q-12 0 -13 -28q-7 -81 -4 -219q0 -3 3 -6.5t7 -3.5h80q51 0 62 6.5t26 41.5q10 26 22 26q6 0 8.5 -9t1.5 -19q-4 -56 -4 -69
q0 -18 4 -68q2 -30 -13 -30q-12 0 -19 22q-9 32 -22 42t-43 12q-32 3 -100 3q-3 0 -8 -5t-5 -7q-5 -36 -2 -139q3 -78 4 -82q7 -21 22 -24q32 -6 81 -6q67 0 92 9q47 17 79 74q19 35 31 35t8 -29q0 -6 -16 -55.5t-22 -60.5q-2 -5 -10.5 -9t-13.5 -4q-3 0 -71 1t-148.5 2.5
t-113.5 1.5q-37 0 -68.5 -2.5t-45.5 -2.5q-34 0 -34 13t30 20q39 9 52 23t16 53q8 112 8 242q0 178 -1 193q-2 29 -12.5 43.5t-40.5 20.5q-32 6 -32 18q0 6 10 10.5t21 4.5q23 0 88.5 -1.5t92.5 -1.5zM300 678q-11 0 -41 25q-7 7 -37 34.5t-49 45.5q-8 5 -11 16.5t12 12.5
q2 0 30 -8q51 -26 90 -48q9 -4 19 0q12 7 46 23.5t44 21.5q17 10 31 10q13 0 7 -14q-4 -9 -15 -19q-14 -13 -46 -40.5t-41 -35.5q-28 -24 -39 -24z" />
    <glyph glyph-name="ecaron" unicode="&#x11b;" horiz-adv-x="414" 
d="M219 446q-10 0 -32 40q-5 10 -29 54.5t-39 74.5q-2 4 -3.5 9t-2.5 11.5t1 11t8 4.5t16 -7.5t14 -13.5q10 -13 21 -28t23 -31.5t18 -25.5q2 -3 7 -3t6 2q11 15 31.5 43t32.5 45q11 17 27 17q5 0 7.5 -8.5t-1.5 -17.5q-8 -19 -20 -43t-29 -54t-25 -45q-19 -35 -31 -35z
M241 407q65 0 107 -42q38 -36 38 -88q0 -6 -7 -15t-15 -9h-218q-9 0 -11 -7q-4 -11 -4 -36q0 -18 9 -46.5t22 -46.5q39 -50 111 -50q63 0 90 35q8 12 13 12q3 0 6 -4.5t3 -8.5q0 -12 -8 -25q-56 -87 -160 -87q-84 0 -134.5 57t-50.5 144q0 62 33.5 116t93.5 82q40 19 82 19z
M234 379q-31 0 -57.5 -25t-35.5 -60q-2 -10 7 -10h26.5h38.5h42q14 0 24.5 8.5t10.5 25.5q0 21 -17.5 41t-38.5 20z" />
    <glyph glyph-name="Gcircumflex" unicode="&#x11c;" horiz-adv-x="743" 
d="M424 650q81 0 163 -21q22 -5 45 -8q10 0 12 -23q0 -12 7.5 -55t7.5 -65q0 -25 -17 -25q-9 0 -19 26q-15 41 -38 70q-21 25 -63.5 46.5t-96.5 21.5q-109 0 -174.5 -84.5t-65.5 -206.5q0 -108 42 -180q33 -59 89 -94.5t122 -35.5q34 0 63 20q21 14 21 70q0 73 -4 89
q-4 14 -9 22t-22.5 16t-48.5 11q-11 1 -20 6.5t-9 12.5q0 14 34 14q20 0 64 -2t56 -2q10 0 53 3t63 3q27 0 27 -15q0 -11 -23 -19q-16 -4 -24 -10.5t-8.5 -10t-2.5 -14.5q-5 -30 -5 -124q0 -14 16 -30q11 -8 11 -17q0 -4 -5 -8.5t-10 -6.5q-40 -12 -91 -22q-96 -20 -148 -20
q-81 0 -152 23t-116 64q-103 99 -103 249q0 144 111 241q47 42 119 66.5t149 24.5zM412 828q11 0 41 -25q38 -38 86 -80q3 -2 6 -6.5t5 -9.5t-0.5 -9t-10.5 -4q-11 0 -32 9q-35 16 -90 47q-10 4 -18 -1q-11 -6 -43.5 -21t-47.5 -23q-18 -10 -30 -10q-13 0 -7 14q4 9 15 19
q8 7 86 76q28 24 40 24z" />
    <glyph glyph-name="gcircumflex" unicode="&#x11d;" horiz-adv-x="455" 
d="M225 651q11 0 32 -39q3 -6 15 -28t26 -49t27 -52q16 -37 -3 -37q-6 0 -16 7.5t-14 13.5q-12 17 -34.5 47l-28.5 38q-2 3 -6.5 3t-5.5 -3l-27 -36t-37 -50q-12 -18 -27 -18q-5 0 -7.5 9t1.5 18q0 1 74 142q19 34 31 34zM225 411q43 0 95 -15q24 -7 27 -7q73 0 113 -7
q10 -2 10 -12t-9 -24t-13 -14q-34 0 -58 2q-3 0 -5 -3t-1 -5q6 -24 6 -43q0 -81 -57 -125q-52 -38 -121 -38q-20 0 -40 2q-10 2 -14 -2q-19 -12 -19 -26q0 -13 13 -24.5t24 -12.5q183 -8 188 -9q27 -5 51 -24q43 -38 43 -92t-31.5 -94.5t-71.5 -65.5q-70 -44 -152 -44
q-74 0 -126 34q-53 37 -53 90q0 38 31 59q7 5 32 20.5t32 20.5q6 4 0 7q-26 9 -41 19q-39 27 -39 79q0 7 7 12q2 2 20 13t36 23.5t25 20.5q2 1 1.5 4.5t-3.5 5.5q-30 14 -55.5 46t-25.5 80q0 68 60 113q49 36 121 36zM215 383q-25 0 -39 -21q-23 -29 -23 -85
q0 -50 22.5 -89.5t57.5 -39.5q13 0 31 15q27 25 27 101q0 15 -6 41t-16 41q-24 37 -54 37zM248 -224q45 0 78 17q45 26 45 79q0 31 -17 49q-19 21 -56 26q-35 5 -104 5q-32 0 -48 -12q-30 -27 -30 -64q0 -43 35 -71q36 -29 97 -29z" />
    <glyph glyph-name="Gbreve" unicode="&#x11e;" horiz-adv-x="743" 
d="M424 650q81 0 163 -21q22 -5 45 -8q10 0 12 -23q0 -12 7.5 -55t7.5 -65q0 -25 -17 -25q-9 0 -19 26q-15 41 -38 70q-21 25 -63.5 46.5t-96.5 21.5q-109 0 -174.5 -84.5t-65.5 -206.5q0 -108 42 -180q33 -59 89 -94.5t122 -35.5q34 0 63 20q21 14 21 70q0 73 -4 89
q-4 14 -9 22t-22.5 16t-48.5 11q-11 1 -20 6.5t-9 12.5q0 14 34 14q20 0 64 -2t56 -2q10 0 53 3t63 3q27 0 27 -15q0 -11 -23 -19q-16 -4 -24 -10.5t-8.5 -10t-2.5 -14.5q-5 -30 -5 -124q0 -14 16 -30q11 -8 11 -17q0 -4 -5 -8.5t-10 -6.5q-40 -12 -91 -22q-96 -20 -148 -20
q-81 0 -152 23t-116 64q-103 99 -103 249q0 144 111 241q47 42 119 66.5t149 24.5zM409 702q-48 0 -83 28.5t-40 79.5q-2 20 11 20q12 0 21 -15q31 -49 95 -49q67 0 100 46q10 15 21 15q4 0 6 -5.5t1 -9.5q-4 -37 -36 -73.5t-96 -36.5z" />
    <glyph glyph-name="gbreve" unicode="&#x11f;" horiz-adv-x="455" 
d="M218 471q-42 0 -70.5 28.5t-29.5 87.5q-1 12 5.5 21t13.5 9q11 0 14 -18q16 -65 72 -65t77 67q1 6 9 11t14 5q4 0 6.5 -7.5t2.5 -11.5q-2 -44 -29 -85.5t-85 -41.5zM225 411q43 0 95 -15q24 -7 27 -7q73 0 113 -7q10 -2 10 -12t-9 -24t-13 -14q-34 0 -58 2q-3 0 -5 -3
t-1 -5q6 -24 6 -43q0 -81 -57 -125q-52 -38 -121 -38q-20 0 -40 2q-10 2 -14 -2q-19 -12 -19 -26q0 -13 13 -24.5t24 -12.5q183 -8 188 -9q27 -5 51 -24q43 -38 43 -92t-31.5 -94.5t-71.5 -65.5q-70 -44 -152 -44q-74 0 -126 34q-53 37 -53 90q0 38 31 59q7 5 32 20.5
t32 20.5q6 4 0 7q-26 9 -41 19q-39 27 -39 79q0 7 7 12q2 2 20 13t36 23.5t25 20.5q2 1 1.5 4.5t-3.5 5.5q-30 14 -55.5 46t-25.5 80q0 68 60 113q49 36 121 36zM215 383q-25 0 -39 -21q-23 -29 -23 -85q0 -50 22.5 -89.5t57.5 -39.5q13 0 31 15q27 25 27 101q0 15 -6 41
t-16 41q-24 37 -54 37zM248 -224q45 0 78 17q45 26 45 79q0 31 -17 49q-19 21 -56 26q-35 5 -104 5q-32 0 -48 -12q-30 -27 -30 -64q0 -43 35 -71q36 -29 97 -29z" />
    <glyph glyph-name="Gdotaccent" unicode="&#x120;" horiz-adv-x="743" 
d="M424 650q81 0 163 -21q22 -5 45 -8q10 0 12 -23q0 -12 7.5 -55t7.5 -65q0 -25 -17 -25q-9 0 -19 26q-15 41 -38 70q-21 25 -63.5 46.5t-96.5 21.5q-109 0 -174.5 -84.5t-65.5 -206.5q0 -108 42 -180q33 -59 89 -94.5t122 -35.5q34 0 63 20q21 14 21 70q0 73 -4 89
q-4 14 -9 22t-22.5 16t-48.5 11q-11 1 -20 6.5t-9 12.5q0 14 34 14q20 0 64 -2t56 -2q10 0 53 3t63 3q27 0 27 -15q0 -11 -23 -19q-16 -4 -24 -10.5t-8.5 -10t-2.5 -14.5q-5 -30 -5 -124q0 -14 16 -30q11 -8 11 -17q0 -4 -5 -8.5t-10 -6.5q-40 -12 -91 -22q-96 -20 -148 -20
q-81 0 -152 23t-116 64q-103 99 -103 249q0 144 111 241q47 42 119 66.5t149 24.5zM419 826q25 0 39.5 -21t14.5 -44q0 -26 -19.5 -43t-41.5 -17q-21 0 -39 16t-18 46q0 24 18.5 43.5t45.5 19.5z" />
    <glyph glyph-name="gdotaccent" unicode="&#x121;" horiz-adv-x="455" 
d="M221 616q25 0 40.5 -20.5t15.5 -43.5q0 -25 -20 -42t-41 -17t-39 15.5t-18 45.5q0 24 18 43t44 19zM225 411q43 0 95 -15q24 -7 27 -7q73 0 113 -7q10 -2 10 -12t-9 -24t-13 -14q-34 0 -58 2q-3 0 -5 -3t-1 -5q6 -24 6 -43q0 -81 -57 -125q-52 -38 -121 -38q-20 0 -40 2
q-10 2 -14 -2q-19 -12 -19 -26q0 -13 13 -24.5t24 -12.5q183 -8 188 -9q27 -5 51 -24q43 -38 43 -92t-31.5 -94.5t-71.5 -65.5q-70 -44 -152 -44q-74 0 -126 34q-53 37 -53 90q0 38 31 59q7 5 32 20.5t32 20.5q6 4 0 7q-26 9 -41 19q-39 27 -39 79q0 7 7 12q2 2 20 13
t36 23.5t25 20.5q2 1 1.5 4.5t-3.5 5.5q-30 14 -55.5 46t-25.5 80q0 68 60 113q49 36 121 36zM215 383q-25 0 -39 -21q-23 -29 -23 -85q0 -50 22.5 -89.5t57.5 -39.5q13 0 31 15q27 25 27 101q0 15 -6 41t-16 41q-24 37 -54 37zM248 -224q45 0 78 17q45 26 45 79
q0 31 -17 49q-19 21 -56 26q-35 5 -104 5q-32 0 -48 -12q-30 -27 -30 -64q0 -43 35 -71q36 -29 97 -29z" />
    <glyph glyph-name="Gcommaaccent" unicode="&#x122;" horiz-adv-x="743" 
d="M424 650q81 0 163 -21q22 -5 45 -8q10 0 12 -23q0 -12 7.5 -55t7.5 -65q0 -25 -17 -25q-9 0 -19 26q-15 41 -38 70q-21 25 -63.5 46.5t-96.5 21.5q-109 0 -174.5 -84.5t-65.5 -206.5q0 -108 42 -180q33 -59 89 -94.5t122 -35.5q34 0 63 20q21 14 21 70q0 73 -4 89
q-4 14 -9 22t-22.5 16t-48.5 11q-11 1 -20 6.5t-9 12.5q0 14 34 14q20 0 64 -2t56 -2q10 0 53 3t63 3q27 0 27 -15q0 -11 -23 -19q-16 -4 -24 -10.5t-8.5 -10t-2.5 -14.5q-5 -30 -5 -124q0 -14 16 -30q11 -8 11 -17q0 -4 -5 -8.5t-10 -6.5q-40 -12 -91 -22q-96 -20 -148 -20
q-81 0 -152 23t-116 64q-103 99 -103 249q0 144 111 241q47 42 119 66.5t149 24.5zM399 -65q31 0 53.5 -23.5t22.5 -64.5q0 -52 -41.5 -79.5t-68.5 -27.5q-17 0 -17 9q0 11 16 18q20 7 37.5 23t17.5 36q0 13 -6.5 19.5t-23.5 9.5q-38 10 -38 39q0 20 15.5 30.5t32.5 10.5z
" />
    <glyph glyph-name="gcommaaccent" unicode="&#x123;" horiz-adv-x="455" 
d="M238 455q-33 0 -58 26t-25 68q0 57 45.5 88t74.5 31q17 0 17 -9q0 -14 -14 -20q-22 -8 -41 -26t-19 -41q0 -17 9 -23.5t29 -9.5q12 -2 22.5 -11.5t10.5 -26.5q0 -22 -16.5 -34t-34.5 -12zM225 411q43 0 95 -15q24 -7 27 -7q73 0 113 -7q10 -2 10 -12t-9 -24t-13 -14
q-34 0 -58 2q-3 0 -5 -3t-1 -5q6 -24 6 -43q0 -81 -57 -125q-52 -38 -121 -38q-20 0 -40 2q-10 2 -14 -2q-19 -12 -19 -26q0 -13 13 -24.5t24 -12.5q183 -8 188 -9q27 -5 51 -24q43 -38 43 -92t-31.5 -94.5t-71.5 -65.5q-70 -44 -152 -44q-74 0 -126 34q-53 37 -53 90
q0 38 31 59q7 5 32 20.5t32 20.5q6 4 0 7q-26 9 -41 19q-39 27 -39 79q0 7 7 12q2 2 20 13t36 23.5t25 20.5q2 1 1.5 4.5t-3.5 5.5q-30 14 -55.5 46t-25.5 80q0 68 60 113q49 36 121 36zM215 383q-25 0 -39 -21q-23 -29 -23 -85q0 -50 22.5 -89.5t57.5 -39.5q13 0 31 15
q27 25 27 101q0 15 -6 41t-16 41q-24 37 -54 37zM248 -224q45 0 78 17q45 26 45 79q0 31 -17 49q-19 21 -56 26q-35 5 -104 5q-32 0 -48 -12q-30 -27 -30 -64q0 -43 35 -71q36 -29 97 -29z" />
    <glyph glyph-name="Hcircumflex" unicode="&#x124;" horiz-adv-x="817" 
d="M246 361q2 -13 12 -13q29 0 138.5 2t166.5 2q7 0 9 25q2 8 1.5 75t-3.5 94q-3 28 -11.5 38.5t-37.5 18.5t-29 20q0 13 33 13q5 0 51.5 -1.5t61.5 -1.5q18 0 60.5 2t46.5 2q31 0 31 -13q0 -14 -32 -22q-25 -6 -33.5 -17.5t-10.5 -35.5q-8 -75 -8 -279q0 -51 4 -183
q1 -28 9.5 -36t41.5 -19q28 -9 28 -21q0 -14 -32 -14q-7 0 -45.5 1.5t-55.5 1.5q-11 0 -61.5 -2.5t-60.5 -2.5q-34 0 -34 14q0 13 27 21q36 10 44 24t12 71q2 30 3 85.5t-1 75.5q0 13 -8 13q-29 0 -110.5 0.5t-124.5 1t-70 -0.5q-4 -1 -8.5 -6t-4.5 -9q-3 -53 1 -176
q1 -37 9.5 -51t38.5 -23q35 -10 35 -25q0 -5 -5.5 -8t-12.5 -4t-14 -1l-52 1q-52 2 -73 2q-10 0 -50 -2t-58 -2q-35 0 -35 13q0 14 28 22q33 9 43.5 21t14.5 44q9 90 9 326v125q-1 25 -10 35.5t-34 18.5q-34 10 -34 22q0 14 31 14q14 0 54.5 -2t53.5 -2q23 0 62 1.5t49 1.5
q33 0 33 -13q0 -14 -34 -22q-29 -6 -37 -20.5t-9 -48.5q-8 -141 -3 -171zM425 822q11 0 41 -25q38 -38 86 -80q3 -2 6 -6.5t5 -9.5t-0.5 -9t-10.5 -4q-11 0 -32 9q-35 16 -90 47q-10 4 -18 -1q-11 -6 -43.5 -21t-47.5 -23q-17 -10 -30 -10t-7 14q4 9 15 19q8 7 86 76
q28 24 40 24z" />
    <glyph glyph-name="hcircumflex" unicode="&#x125;" horiz-adv-x="525" 
d="M133 831q12 0 39 -22q40 -34 82 -67q6 -5 9 -11t1 -10t-10 -4q-14 0 -33 8q-31 13 -83 39q-9 4 -17 0q-4 -2 -87 -39q-3 0 -13.5 -3.5t-14.5 -3.5q-14 0 -5 15q4 6 12 13q74 58 82 64q27 21 38 21zM308 407q73 0 108 -48q28 -38 28 -110q0 -13 4 -180q1 -18 10 -27
t30 -14q26 -6 26 -18q0 -14 -29 -14q-15 0 -42 2t-40 2q-19 0 -47 -1.5t-45 -1.5q-25 0 -25 13q0 10 21 16q17 5 23 14.5t8 35.5q2 22 2 167q0 61 -25 82q-25 22 -61 22q-38 0 -57 -14q-10 -8 -12 -34q-2 -36 -2.5 -117.5t0.5 -99.5q1 -25 8.5 -36t25.5 -16q24 -6 24 -17
q0 -14 -29 -14q-2 0 -15.5 0.5t-34 0.5h-41.5q-24 0 -52.5 -1.5t-33.5 -1.5q-25 0 -25 14q0 11 28 19q20 8 26.5 19t8.5 30q9 79 9 401q0 87 -3 107q-2 15 -7.5 22t-23.5 19q-4 2 -6 4q-10 5 -10 19q0 7 7 7q103 24 130 40q11 7 17 7q3 0 6.5 -5t3.5 -8q-7 -48 -10 -177.5
t-2 -153.5q0 -2 2.5 -4t4.5 -1q56 51 117 51z" />
    <glyph glyph-name="Hbar" unicode="&#x126;" horiz-adv-x="817" 
d="M749 447h-46q-9 0 -9 -9q-1 -44 -1 -179q0 -43 0.5 -83t1.5 -63t1 -26q1 -27 13 -37.5t43 -18.5q23 -7 23 -17q0 -17 -29 -17q-7 0 -50 1.5t-60 1.5q-12 0 -61 -2.5t-59 -2.5q-11 0 -20 4.5t-9 11.5q0 11 23 19q39 10 48.5 24.5t11.5 70.5q3 129 3 136q0 22 -11 22h-306
q-11 -4 -11 -18v-156q1 -36 10 -50t40 -24q31 -9 31 -22q0 -16 -32 -16q-2 0 -24.5 0.5t-50 1.5t-43.5 1q-10 0 -53 -2t-61 -2q-33 0 -33 14q0 12 23 20q36 10 48 21t15 45q10 120 10 344q0 7 -7 7h-56q-7 1 -8.5 2t-1.5 7q0 7 5.5 18.5t10.5 11.5h50q8 0 8 9q0 39 -1 53
q-1 24 -11.5 35t-36.5 19q-31 9 -31 22t27 13q13 0 56 -2t56 -2q23 0 65.5 1.5t51.5 1.5q25 0 25 -15q0 -13 -34 -21q-29 -7 -35.5 -19t-9.5 -46q0 -3 -0.5 -9.5t-1 -15t-0.5 -15.5q0 -2 3 -5.5t6 -3.5h311q6 0 6 9q0 34 -1 51q-2 28 -11.5 39t-40.5 18q-26 7 -26 21
q0 12 31 12q5 0 52 -1.5t62 -1.5q19 0 64 1.5t48 1.5q27 0 27 -13q0 -12 -28 -19q-30 -7 -38.5 -18t-10.5 -36q-2 -17 -4 -54q0 -10 7 -10h56q8 1 8 -12q1 -10 -5 -18.5t-13 -8.5zM245 351q0 -21 11 -21q36 -1 161 1t146 2q9 0 10 29v75q0 10 -8 10h-311q-9 0 -9 -8v-88z
" />
    <glyph glyph-name="hbar" unicode="&#x127;" horiz-adv-x="525" 
d="M25 558l49 2q7 2 7 8q0 5 -0.5 13t-0.5 10q0 5 -1 8t-3 6.5t-3 5.5t-5.5 5t-6.5 4.5t-8.5 6t-10.5 7.5q-9 4 -9 17q0 6 9 9q79 14 121 37q14 8 20 8q3 0 7 -4.5t4 -7.5q-5 -51 -8 -127q0 -4 6 -6l101 1q6 0 6 -9q0 -10 -3.5 -19.5t-8.5 -9.5l-94 -1q-4 -2 -7 -9
q-2 -19 -2 -79.5t1 -69.5q0 -2 2 -4t4 -1q57 48 118 48q73 0 108 -48q28 -38 28 -110q3 -159 3 -180q1 -31 40 -41q26 -5 26 -18q0 -14 -29 -14q-14 0 -41.5 2t-40.5 2q-19 0 -47 -2t-45 -2q-25 0 -25 15q0 8 20 16q17 5 23.5 15t8.5 34q2 22 2 170q0 59 -26 81
q-25 20 -60 20q-36 0 -58 -13q-8 -5 -11 -23q-2 -40 -2 -121.5t1 -107.5q1 -25 8 -36t25 -16q24 -6 24 -17q0 -15 -29 -15q-2 0 -15.5 0.5t-34 1t-41.5 0.5q-24 0 -51.5 -1.5t-32.5 -1.5q-26 0 -26 14q0 11 28 20q14 5 22 13t10 15t3 20q8 70 8 357v76q-1 5 -6 10h-49
q-12 0 -12 8q0 13 10 28z" />
    <glyph glyph-name="Itilde" unicode="&#x128;" horiz-adv-x="369" 
d="M124 334q0 155 -3 193q-2 29 -4 39.5t-13 20t-35 15.5q-30 8 -30 20q0 14 32 14q14 0 55.5 -1.5t58.5 -1.5q26 0 64.5 1.5t54.5 1.5q31 0 31 -14q0 -15 -31 -20q-18 -3 -29.5 -9t-16.5 -15.5t-6.5 -16.5t-2.5 -20q-4 -33 -4 -232q0 -149 3 -194t14 -60t52 -26
q28 -6 28 -21q0 -13 -31 -13q-17 0 -72 3t-78 2q-13 0 -45 -1.5t-51 -1.5q-31 0 -31 17q0 12 30 19q33 8 43 24t12 51q5 63 5 226zM64 725q22 35 44 55q10 10 26 10q20 0 77.5 -2.5t69.5 -1.5q20 2 40 32q5 7 10 7q7 0 16 -15q3 -8 -6 -17q-5 -5 -28 -33t-30 -34
q-10 -8 -19 -8q-11 0 -49.5 2.5t-63.5 4t-40 -0.5q-14 -3 -34 -31q-6 -8 -9 -8q-7 0 -12 4.5t-5 7.5q0 6 13 28z" />
    <glyph glyph-name="itilde" unicode="&#x129;" horiz-adv-x="272" 
d="M63 511q-4 0 -9 -5t-12 -14t-10 -12q-4 -4 -9 -4q-3 0 -10.5 8t-7.5 10t9.5 16t27.5 34t36 31q10 8 17 5q42 -10 96 -10q24 0 34 6q7 5 19 18l11 13q2 3 12 -5t10 -12q0 -5 -4 -8q-8 -8 -38 -40t-32 -34q-8 -8 -13 -8t-53.5 5.5t-73.5 5.5zM42 355q0 13 27 18
q24 5 71.5 20.5t48.5 15.5q3 0 6.5 -4t3.5 -7q-5 -85 -5 -226q0 -31 2 -101q1 -21 9 -28t30 -14t22 -19q0 -13 -28 -13q-2 0 -36 1.5t-47 1.5q-18 0 -54 -2t-43 -2q-28 0 -28 13q0 10 26 18q33 10 37 29q6 21 6 156q0 78 -2 90q-1 9 -34 36q-12 12 -12 17z" />
    <glyph glyph-name="Imacron" unicode="&#x12a;" horiz-adv-x="369" 
d="M124 334q0 155 -3 193q-2 29 -4 39.5t-13 20t-35 15.5q-30 8 -30 20q0 14 32 14q14 0 55.5 -1.5t58.5 -1.5q26 0 64.5 1.5t54.5 1.5q31 0 31 -14q0 -15 -31 -20q-18 -3 -29.5 -9t-16.5 -15.5t-6.5 -16.5t-2.5 -20q-4 -33 -4 -232q0 -149 3 -194t14 -60t52 -26
q28 -6 28 -21q0 -13 -31 -13q-17 0 -72 3t-78 2q-13 0 -45 -1.5t-51 -1.5q-31 0 -31 17q0 12 30 19q33 8 43 24t12 51q5 63 5 226zM78 772l226 3q7 0 7 -26q0 -15 -6.5 -27.5t-12.5 -12.5h-221q-2 0 -5.5 5.5t-3.5 10.5q0 13 6 30t10 17z" />
    <glyph glyph-name="imacron" unicode="&#x12b;" horiz-adv-x="272" 
d="M37 571l212 3q7 0 7 -25q0 -15 -6.5 -28t-11.5 -13l-207 -1q-2 0 -5 5.5t-3 11.5q0 10 3 21.5t6 18.5t5 7zM42 355q0 13 27 18q24 5 71.5 20.5t48.5 15.5q3 0 6.5 -4t3.5 -7q-5 -85 -5 -226q0 -31 2 -101q1 -21 9 -28t30 -14t22 -19q0 -13 -28 -13q-2 0 -36 1.5t-47 1.5
q-18 0 -54 -2t-43 -2q-28 0 -28 13q0 10 26 18q33 10 37 29q6 21 6 156q0 78 -2 90q-1 9 -34 36q-12 12 -12 17z" />
    <glyph glyph-name="Ibreve" unicode="&#x12c;" horiz-adv-x="369" 
d="M124 334q0 155 -3 193q-2 29 -4 39.5t-13 20t-35 15.5q-30 8 -30 20q0 14 32 14q14 0 55.5 -1.5t58.5 -1.5q26 0 64.5 1.5t54.5 1.5q31 0 31 -14q0 -15 -31 -20q-18 -3 -29.5 -9t-16.5 -15.5t-6.5 -16.5t-2.5 -20q-4 -33 -4 -232q0 -149 3 -194t14 -60t52 -26
q28 -6 28 -21q0 -13 -31 -13q-17 0 -72 3t-78 2q-13 0 -45 -1.5t-51 -1.5q-31 0 -31 17q0 12 30 19q33 8 43 24t12 51q5 63 5 226zM181 693q-48 0 -83 28.5t-40 79.5q-2 20 11 20q12 0 21 -15q31 -49 95 -49q67 0 100 46q10 15 21 15q4 0 6 -5.5t1 -9.5q-4 -37 -36 -73.5
t-96 -36.5z" />
    <glyph glyph-name="ibreve" unicode="&#x12d;" horiz-adv-x="272" 
d="M133 471q-42 0 -70.5 28.5t-29.5 87.5q-1 12 5.5 21t13.5 9q11 0 14 -18q16 -65 72 -65t77 67q1 6 9 11t14 5q4 0 6.5 -7.5t2.5 -11.5q-2 -44 -29 -85.5t-85 -41.5zM42 355q0 13 27 18q24 5 71.5 20.5t48.5 15.5q3 0 6.5 -4t3.5 -7q-5 -85 -5 -226q0 -31 2 -101
q1 -21 9 -28t30 -14t22 -19q0 -13 -28 -13q-2 0 -36 1.5t-47 1.5q-18 0 -54 -2t-43 -2q-28 0 -28 13q0 10 26 18q33 10 37 29q6 21 6 156q0 78 -2 90q-1 9 -34 36q-12 12 -12 17z" />
    <glyph glyph-name="Iogonek" unicode="&#x12e;" horiz-adv-x="369" 
d="M124 334q0 155 -3 193q-3 45 -10 55q-9 13 -39 20t-30 21q0 13 29 13q14 0 55.5 -1.5t58.5 -1.5q26 0 64.5 1.5t54.5 1.5q31 0 31 -14q0 -15 -31 -20q-18 -3 -29.5 -9t-16.5 -15.5t-6.5 -16.5t-2.5 -20q-4 -33 -4 -232q0 -149 3 -194t14 -60t52 -26q28 -6 28 -21
q0 -13 -31 -13q-22 0 -84 4q-63 -73 -63 -140q0 -23 13.5 -39.5t35.5 -16.5q28 0 58 17q5 3 8.5 0.5t3.5 -9.5q0 -17 -9 -26q-40 -56 -107 -56q-46 0 -69 27.5t-23 61.5q0 94 116 181q-11 1 -30 1q-13 0 -45 -1.5t-51 -1.5q-31 0 -31 17q0 10 30 19q33 8 43 24t12 51
q5 63 5 226z" />
    <glyph glyph-name="iogonek" unicode="&#x12f;" horiz-adv-x="272" 
d="M45 356q0 14 27 19q82 16 115 32q4 2 7 -1.5t3 -9.5q0 -2 -0.5 -40t-1.5 -86t-1 -73q0 -56 2 -126q1 -20 9 -28.5t26 -13.5q21 -6 21 -20q0 -12 -26 -12q-2 0 -48 2q-53 -66 -53 -132q0 -19 13 -33.5t33 -14.5q28 0 54 14q10 3 10 -8q0 -17 -8 -25q-15 -21 -42 -37.5
t-60 -16.5q-43 0 -65.5 27t-22.5 59q0 36 29 81t76 87h-11q-19 0 -47.5 -1.5t-34.5 -1.5q-27 0 -27 11q0 13 23 19q34 9 40 28q5 17 5 140q0 98 -3 116q-4 17 -24 24q-18 7 -18 21zM147 617q24 0 38.5 -20.5t14.5 -43.5q0 -24 -20 -41t-41 -17t-38.5 15.5t-17.5 44.5
q0 23 18 42.5t46 19.5z" />
    <glyph glyph-name="Idotaccent" unicode="&#x130;" horiz-adv-x="369" 
d="M124 334q0 155 -3 193q-2 29 -4 39.5t-13 20t-35 15.5q-30 8 -30 20q0 14 32 14q14 0 55.5 -1.5t58.5 -1.5q26 0 64.5 1.5t54.5 1.5q31 0 31 -14q0 -15 -31 -20q-18 -3 -29.5 -9t-16.5 -15.5t-6.5 -16.5t-2.5 -20q-4 -33 -4 -232q0 -149 3 -194t14 -60t52 -26
q28 -6 28 -21q0 -13 -31 -13q-17 0 -72 3t-78 2q-13 0 -45 -1.5t-51 -1.5q-31 0 -31 17q0 12 30 19q33 8 43 24t12 51q5 63 5 226zM188 816q25 0 39.5 -21t14.5 -44q0 -26 -19.5 -43t-41.5 -17q-21 0 -39 16t-18 46q0 24 18.5 43.5t45.5 19.5z" />
    <glyph glyph-name="dotlessi" unicode="&#x131;" horiz-adv-x="272" 
d="M42 355q0 13 27 18q24 5 71.5 20.5t48.5 15.5q3 0 6.5 -4t3.5 -7q-5 -85 -5 -226q0 -31 2 -101q1 -21 9 -28t30 -14t22 -19q0 -13 -28 -13q-2 0 -36 1.5t-47 1.5q-18 0 -54 -2t-43 -2q-28 0 -28 13q0 10 26 18q33 10 37 29q6 21 6 156q0 78 -2 90q-1 9 -34 36
q-12 12 -12 17z" />
    <glyph glyph-name="IJ" unicode="&#x132;" horiz-adv-x="726" 
d="M124 334q0 155 -3 193q-2 29 -4 39.5t-13 20t-35 15.5q-30 8 -30 20q0 14 32 14q14 0 55.5 -1.5t58.5 -1.5q26 0 64.5 1.5t54.5 1.5q31 0 31 -14q0 -15 -31 -20q-18 -3 -29.5 -9t-16.5 -15.5t-6.5 -16.5t-2.5 -20q-4 -33 -4 -232q0 -149 3 -194t14 -60t52 -26
q28 -6 28 -21q0 -13 -31 -13q-17 0 -72 3t-78 2q-13 0 -45 -1.5t-51 -1.5q-31 0 -31 17q0 12 30 19q33 8 43 24t12 51q5 63 5 226zM292 -168q0 8 11 24.5t20 25.5q3 4 14 9.5t15 5.5q13 0 31 -11q41 -29 63 -29q18 0 27 12q15 19 20 65q3 43 3 331q0 180 -5 285
q-2 38 -56 51q-32 7 -32 22q0 14 31 14q14 0 52.5 -2t61.5 -2q30 0 70 1.5t52 1.5q28 0 28 -12q0 -14 -30 -22q-27 -6 -37 -20t-11 -50q-3 -275 -7 -430q-3 -86 -38.5 -156.5t-87.5 -107.5q-71 -51 -123 -51q-26 0 -49 12.5t-23 32.5z" />
    <glyph glyph-name="ij" unicode="&#x133;" horiz-adv-x="531" 
d="M42 354q0 14 27 19q24 5 71.5 20.5t48.5 15.5q3 0 6.5 -4t3.5 -7q-5 -85 -5 -226q0 -31 2 -101q1 -21 9 -28t30 -14t22 -19q0 -13 -28 -13q-2 0 -36 1.5t-47 1.5q-18 0 -54 -2t-43 -2q-28 0 -28 13q0 10 26 18q33 10 37 29q6 21 6 156q0 78 -2 90q-1 8 -34 36
q-12 12 -12 16zM148 616q24 0 38.5 -20.5t14.5 -41.5q0 -24 -20 -42.5t-40 -18.5q-23 0 -40 17q-19 19 -19 44q0 27 16 44q20 18 50 18zM301 354q0 7 17 12q79 20 118 42q10 6 18 6q3 0 7 -5t4 -8q0 -23 -1.5 -181t-2.5 -172q-3 -106 -42 -170q-39 -66 -88 -105
q-18 -16 -39.5 -28t-27.5 -12q-15 0 -24 12q-2 1 -1 5.5t4 6.5q45 29 62 48q49 59 49 243q0 194 -3 241q-2 23 -39 48q-11 7 -11 17zM395 619q34 0 50.5 -21.5t16.5 -40.5q0 -30 -20.5 -46t-41.5 -16q-17 0 -37 18t-21 43q-2 29 23 50q13 13 30 13z" />
    <glyph glyph-name="Jcircumflex" unicode="&#x134;" horiz-adv-x="357" 
d="M-77 -168q0 8 11 24.5t20 25.5q3 4 14 9.5t15 5.5q13 0 31 -11q41 -29 63 -29q18 0 27 12q15 19 20 65q3 43 3 331q0 180 -5 285q-2 38 -56 51q-32 7 -32 22q0 14 31 14q14 0 52.5 -2t61.5 -2q31 0 70 1.5t52 1.5q28 0 28 -12q0 -14 -30 -22q-27 -6 -37 -20t-11 -50
q-3 -275 -7 -430q-3 -86 -38.5 -156.5t-87.5 -107.5q-71 -51 -123 -51q-26 0 -49 12.5t-23 32.5zM187 821q11 0 41 -25q38 -38 86 -80q3 -2 6 -6.5t5 -9.5t-0.5 -9t-10.5 -4q-11 0 -32 9q-35 16 -90 47q-10 4 -18 -1q-11 -6 -43.5 -21t-47.5 -23q-17 -10 -30 -10t-7 14
q4 9 15 19q8 7 86 76q28 24 40 24z" />
    <glyph glyph-name="jcircumflex" unicode="&#x135;" horiz-adv-x="259" 
d="M29 354q0 7 17 12q79 20 118 42q11 6 18 6q3 0 7 -5t4 -8q-4 -212 -4 -353q-3 -108 -42 -170q-37 -63 -88 -105q-18 -16 -39.5 -28t-27.5 -12q-15 0 -24 12q-2 1 -1 5.5t4 6.5q49 30 63 49q48 58 48 239q0 197 -3 244q-2 23 -39 48q-11 7 -11 17zM126 651q11 0 32 -39
q3 -6 15 -28t26 -49t27 -52q16 -37 -3 -37q-6 0 -16 7.5t-14 13.5q-12 17 -34.5 47l-28.5 38q-2 3 -6 3t-6 -3l-27 -36t-37 -50q-12 -18 -27 -18q-5 0 -7.5 9t1.5 18q0 1 74 142q19 34 31 34z" />
    <glyph glyph-name="Kcommaaccent" unicode="&#x136;" horiz-adv-x="703" 
d="M43 622q0 14 30 14q11 0 50.5 -1.5t55.5 -1.5t56.5 1t51.5 1q32 0 32 -13q0 -10 -27 -18q-30 -9 -39 -19t-10 -42q-4 -57 -1 -206q0 -7 7 -7q8 0 17 9q26 19 100 93t109 117q19 19 15.5 32.5t-33.5 20.5q-24 6 -24 16q0 14 25 14h42q36 0 93 2.5t66 2.5q28 0 28 -12
q0 -13 -36 -20q-27 -5 -53.5 -18.5t-39 -23t-44.5 -34.5q-81 -64 -159 -151q-5 -5 -1 -10q17 -25 109.5 -132.5t141.5 -158.5q23 -24 42 -33.5t53 -16.5q8 -2 14.5 -8t6.5 -9q0 -7 -9.5 -11.5t-19.5 -4.5q-13 0 -84.5 4t-85.5 4q-20 0 -46.5 -1t-36.5 -1q-22 0 -22 16
q0 9 47 23q7 3 0 14q-25 34 -85 108t-93 110t-37 37q-7 0 -7 -23q-1 -44 4 -208q0 -15 10.5 -25.5t40.5 -18.5q28 -8 28 -20q0 -15 -32 -15q-10 0 -58.5 1t-65.5 1q-15 0 -56 -2t-57 -2q-10 0 -18.5 5t-8.5 10q0 12 29 19q37 7 49 23.5t14 61.5q3 42 3 226q0 120 -4 192
q-1 35 -10 48t-38 21t-29 20zM364 -53q31 0 53.5 -23.5t22.5 -64.5q0 -52 -41.5 -79.5t-68.5 -27.5q-17 0 -17 9q0 11 16 18q20 7 37.5 23t17.5 36q0 13 -6.5 19.5t-23.5 9.5q-38 10 -38 39q0 20 15.5 30.5t32.5 10.5z" />
    <glyph glyph-name="kcommaaccent" unicode="&#x137;" horiz-adv-x="505" 
d="M291 393h42q34 0 85 5.5t60 5.5t9 -8t-8 -15.5t-13 -8.5q-43 -10 -67 -21t-57 -35q-14 -10 -35 -30t-25 -27l-1 -7q13 -21 70 -94.5t81 -97.5q29 -26 61 -34q25 -8 25 -16q0 -16 -31 -16q-6 0 -59 3t-83 2l-48 -1q-26 0 -26 14q0 9 22 15q24 8 13 23q-15 21 -47 62.5
t-50 66.5q-15 20 -19 20q-3 0 -5 -9q-3 -8 -2.5 -59t3.5 -67q2 -11 4.5 -17t9.5 -11.5t21 -8.5q21 -6 21 -15q0 -15 -27 -15q-13 0 -48 1.5t-47 1.5q-20 0 -53.5 -2t-37.5 -2q-28 0 -28 13q0 9 29 18q23 7 31.5 16t10.5 29q7 133 7 307q0 165 -6 221q-2 11 -30 28
q-16 8 -16 21q0 6 16 10q82 18 118 38q18 9 21 9q2 0 6 -5t3 -8q-9 -52 -9 -372q0 -85 3 -95q1 -6 8 -6q3 0 16 11q21 18 58 55.5t52 55.5q1 3 2 7t-6 8.5t-23 7.5q-21 5 -21 14q0 5 6.5 9.5t13.5 4.5zM240 -46q31 0 53.5 -23.5t22.5 -64.5q0 -52 -41.5 -79.5t-68.5 -27.5
q-17 0 -17 9q0 11 16 18q20 7 37.5 23t17.5 36q0 13 -6.5 19.5t-23.5 9.5q-38 10 -38 39q0 20 15.5 30.5t32.5 10.5z" />
    <glyph glyph-name="kgreenlandic" unicode="&#x138;" horiz-adv-x="498" 
d="M521 11q0 -15 -30 -15q-9 0 -50 2t-72 2q-47 0 -73 -2q-8 0 -16 4.5t-8 10.5q0 10 22 16q15 5 18.5 9.5t-3.5 12.5q-9 13 -37 53t-52 72q-14 17 -23 17q-6 0 -6 -9q0 -92 2 -116q1 -19 9 -26.5t25 -11.5q19 -5 19 -15q0 -18 -29 -18q-12 0 -39 1.5t-43 1.5
q-18 0 -48 -1.5t-41 -1.5q-26 0 -26 15q0 12 26 19q20 5 27 12t9 20q6 48 6 133q2 119 -2 141q-4 18 -30 24q-21 9 -21 17q0 6 8.5 11.5t24.5 5.5q57 0 120 12q4 1 7 -3.5t2 -8.5q-6 -84 -6 -169q0 -8 6 -8q8 0 23 11q24 18 60 56.5t48 60.5q9 12 -18 18q-28 7 -28 17
q0 14 28 14q6 0 50 -2q36 1 65.5 4.5t42.5 3.5q23 0 23 -10q0 -14 -21 -18q-39 -9 -64 -21t-55 -39q-22 -19 -57 -56q-4 -4 0 -11q90 -128 143 -185q23 -23 61 -33q23 -7 23 -17z" />
    <glyph glyph-name="Lacute" unicode="&#x139;" horiz-adv-x="586" 
d="M43 621q0 14 30 14q13 0 49 -1t51 -1q21 0 71.5 2t60.5 2q31 0 31 -12t-22 -19q-61 -15 -63 -40q-7 -50 -7 -299q0 -143 5 -185q1 -15 14.5 -26t21.5 -13q32 -5 83 -5q50 0 72 5q21 5 31 14q39 39 63 78q14 20 27 20q11 0 4 -27q-21 -67 -32 -118q-1 -4 -10.5 -10.5
t-12.5 -6.5q-1 0 -37 1.5t-108 3.5t-162 2q-26 0 -80.5 -3t-67.5 -3q-30 0 -30 13q0 14 25 19q39 7 52 22t17 50q5 63 5 274q0 136 -1 169q-1 28 -10.5 40.5t-41.5 20.5q-28 7 -28 19zM263 820q15 12 32 6q14 -7 27.5 -19t13.5 -20q0 -6 -7.5 -14t-15.5 -12
q-100 -48 -161 -69q-25 -8 -34 1q-2 2 -1 6t4.5 10t8.5 10q33 30 133 101z" />
    <glyph glyph-name="lacute" unicode="&#x13a;" horiz-adv-x="264" 
d="M33 646q0 10 18 17q9 2 32 8t35.5 9.5t30.5 11t32 16.5q2 1 7 -3t5 -7q-8 -96 -8 -387q0 -200 4 -240q2 -13 5 -20t12.5 -14t27.5 -12q21 -7 21 -17q0 -12 -27 -12q-13 0 -52 2t-47 2q-12 0 -47.5 -2t-45.5 -2q-29 0 -29 12q0 13 24 17q24 7 32 21.5t10 54.5q6 88 6 315
q0 29 -0.5 96t-0.5 79q0 9 -5.5 15t-21.5 19q-18 15 -18 21zM214 862q15 12 32 6q14 -7 27.5 -19t13.5 -20q0 -6 -7.5 -14t-15.5 -12q-100 -48 -161 -69q-25 -8 -34 1q-2 2 -1 6t4.5 10t8.5 10q33 30 133 101z" />
    <glyph glyph-name="Lcommaaccent" unicode="&#x13b;" horiz-adv-x="586" 
d="M43 621q0 14 30 14q13 0 49 -1t51 -1q21 0 71.5 2t60.5 2q31 0 31 -12t-22 -19q-61 -15 -63 -40q-7 -50 -7 -299q0 -143 5 -185q1 -15 14.5 -26t21.5 -13q32 -5 83 -5q50 0 72 5q21 5 31 14q39 39 63 78q14 20 27 20q11 0 4 -27q-21 -67 -32 -118q-1 -4 -10.5 -10.5
t-12.5 -6.5q-1 0 -37 1.5t-108 3.5t-162 2q-26 0 -80.5 -3t-67.5 -3q-30 0 -30 13q0 14 25 19q39 7 52 22t17 50q5 63 5 274q0 136 -1 169q-1 28 -10.5 40.5t-41.5 20.5q-28 7 -28 19zM280 -51q31 0 53.5 -23.5t22.5 -64.5q0 -52 -41.5 -79.5t-68.5 -27.5q-17 0 -17 9
q0 11 16 18q20 7 37.5 23t17.5 36q0 13 -6.5 19.5t-23.5 9.5q-38 10 -38 39q0 20 15.5 30.5t32.5 10.5z" />
    <glyph glyph-name="lcommaaccent" unicode="&#x13c;" horiz-adv-x="264" 
d="M33 646q0 10 18 17q9 2 32 8t35.5 9.5t30.5 11t32 16.5q2 1 7 -3t5 -7q-8 -96 -8 -387q0 -200 4 -240q2 -13 5 -20t12.5 -14t27.5 -12q21 -7 21 -17q0 -12 -27 -12q-13 0 -52 2t-47 2q-12 0 -47.5 -2t-45.5 -2q-29 0 -29 12q0 13 24 17q24 7 32 21.5t10 54.5q6 88 6 315
q0 29 -0.5 96t-0.5 79q0 9 -5.5 15t-21.5 19q-18 15 -18 21zM119 -46q31 0 53.5 -23.5t22.5 -64.5q0 -52 -41.5 -79.5t-68.5 -27.5q-17 0 -17 9q0 11 16 18q20 7 37.5 23t17.5 36q0 13 -6.5 19.5t-23.5 9.5q-38 10 -38 39q0 20 15.5 30.5t32.5 10.5z" />
    <glyph glyph-name="Lcaron" unicode="&#x13d;" horiz-adv-x="586" 
d="M43 621q0 14 30 14q13 0 49 -1t51 -1q21 0 71.5 2t60.5 2q31 0 31 -12t-22 -19q-61 -15 -63 -40q-7 -50 -7 -299q0 -143 5 -185q1 -15 14.5 -26t21.5 -13q32 -5 83 -5q50 0 72 5q21 5 31 14q39 39 63 78q14 20 27 20q11 0 4 -27q-21 -67 -32 -118q-1 -4 -10.5 -10.5
t-12.5 -6.5q-1 0 -37 1.5t-108 3.5t-162 2q-26 0 -80.5 -3t-67.5 -3q-30 0 -30 13q0 14 25 19q39 7 52 22t17 50q5 63 5 274q0 136 -1 169q-1 28 -10.5 40.5t-41.5 20.5q-28 7 -28 19zM463 658q5 0 10 -6.5t5 -18.5q0 -30 -11 -77.5t-25 -81.5q-3 -10 -10 -21t-13 -11
q-11 0 -13 24q-2 98 -13 138q-1 2 1 8t5 9q11 11 31 24t33 13z" />
    <glyph glyph-name="lcaron" unicode="&#x13e;" horiz-adv-x="264" 
d="M33 646q0 10 18 17q9 2 32 8t35.5 9.5t30.5 11t32 16.5q2 1 7 -3t5 -7q-8 -96 -8 -387q0 -200 4 -240q2 -13 5 -20t12.5 -14t27.5 -12q21 -7 21 -17q0 -12 -27 -12q-13 0 -52 2t-47 2q-12 0 -47.5 -2t-45.5 -2q-29 0 -29 12q0 13 24 17q24 7 32 21.5t10 54.5q6 88 6 315
q0 29 -0.5 96t-0.5 79q0 9 -5.5 15t-21.5 19q-18 15 -18 21zM299 699q5 0 10 -6.5t5 -18.5q0 -30 -11 -77.5t-25 -81.5q-3 -10 -10 -21t-13 -11q-11 0 -13 24q-2 98 -13 138q-1 2 1 8t5 9q11 11 31 24t33 13z" />
    <glyph glyph-name="Ldot" unicode="&#x13f;" horiz-adv-x="586" 
d="M43 621q0 14 30 14q13 0 49 -1t51 -1q21 0 71.5 2t60.5 2q31 0 31 -12t-22 -19q-61 -15 -63 -40q-7 -50 -7 -299q0 -143 5 -185q1 -15 14.5 -26t21.5 -13q32 -5 83 -5q50 0 72 5q21 5 31 14q39 39 63 78q14 20 27 20q11 0 4 -27q-21 -67 -32 -118q-1 -4 -10.5 -10.5
t-12.5 -6.5q-1 0 -37 1.5t-108 3.5t-162 2q-26 0 -80.5 -3t-67.5 -3q-30 0 -30 13q0 14 25 19q39 7 52 22t17 50q5 63 5 274q0 136 -1 169q-1 28 -10.5 40.5t-41.5 20.5q-28 7 -28 19zM447 411q25 0 39.5 -21t14.5 -44q0 -26 -19.5 -43t-41.5 -17q-21 0 -39 16t-18 46
q0 24 18.5 43.5t45.5 19.5z" />
    <glyph glyph-name="ldot" unicode="&#x140;" horiz-adv-x="264" 
d="M271 409q25 0 40.5 -20.5t15.5 -43.5q0 -25 -20 -42t-41 -17t-39 15.5t-18 45.5q0 24 18 43t44 19zM33 646q0 10 18 17q9 2 32 8t35.5 9.5t30.5 11t32 16.5q2 1 7 -3t5 -7q-8 -96 -8 -387q0 -200 4 -240q2 -13 5 -20t12.5 -14t27.5 -12q21 -7 21 -17q0 -12 -27 -12
q-13 0 -52 2t-47 2q-12 0 -47.5 -2t-45.5 -2q-29 0 -29 12q0 13 24 17q24 7 32 21.5t10 54.5q6 88 6 315q0 29 -0.5 96t-0.5 79q0 9 -5.5 15t-21.5 19q-18 15 -18 21z" />
    <glyph glyph-name="Lslash" unicode="&#x141;" horiz-adv-x="586" 
d="M126 317q0 186 -1 219q-1 32 -10.5 46t-39.5 20t-30 19q0 14 27 14q13 0 53.5 -1t55.5 -1q21 0 70.5 2t59.5 2q24 0 24 -14q0 -5 -7.5 -10.5t-18.5 -8.5q-37 -10 -47 -19.5t-12 -36.5q-4 -92 -4 -182q0 -3 2 -5t4 -1q105 41 138 55q7 5 12 -3q8 -13 8 -19q0 -10 -22 -19
q-24 -11 -75 -32.5t-61 -25.5q-1 0 -2 -1.5t-2.5 -4t-1.5 -5.5q0 -156 4 -221q1 -15 13 -27.5t27 -13.5q76 -8 133 -5q12 0 22 3t20 10t16 11t16 17t13 17t13.5 20.5t12.5 19.5q12 19 20 19q6 0 9.5 -8t1.5 -16q-19 -76 -36 -127q-6 -10 -23 -10q-2 0 -33.5 1.5t-99 3
t-156.5 1.5q-19 0 -81.5 -3t-82.5 -3q-28 0 -28 16q0 9 25 16q40 11 52 22.5t16 47.5q3 23 5 161q0 4 -1.5 6t-4.5 1q-11 -5 -33 -12.5t-29 -10.5q-12 -2 -15 1q-8 10 -8 22q0 6 5 8q20 8 81 35q6 2 6 10z" />
    <glyph glyph-name="lslash" unicode="&#x142;" horiz-adv-x="275" 
d="M22 315q6 3 25.5 13.5t27.5 15.5q6 4 6 10q0 195 -2 236q0 10 -5 17t-21 19q-18 14 -18 24q0 1 2 3.5t6.5 5.5t9.5 4q97 25 132 45q2 1 6.5 -3t4.5 -7q-7 -88 -8 -291q0 -4 1.5 -6t3.5 -1q8 5 25.5 13.5t25.5 13.5q5 2 10 -3q6 -15 6 -17q0 -9 -13 -18q-11 -7 -53 -29
q-6 -3 -6 -9q-1 -27 0.5 -142t3.5 -137q2 -19 10 -29t33 -18q23 -6 23 -17q0 -12 -27 -12q-13 0 -53.5 2t-48.5 2q-12 0 -46 -2t-45 -2q-29 0 -29 12q0 11 24 18q25 6 32.5 19t9.5 54q4 49 6 199q0 4 -1 5t-4 0q-14 -6 -37 -19q-9 -5 -15 1q-8 6 -8 18q0 10 6 12z" />
    <glyph glyph-name="Nacute" unicode="&#x143;" horiz-adv-x="772" 
d="M22 622q0 15 30 15q7 0 65 -2t87 -2q9 0 22 -13q7 -8 34.5 -39.5t49.5 -57.5q17 -21 61.5 -69t84.5 -90.5t91.5 -96.5t60.5 -63q3 -3 6 0t3 6q2 12 2 226q0 55 -6 107q-4 41 -62 56q-33 8 -33 23q0 12 29 12q13 0 36 -0.5t32 -0.5q27 0 66 2.5t49 2.5q24 0 24 -13
t-25 -20q-36 -12 -47 -27t-15 -48q-2 -28 -6 -170t-4 -204q0 -23 3 -84t3 -72q0 -6 -6 -12.5t-10 -6.5q-25 0 -54 38q-17 22 -65 81q-52 63 -180.5 206t-165.5 186q-4 4 -7.5 1t-3.5 -6q-4 -55 -5 -129q-2 -228 2 -264q3 -25 16 -39t47 -25q28 -8 28 -19q0 -15 -33 -15
q-14 0 -41.5 2t-45.5 2q-12 0 -49.5 -1.5t-45.5 -1.5q-26 0 -26 13q0 11 22 18q40 12 55.5 28.5t17.5 68.5q2 40 6.5 125.5l8 152t3.5 98.5q0 48 -6 56q-1 1 -6.5 7.5t-6 7.5t-5.5 6.5t-7.5 6.5t-8.5 5t-11.5 6t-13.5 4.5t-18 4.5q-9 2 -17.5 7t-8.5 10zM482 813q15 12 32 6
q14 -7 27.5 -19t13.5 -20q0 -6 -7.5 -14t-15.5 -12q-100 -48 -161 -69q-25 -8 -34 1q-2 2 -1 6t4.5 10t8.5 10q33 30 133 101z" />
    <glyph glyph-name="nacute" unicode="&#x144;" horiz-adv-x="534" 
d="M315 634q2 6 11 12t18 6q41 0 43 -15q2 -13 -7 -28q-14 -27 -49.5 -79t-51.5 -70q-16 -16 -27 -16q-14 0 -4 31q23 71 67 159zM49 350q0 4 6.5 12t11.5 10q52 16 81 30q30 15 34 15q3 0 7 -6t4 -9q0 -6 -0.5 -23t-0.5 -21q0 -3 2 -4t4 -1h1q72 54 127 54q57 0 92 -40
q36 -41 36 -121q0 -140 3 -182q3 -25 35 -34q26 -7 26 -18q0 -14 -29 -14q-11 0 -44 1t-47 1t-43.5 -1.5t-35.5 -1.5q-27 0 -27 14q0 10 24 17q17 7 22.5 16.5t7.5 34.5q2 33 2 186q0 40 -22 60q-23 21 -57 21q-38 0 -66 -20q-7 -5 -10 -22q-1 -12 0 -123.5t2 -120.5
q1 -12 7 -18t28 -13q17 -8 17 -17q0 -14 -28 -14q-9 0 -37.5 1t-39.5 1q-21 0 -54 -1.5t-39 -1.5q-27 0 -27 15q0 10 21 16q25 8 32 18t9 38q5 50 5 211q0 15 -29 41q-11 11 -11 14z" />
    <glyph glyph-name="Ncommaaccent" unicode="&#x145;" horiz-adv-x="772" 
d="M22 622q0 15 30 15q7 0 65 -2t87 -2q9 0 22 -13q7 -8 34.5 -39.5t49.5 -57.5q17 -21 61.5 -69t84.5 -90.5t91.5 -96.5t60.5 -63q3 -3 6 0t3 6q2 12 2 226q0 55 -6 107q-4 41 -62 56q-33 8 -33 23q0 12 29 12q13 0 36 -0.5t32 -0.5q27 0 66 2.5t49 2.5q24 0 24 -13
t-25 -20q-36 -12 -47 -27t-15 -48q-2 -28 -6 -170t-4 -204q0 -23 3 -84t3 -72q0 -6 -6 -12.5t-10 -6.5q-25 0 -54 38q-17 22 -65 81q-52 63 -180.5 206t-165.5 186q-4 4 -7.5 1t-3.5 -6q-4 -55 -5 -129q-2 -228 2 -264q3 -25 16 -39t47 -25q28 -8 28 -19q0 -15 -33 -15
q-14 0 -41.5 2t-45.5 2q-12 0 -49.5 -1.5t-45.5 -1.5q-26 0 -26 13q0 11 22 18q40 12 55.5 28.5t17.5 68.5q2 40 6.5 125.5l8 152t3.5 98.5q0 48 -6 56q-1 1 -6.5 7.5t-6 7.5t-5.5 6.5t-7.5 6.5t-8.5 5t-11.5 6t-13.5 4.5t-18 4.5q-9 2 -17.5 7t-8.5 10zM382 -42
q31 0 53.5 -23.5t22.5 -64.5q0 -52 -41.5 -79.5t-68.5 -27.5q-17 0 -17 9q0 11 16 18q20 7 37.5 23t17.5 36q0 13 -6.5 19.5t-23.5 9.5q-38 10 -38 39q0 20 15.5 30.5t32.5 10.5z" />
    <glyph glyph-name="ncommaaccent" unicode="&#x146;" horiz-adv-x="534" 
d="M49 350q0 4 6.5 12t11.5 10q52 16 81 30q30 15 34 15q3 0 7 -6t4 -9q0 -6 -0.5 -23t-0.5 -21q0 -3 2 -4t4 -1h1q72 54 127 54q57 0 92 -40q36 -41 36 -121q0 -140 3 -182q3 -25 35 -34q26 -7 26 -18q0 -14 -29 -14q-11 0 -44 1t-47 1t-43.5 -1.5t-35.5 -1.5q-27 0 -27 14
q0 10 24 17q17 7 22.5 16.5t7.5 34.5q2 33 2 186q0 40 -22 60q-23 21 -57 21q-38 0 -66 -20q-7 -5 -10 -22q-1 -12 0 -123.5t2 -120.5q1 -12 7 -18t28 -13q17 -8 17 -17q0 -14 -28 -14q-9 0 -37.5 1t-39.5 1q-21 0 -54 -1.5t-39 -1.5q-27 0 -27 15q0 10 21 16q25 8 32 18
t9 38q5 50 5 211q0 15 -29 41q-11 11 -11 14zM258 -46q31 0 53.5 -23.5t22.5 -64.5q0 -52 -41.5 -79.5t-68.5 -27.5q-17 0 -17 9q0 11 16 18q20 7 37.5 23t17.5 36q0 13 -6.5 19.5t-23.5 9.5q-38 10 -38 39q0 20 15.5 30.5t32.5 10.5z" />
    <glyph glyph-name="Ncaron" unicode="&#x147;" horiz-adv-x="772" 
d="M22 622q0 15 30 15q7 0 65 -2t87 -2q9 0 22 -13q7 -8 34.5 -39.5t49.5 -57.5q17 -21 61.5 -69t84.5 -90.5t91.5 -96.5t60.5 -63q3 -3 6 0t3 6q2 12 2 226q0 55 -6 107q-4 41 -62 56q-33 8 -33 23q0 12 29 12q13 0 36 -0.5t32 -0.5q27 0 66 2.5t49 2.5q24 0 24 -13
t-25 -20q-36 -12 -47 -27t-15 -48q-2 -28 -6 -170t-4 -204q0 -23 3 -84t3 -72q0 -6 -6 -12.5t-10 -6.5q-25 0 -54 38q-17 22 -65 81q-52 63 -180.5 206t-165.5 186q-4 4 -7.5 1t-3.5 -6q-4 -55 -5 -129q-2 -228 2 -264q3 -25 16 -39t47 -25q28 -8 28 -19q0 -15 -33 -15
q-14 0 -41.5 2t-45.5 2q-12 0 -49.5 -1.5t-45.5 -1.5q-26 0 -26 13q0 11 22 18q40 12 55.5 28.5t17.5 68.5q2 40 6.5 125.5l8 152t3.5 98.5q0 48 -6 56q-1 1 -6.5 7.5t-6 7.5t-5.5 6.5t-7.5 6.5t-8.5 5t-11.5 6t-13.5 4.5t-18 4.5q-9 2 -17.5 7t-8.5 10zM393 679
q-11 0 -41 25q-7 7 -37 34.5t-49 45.5q-8 5 -11 16.5t12 12.5q2 0 30 -8q51 -26 90 -48q9 -4 19 0q12 7 46 23.5t44 21.5q17 10 31 10q13 0 7 -14q-4 -9 -15 -19q-14 -13 -46 -40.5t-41 -35.5q-28 -24 -39 -24z" />
    <glyph glyph-name="ncaron" unicode="&#x148;" horiz-adv-x="534" 
d="M268 448q-10 0 -32 40q-5 10 -29 54.5t-39 74.5q-2 4 -3.5 9t-2.5 11.5t1 11t8 4.5t16 -7.5t14 -13.5q10 -13 21 -28t23 -31.5t18 -25.5q2 -3 7 -3t6 2q11 15 31.5 43t32.5 45q11 17 27 17q5 0 7.5 -8.5t-1.5 -17.5q-8 -19 -20 -43t-29 -54t-25 -45q-19 -35 -31 -35z
M49 350q0 4 6.5 12t11.5 10q52 16 81 30q30 15 34 15q3 0 7 -6t4 -9q0 -6 -0.5 -23t-0.5 -21q0 -3 2 -4t4 -1h1q72 54 127 54q57 0 92 -40q36 -41 36 -121q0 -140 3 -182q3 -25 35 -34q26 -7 26 -18q0 -14 -29 -14q-11 0 -44 1t-47 1t-43.5 -1.5t-35.5 -1.5q-27 0 -27 14
q0 10 24 17q17 7 22.5 16.5t7.5 34.5q2 33 2 186q0 40 -22 60q-23 21 -57 21q-38 0 -66 -20q-7 -5 -10 -22q-1 -12 0 -123.5t2 -120.5q1 -12 7 -18t28 -13q17 -8 17 -17q0 -14 -28 -14q-9 0 -37.5 1t-39.5 1q-21 0 -54 -1.5t-39 -1.5q-27 0 -27 15q0 10 21 16q25 8 32 18
t9 38q5 50 5 211q0 15 -29 41q-11 11 -11 14z" />
    <glyph glyph-name="napostrophe" unicode="&#x149;" horiz-adv-x="534" 
d="M49 350q0 4 6.5 12t11.5 10q52 16 81 30q30 15 34 15q3 0 7 -6t4 -9q0 -6 -0.5 -23t-0.5 -21q0 -3 2 -4t4 -1h1q72 54 127 54q57 0 92 -40q36 -41 36 -121q0 -140 3 -182q3 -25 35 -34q26 -7 26 -18q0 -14 -29 -14q-11 0 -44 1t-47 1t-43.5 -1.5t-35.5 -1.5q-27 0 -27 14
q0 10 24 17q17 7 22.5 16.5t7.5 34.5q2 33 2 186q0 40 -22 60q-23 21 -57 21q-38 0 -66 -20q-7 -5 -10 -22q-1 -12 0 -123.5t2 -120.5q1 -12 7 -18t28 -13q17 -8 17 -17q0 -14 -28 -14q-9 0 -37.5 1t-39.5 1q-21 0 -54 -1.5t-39 -1.5q-27 0 -27 15q0 10 21 16q25 8 32 18
t9 38q5 50 5 211q0 15 -29 41q-11 11 -11 14zM101 648q32 0 55.5 -24t23.5 -62q0 -35 -23.5 -59.5t-46 -32.5t-37.5 -8q-19 0 -19 9q0 11 16 18q19 8 36 23.5t17 33.5q0 21 -32 27q-39 9 -39 36q0 19 16 29t33 10z" />
    <glyph glyph-name="Eng" unicode="&#x14a;" horiz-adv-x="772" 
d="M182 492q-4 4 -7.5 1t-3.5 -6q-5 -68 -6 -129q-2 -219 3 -264q3 -25 16 -39t47 -25q28 -8 28 -19q0 -15 -33 -15q-14 0 -41.5 2t-45.5 2q-12 0 -49.5 -1.5t-45.5 -1.5q-26 0 -26 13q0 11 22 18q40 12 55.5 28.5t17.5 68.5q2 40 6.5 126t8 153t3.5 98q0 50 -6 57
q-12 14 -18 19.5t-21.5 13.5t-40.5 13q-23 6 -23 17q0 15 30 15q7 0 65 -2t87 -2q9 0 22 -13q7 -8 34.5 -39.5t49.5 -57.5q51 -60 298 -321q3 -3 6 0t3 6q2 12 2 228q0 55 -6 107q-4 41 -62 56q-33 8 -33 23q0 12 29 12q13 0 36 -0.5t32 -0.5q27 0 66 2.5t49 2.5
q24 0 24 -13t-25 -20q-36 -12 -47 -27t-15 -48q-2 -26 -6.5 -221t-4.5 -260q0 -175 -33 -234q-14 -27 -35.5 -41t-37.5 -14q-25 0 -42.5 15t-23.5 39q-2 3 -0.5 9.5t5.5 7.5q3 1 21.5 5t35 10.5t25.5 14.5q15 15 21 22.5t13.5 30.5t7.5 56q0 6 -6 21t-13 24q-8 11 -66 82
q-41 49 -346 395z" />
    <glyph glyph-name="eng" unicode="&#x14b;" horiz-adv-x="522" 
d="M322 407q58 0 94 -41q36 -43 36 -121v-90.5t-0.5 -74.5t-0.5 -32q0 -170 -81 -261q-21 -24 -50.5 -41t-40.5 -17q-18 0 -32 9t-14 21q0 20 7 34q4 9 12 9q4 0 24 -7t33 -7t20 10t11 44.5t5 104.5v80v144v84q0 46 -22 68q-23 23 -55 23q-36 0 -66 -22q-6 -4 -9 -20
q-1 -12 0 -123.5t2 -120.5q1 -8 2.5 -12.5t9 -9t23.5 -9.5q18 -5 18 -17q0 -14 -26 -14q-10 0 -39.5 1t-40.5 1q-21 0 -55 -1.5t-39 -1.5q-25 0 -25 15q0 10 20 17q24 7 31.5 17t9.5 38q5 50 5 213q0 12 -30 39q-10 9 -10 14t6 12t12 9q43 15 83 35q32 16 34 16q3 0 7 -6
t4 -10q0 -3 -2 -23t-2 -25q0 -6 7 -6q71 55 124 55z" />
    <glyph glyph-name="Omacron" unicode="&#x14c;" horiz-adv-x="783" 
d="M388 650q80 0 147.5 -28t110.5 -74t67 -103.5t24 -118.5q0 -171 -126 -272q-43 -33 -102 -52.5t-117 -19.5q-159 0 -260 107q-86 92 -86 229q0 157 129 260q38 29 96 50.5t117 21.5zM364 615q-31 0 -62 -15.5t-51 -35.5q-70 -68 -70 -224q0 -123 68 -222t172 -99
q61 0 102 41q33 33 55 95.5t22 139.5q0 67 -26.5 143t-77.5 123q-26 23 -63 38.5t-69 15.5zM275 778l226 3q7 0 7 -26q0 -15 -6.5 -27.5t-12.5 -12.5h-221q-2 0 -5.5 5.5t-3.5 10.5q0 13 6 30t10 17z" />
    <glyph glyph-name="omacron" unicode="&#x14d;" horiz-adv-x="504" 
d="M144 571l212 3q7 0 7 -25q0 -15 -6.5 -28t-11.5 -13l-207 -1q-2 0 -5 5.5t-3 11.5q0 10 3 21.5t6 18.5t5 7zM261 407q81 0 146 -58t65 -150q0 -58 -27.5 -103t-61.5 -67q-58 -41 -138 -41q-34 0 -72 14.5t-66 37.5q-33 27 -54 69.5t-21 84.5q0 97 69 155q67 58 160 58z
M242 374q-26 0 -49 -22q-41 -37 -41 -131q0 -59 12 -96q15 -50 45.5 -77t63.5 -27q22 0 44 25q37 48 37 137q0 94 -40 151q-31 40 -72 40z" />
    <glyph glyph-name="Obreve" unicode="&#x14e;" horiz-adv-x="783" 
d="M388 650q80 0 147.5 -28t110.5 -74t67 -103.5t24 -118.5q0 -171 -126 -272q-43 -33 -102 -52.5t-117 -19.5q-159 0 -260 107q-86 92 -86 229q0 157 129 260q38 29 96 50.5t117 21.5zM364 615q-31 0 -62 -15.5t-51 -35.5q-70 -68 -70 -224q0 -123 68 -222t172 -99
q61 0 102 41q33 33 55 95.5t22 139.5q0 67 -26.5 143t-77.5 123q-26 23 -63 38.5t-69 15.5zM379 702q-48 0 -83 28.5t-40 79.5q-2 20 11 20q12 0 21 -15q31 -49 95 -49q67 0 100 46q10 15 21 15q4 0 6 -5.5t1 -9.5q-4 -37 -36 -73.5t-96 -36.5z" />
    <glyph glyph-name="obreve" unicode="&#x14f;" horiz-adv-x="504" 
d="M237 471q-42 0 -70.5 28.5t-29.5 87.5q-1 12 5.5 21t13.5 9q11 0 14 -18q16 -65 72 -65t77 67q1 6 9 11t14 5q4 0 6.5 -7.5t2.5 -11.5q-2 -44 -29 -85.5t-85 -41.5zM261 407q81 0 146 -58t65 -150q0 -58 -27.5 -103t-61.5 -67q-58 -41 -138 -41q-34 0 -72 14.5t-66 37.5
q-33 27 -54 69.5t-21 84.5q0 97 69 155q67 58 160 58zM242 374q-26 0 -49 -22q-41 -37 -41 -131q0 -59 12 -96q15 -50 45.5 -77t63.5 -27q22 0 44 25q37 48 37 137q0 94 -40 151q-31 40 -72 40z" />
    <glyph glyph-name="Ohungarumlaut" unicode="&#x150;" horiz-adv-x="783" 
d="M388 650q80 0 147.5 -28t110.5 -74t67 -103.5t24 -118.5q0 -171 -126 -272q-43 -33 -102 -52.5t-117 -19.5q-159 0 -260 107q-86 92 -86 229q0 157 129 260q38 29 96 50.5t117 21.5zM364 615q-31 0 -62 -15.5t-51 -35.5q-70 -68 -70 -224q0 -123 68 -222t172 -99
q61 0 102 41q33 33 55 95.5t22 139.5q0 67 -26.5 143t-77.5 123q-26 23 -63 38.5t-69 15.5zM309 700q-12 -16 -27 -16q-12 0 -4 25q17 62 41 112q9 20 25 20q15 0 29.5 -7.5t14.5 -16.5q0 -10 -5 -20q-12 -21 -74 -97zM465 708q-15 -20 -27 -20q-7 0 -8.5 10t1.5 18
q14 47 41 115q10 20 24 20q13 0 29.5 -6.5t16.5 -14.5q0 -12 -7 -26q-25 -42 -70 -96z" />
    <glyph glyph-name="ohungarumlaut" unicode="&#x151;" horiz-adv-x="504" 
d="M221 632q40 0 41 -17q1 -8 -7 -26q-27 -55 -69 -124q-13 -19 -25 -19q-13 0 -7 28q21 89 44 140q8 18 23 18zM356 647q14 0 29 -6.5t15 -14.5q0 -10 -9 -27q-59 -111 -69 -127q-15 -22 -26 -22q-14 0 -6 31q8 41 44 146q3 8 10 14t12 6zM261 407q81 0 146 -58t65 -150
q0 -58 -27.5 -103t-61.5 -67q-58 -41 -138 -41q-34 0 -72 14.5t-66 37.5q-33 27 -54 69.5t-21 84.5q0 97 69 155q67 58 160 58zM242 374q-26 0 -49 -22q-41 -37 -41 -131q0 -59 12 -96q15 -50 45.5 -77t63.5 -27q22 0 44 25q37 48 37 137q0 94 -40 151q-31 40 -72 40z" />
    <glyph glyph-name="OE" unicode="&#x152;" horiz-adv-x="1072" 
d="M389 613q-69 0 -123 -48q-34 -28 -59.5 -90.5t-25.5 -148.5q0 -72 25.5 -139t82.5 -115t134 -48q56 0 106 36q83 67 83 247q0 88 -16.5 143.5t-57.5 97.5q-62 65 -149 65zM740 633h140q62 0 85 5q4 2 9.5 -2t6.5 -9q0 -1 0.5 -16t0.5 -32.5v-35.5v-24q-1 -11 -6.5 -21.5
t-11.5 -10.5q-10 0 -19 24q-25 74 -44 78q-36 6 -151 6q-11 0 -14 -15q-3 -18 -5 -106t0 -124q3 -10 11 -10h72q48 0 65 10.5t31 48.5q8 21 18 21q15 0 13 -25q0 -4 -2 -29t-2 -38q-1 -29 4 -86q0 -12 -6.5 -20.5t-12.5 -8.5q-10 0 -16 22q-13 33 -23 45.5t-33 14.5
q-32 2 -112 2q-7 0 -7 -8q0 -127 1 -173q0 -47 8 -59q9 -12 27 -17t65 -5q81 0 107.5 14t66.5 79q19 30 29 30q12 0 12 -23q0 -6 -21 -64.5t-26 -64.5q-8 -11 -25 -11q-3 0 -106.5 2.5t-122.5 2.5q-22 0 -122 -4q-12 0 -12 24l1 53q1 3 -1.5 4.5t-6.5 -1.5q-91 -95 -236 -95
q-135 0 -229 98.5t-94 234.5q0 156 128 263q38 31 96.5 52.5t109.5 21.5q137 0 226 -89q8 -10 8 6q-2 36 -2 41q0 24 11 24h117z" />
    <glyph glyph-name="oe" unicode="&#x153;" horiz-adv-x="738" 
d="M259 407q44 0 81.5 -18.5t61.5 -46.5q6 -4 13 -1q67 65 150 65q63 0 105 -39.5t42 -88.5q0 -8 -12 -19t-24 -11h-204q-7 0 -9 -7q-4 -11 -4 -27q0 -70 38.5 -109t96.5 -39q26 0 48 8.5t30.5 15t22.5 19.5q4 4 8.5 2t4.5 -11q0 -14 -11 -31q-58 -80 -159 -80
q-83 0 -134 60q-5 5 -11 -1q-62 -60 -147 -60q-88 0 -151 60t-63 145q0 105 74 161q67 53 153 53zM238 374q-22 0 -44 -22q-17 -15 -29.5 -50.5t-12.5 -84.5q0 -84 32.5 -139.5t84.5 -55.5q31 0 51 27q29 48 29 140q0 25 -4.5 52.5t-15.5 59.5t-34.5 52.5t-56.5 20.5z
M553 376q-30 0 -52.5 -24t-31.5 -57q-3 -12 10 -15h23h35.5h35.5q16 1 28 12.5t12 26.5q0 20 -14 38.5t-46 18.5z" />
    <glyph glyph-name="Racute" unicode="&#x154;" horiz-adv-x="651" 
d="M541 476q0 -72 -70 -128q-6 -5 -39 -21q-8 -3 -2 -14q17 -37 67 -117t84 -119q33 -39 86 -50q7 -1 12.5 -6t5.5 -8q0 -10 -16 -15q-21 -8 -67 -8q-104 0 -151 65q-43 59 -121 192q-21 35 -32 42q-15 13 -48 13q-9 0 -11 -10q-2 -15 -0.5 -90t3.5 -109q2 -33 12 -44.5
t44 -20.5q24 -7 24 -19q0 -15 -31 -15q-16 0 -59 3t-69 3q-21 0 -57 -2t-39 -2q-32 0 -32 16q0 9 24 16q34 10 46 22t14 36q6 77 6 246q0 174 -5 219q-2 20 -13.5 31t-44.5 19q-25 7 -25 19q0 5 8.5 9.5t20.5 4.5h73q16 0 80.5 2.5t93.5 2.5q121 0 174 -44q24 -19 39 -52
t15 -67zM417 464q0 62 -43 106q-34 35 -81 35q-24 0 -38 -7q-9 -5 -12 -21q-3 -29 -4.5 -120.5t1.5 -114.5q2 -12 13 -12q34 0 65.5 7.5t42.5 14.5q56 41 56 112zM392 819q15 12 32 6q14 -7 27.5 -19t13.5 -20q0 -6 -7.5 -14t-15.5 -12q-100 -48 -161 -69q-25 -8 -34 1
q-2 2 -1 6t4.5 10t8.5 10q33 30 133 101z" />
    <glyph glyph-name="racute" unicode="&#x155;" horiz-adv-x="359" 
d="M210 634q2 6 11 12t18 6q41 0 43 -15q2 -13 -7 -28q-14 -27 -49.5 -79t-51.5 -70q-16 -16 -27 -16q-14 0 -4 31q23 71 67 159zM44 348q0 15 13 19q80 25 101 38q19 12 24 12q4 0 8 -4.5t4 -7.5q0 -9 -1.5 -27.5t-1.5 -28.5q0 -2 3 -4t5 0q25 26 54.5 44t51.5 18
q29 0 43.5 -13.5t14.5 -27.5q0 -6 -6 -16q-10 -16 -27 -37t-22 -22q-14 0 -18 4q-10 9 -30 18.5t-33 9.5q-18 0 -25 -6q-9 -7 -9 -20q0 -119 6 -209q3 -48 23 -52q10 -2 43 -13q20 -6 20 -16q0 -12 -28 -12q-11 0 -59.5 2.5t-81.5 2.5q-10 0 -32 -1.5t-34 -1.5q-24 0 -24 14
q0 6 23 15q26 9 32 23t7 61v165q0 31 -8 38q-36 29 -36 35z" />
    </font>
</defs>
</svg>
